<?xml version="1.0" encoding="utf-8"?>
<!-- Generator: Adobe Illustrator 18.1.0, SVG Export Plug-In . SVG Version: 6.00 Build 0)  -->
<!DOCTYPE svg PUBLIC "-//W3C//DTD SVG 1.1//EN" "http://www.w3.org/Graphics/SVG/1.1/DTD/svg11.dtd">
<svg version="1.1" id="Layer_1" xmlns="http://www.w3.org/2000/svg" xmlns:xlink="http://www.w3.org/1999/xlink" x="0px" y="0px"
	 viewBox="0 0 77.9 38.5" enable-background="new 0 0 77.9 38.5" xml:space="preserve">
<path fill-rule="evenodd" clip-rule="evenodd" fill="#3E6932" d="M5.2,0l0,4.5c0,0,5.2,0.4,5.4,3.4c0.2,3-2.9,5.9-2.9,5.9
	c-0.2,0.4-0.5,0.5-0.9,0.5c-0.1,0-0.3,0-0.4-0.1c-1-0.1-1-0.1-1-1.1C5.3,9.4,5.2,2,5.2,2L5.2,0c0,0-3.4,0.7-5.2,0.7
	c0,0.1,0-0.5,0-0.3C0.1,4.6,0.2,8.8,0.3,13c0,3.9,0,7.8,0,11.6c0,3.3,0,6.5,0,9.8c0,0.6-0.1,1.3-0.1,1.9c0,0.4,0.1,0.6,0.5,0.6
	c1.7,0,3.4,0.1,5,0.1c1.3,0,2.5-0.4,3.7-1c2.3-1.2,3.9-3,5-5.4c0.8-1.6,1.3-3.3,1.3-5.2c0-1.8-0.1-3.6-1.1-5.2
	c-0.6-0.9-1.2-1.7-1.9-2.6c-0.3-0.3-0.6-0.6-0.9-0.8c-0.4-0.2-0.3-0.5-0.2-0.8c0.6-1.3,1.9-0.9,2.6-8.5C14.9-0.1,5.2,0,5.2,0z
	 M4.7,24.2C4.7,24.2,4.7,24.2,4.7,24.2c0.1-1.4,0.1-2.9,0.1-4.3c0-0.5,0.2-0.6,0.7-0.6c1.1,0.1,2.2,0.5,3.1,1.1
	c1.6,1.1,2.4,2.6,2.6,4.5c0.1,1.6-0.4,3-1,4.4c-0.4,0.8-0.9,1.4-1.7,1.7c-1.1,0.5-2.3,0.4-3.5,0.4c-0.4,0-0.5-0.2-0.5-0.6
	C4.5,28.7,4.6,26.4,4.7,24.2z"/>
<path fill-rule="evenodd" clip-rule="evenodd" fill="#539241" d="M33.7,37.2c-4.4,0-8.8,0-13.2,0c0-0.2-0.1-0.5-0.1-0.9
	c0-3.2,0-6.5,0-9.7c0-5.5,0-11-0.1-16.5c0-2.4,0-4.9-0.1-7.3c0-0.2,0-0.4,0-0.6C24.6,2.1,29,1.8,33.3,2c-0.1,1.8-0.1,3.6-0.2,5.4
	c-2.6,0.1-5.4,0.2-8.1,0.3c0,3.2,0,6.3,0,9.4c1.9,0,3.8,0,5.7,0c0,0.3,0.1,0.5,0.1,0.8c0,1.4,0,2.7,0,4.1c0,0.4-0.2,0.5-0.6,0.5
	c-1.8,0.1-3.7,0.2-5.7,0.2c0.1,2.9,0.1,5.9,0.2,8.9c2.9-0.1,5.7-0.1,8.6-0.2C33.4,33.3,33.6,35.1,33.7,37.2z"/>
<path fill-rule="evenodd" clip-rule="evenodd" fill="#B9C433" d="M57.1,6.7c0,0.5-0.3,0.7-0.7,0.7c-1.6,0-3.1,0-4.7,0
	c-1.5,0-1.6,0-1.5,1.6c0.1,4.1,0.2,20.3,0.3,24.4c0,1.1,0,2.2,0,3.3c-2,0-4,0-6,0c0-5.7,0-23.5,0-29.3c-2.3,0-4.5,0-6.7,0
	c0-1.7,0-3.2,0-4.9c6.4-0.3,12.9-0.7,19.4-1"/>
<path fill-rule="evenodd" clip-rule="evenodd" fill="#DBD56E" d="M73.9,36.6c-0.7-3.5-1.3-7-2-10.6c-0.6,0-1.2,0-1.7,0.1
	c-1.7,0.1-3.3,0.2-5,0.4c-0.2,0-0.4,0.2-0.4,0.3c-0.8,3.1-1.6,6.2-2.5,9.3c-0.2,0.8-0.5,1.6-0.8,2.5c-1.3-0.5-2.6-1-3.9-1.5
	c-0.3-0.1-0.5-0.3-0.4-0.7c0.9-3.3,1.7-6.7,2.6-10c1.2-4.6,2.3-9.2,3.4-13.8C64,9,64.9,5.6,65.8,2.1c0.2-0.9,0.2-0.9,1.2-1
	c1.4-0.2,2.8-0.3,4.2-0.5c0.1,0,0.2,0,0.3,0c0.2,1.1,0.5,2.2,0.7,3.3c0.8,5,1.9,10,3,14.9c0.5,2.4,0.8,4.8,1.3,7.2
	c0.4,2.1,0.8,4.1,1.2,6.2c0.2,0.9,0.2,1.9,0.3,2.8c0,0.1-0.1,0.3-0.2,0.4C76.4,35.8,75.2,36.1,73.9,36.6z M71,21.1
	c-0.7-4-1.4-8-2.1-12c0,0-0.1,0-0.1,0c-1,4-1.9,7.9-2.9,12C67.6,21.1,69.3,21.1,71,21.1z"/>
</svg>
