<?xml version="1.0" encoding="utf-8"?>
<!-- Generator: Adobe Illustrator 18.1.0, SVG Export Plug-In . SVG Version: 6.00 Build 0)  -->
<!DOCTYPE svg PUBLIC "-//W3C//DTD SVG 1.1//EN" "http://www.w3.org/Graphics/SVG/1.1/DTD/svg11.dtd">
<svg version="1.1" id="Layer_1" xmlns="http://www.w3.org/2000/svg" xmlns:xlink="http://www.w3.org/1999/xlink" x="0px" y="0px"
	 viewBox="0 178.1 612 370.2" enable-background="new 0 178.1 612 370.2" xml:space="preserve">
<g>
	<g>
		<path fill="#FFFFFF" d="M2.5,548.3c0-70.8,0-301.5,0-372.5c203.4,0,406.9,0,610.3,0c0,70.8,0,301.5,0,372.5
			C409.4,548.3,206,548.3,2.5,548.3z M611.4,179.1c-5.5,0-10.1,0-14.8,0c-0.4,0-1.3,1.3-1.5,1.9c-0.2,0.6,0.4,1.9,0.8,2.1
			c2.1,0.4,4.2,0.8,6.3,1.1c1.3,0.2,2.5,0,3.4,0c0,3.6,0,6.8,0,10.4c1.5-0.2,4,0.6,4.2-1.7C610.7,188.6,610.9,184.2,611.4,179.1z
			 M611.8,539c0-1.5,0-3,0-4.4c0-1.3,0.6-2.7-1.7-2.7c-3.4,0.2-3.4,0-3.4,3c0,1.9,0,3.8,0,5.7c0,3-0.4,3.4-3.6,3
			c-1.9-0.2-4,0-6.1,0.2c-0.6,0-1.3,1.5-1.3,2.1c0,0.6,0.8,1.5,1.5,1.7c2.1,0.4,4.2,0.6,6.5,0.4C611.8,546.8,611.8,546.8,611.8,539z
			 M344.1,546.4v0.2c3.4-0.2,6.8-0.6,10.1-0.8c1.3-0.2,2.7,0.4,2.5-1.9c-0.2-3-0.6-3.4-3-3.4c-3.2,0.2-6.3,0.4-9.5,0.6
			c-2.1,0.2-4,0-6.1,0c-2.1,0-1.9,1.5-2.1,3c-0.2,1.7,0.8,2.1,2.1,2.1C340.3,546.4,342.2,546.4,344.1,546.4z M242.3,177.6v-0.2
			c-3.2,0.2-6.5,0.6-9.7,1.1c-1.1,0.2-2.5-0.6-2.5,1.5c0.2,3.2,0.6,3.6,3,3.6c3.8-0.2,7.8-0.4,11.6-0.6c1.3,0,2.3,0,3.6,0
			c1.9,0,2.5-1.3,2.5-3c0.2-1.9-1.3-2.1-2.5-2.1C246.3,177.6,244.4,177.6,242.3,177.6z M8,527.1c-4.2,1.1-4.2,1.1-4.2,3
			c0.2,3.8,0.4,7.4,0.6,11.2c0.2,4.4,0,4.4,4.6,4.6c2.5,0,5.1,0,8,0c-0.4-1.7-0.6-3.2-0.8-4c-2.1,0-3.8-0.2-5.5,0
			c-2.1,0.2-2.7-0.6-2.7-2.7C8,535.4,8,531.4,8,527.1z M61.3,542.1c0-0.2,0-0.2,0-0.4c-4,0.4-7.8,0.6-11.8,0.8
			c-1.5,0-1.5,0.8-1.3,1.9c0.2,1.3-0.4,3.2,1.9,3c5.7-0.2,11.4-0.6,17.3-0.8c1.7,0,1.9-1.3,1.9-2.7c0.2-1.5-0.8-1.9-1.9-1.9
			C65.3,541.9,63.2,542.1,61.3,542.1z M262.2,542.1c0-0.2,0-0.2,0-0.4c-1.9,0-3.8,0-5.5,0c-2.3,0-1.9,1.5-2.1,3
			c-0.2,1.5,0.4,2.1,1.9,2.1c5.7,0,11.4-0.2,17.1-0.4c0.4,0,1.3-0.6,1.3-1.1c0.4-3.2-0.8-4.2-4-4
			C267.7,541.7,264.9,541.9,262.2,542.1z M316.5,178.3c-0.6,4.2-0.2,4.9,3.2,3.8c0.2,0,0.6,0,0.8,0c4.9,0.2,9.7,0.2,14.6,0.4
			c3.8,0,3.8,0,4-4c0-0.2-0.2-0.2,0-0.2C331.5,178.3,323.9,178.3,316.5,178.3z M403.5,177.2c0,1.5,0.2,2.3,0.2,3.4
			c0,1.5,0.4,2.1,2.1,2.1c5.1-0.2,10.4-0.2,15.4-0.6c2.3-0.2,1.5-2.3,1.7-3.4c0.2-1.5-0.8-1.5-1.9-1.5c-1.7,0-3.2,0-4.9,0
			C411.9,177.2,407.9,177.2,403.5,177.2z M450.6,177c-6.5,0-13.3,0-20.1,0c0,0.4,0.2,1.5,0.2,2.3c-0.4,2.3,0.8,3,3,3
			c4.4-0.2,8.9-0.4,13.5-0.4c3.8,0,3.8,0,3.8-3.8C450.8,177.6,450.8,177.6,450.6,177z M491,182.5c1.1-0.2,1.9-0.2,2.7-0.4
			c4.2-1.1,8.5-1.1,12.9-0.6c1.5,0.2,2.7,0.2,4.2,0.2c1.9,0,2.1-1.1,2.1-2.5c0-1.7-1.1-1.7-2.3-1.7c-4.4-0.2-8.9-0.4-13.1-0.6
			c-2.1,0-4.2,0.2-6.3,0.4C491,179.1,491,180.6,491,182.5z M605.5,222.4c0,1.1,0,1.9,0,2.5c-0.2,3.8-0.4,7.4-0.6,11.2
			c0,1.5,0.4,2.5,2.1,2.3c0.8-0.2,1.9,0,2.7-0.4c0.4-0.2,1.1-0.8,1.1-1.3c0.2-4.4,0.2-9.1,0.2-13.7c0-0.4-0.2-0.8-0.4-1.3
			C608.8,222.2,607.4,222.2,605.5,222.4z M288.1,178.1c-0.2,0.2-0.4,0.4-0.6,0.8c0.6,1.3,1.1,3.4,2.1,3.6c2.1,0.6,4.6,0.4,7,0.4
			c3-0.2,6.1-0.4,9.1-0.6c3.6-0.4,4-1.1,3.2-4C301.9,178.1,294.9,178.1,288.1,178.1z M605.5,275.9c0,1.3,0,2.5,0,3.8
			c0,4.4,0,4.4,4.4,4c1.9-0.2,1.9-1.1,1.7-2.5c-0.2-1.5-0.4-3.2-0.6-4.6c0-2.1,0-4.4-0.2-6.5c0-0.8-0.8-1.9-1.5-2.1
			c-2.5-0.6-4,0.8-4,3.4C605.5,272.9,605.5,274.4,605.5,275.9z M605.5,314.1c-0.2,2.7-0.6,5.3-0.6,7.6c0,2.1,0,4.2,0.6,6.3
			c0.4,1.9,2.3,2.1,4,1.7c1.7-0.4,1.3-1.7,1.3-3.2c-0.2-1.9,0-3.8,0-5.7c0.2-2.3,0.4-4.4,0.8-7C609.3,313.9,607.1,313.9,605.5,314.1
			z M604.8,216.5c1.7-0.2,3.2-0.2,4.4-0.6c0.4,0,0.8-0.8,1.1-1.3c0.4-4,1.1-8,1.5-12c0.2-2.7-0.2-3.2-3-2.7
			c-1.9,0.2-1.9,1.5-2.5,2.7C604.8,207.2,604.4,211.7,604.8,216.5z M307.4,541.9c-0.6,4-0.4,4.2,3.2,4.2c6.3,0,12.5,0,18.8,0
			c0.2-0.8,0.2-1.7,0.4-2.3c0.4-1.9-0.4-2.3-1.9-1.9c-0.4,0-0.8,0.2-1.3,0.2c-5.1,0-9.9,0.2-15,0.2
			C310.1,542.1,308.6,542.1,307.4,541.9z M412.6,542.1c-6.5-0.2-13.1-0.6-19.6-0.8c-0.6,0-2.1,0.6-2.1,1.1c0,1.3-0.6,3.2,1.7,3.2
			c5.7,0,11.4,0.2,16.9,0.2C412.6,545.7,413.2,544.9,412.6,542.1z M173.9,182.3c0.4,0,0.6,0.2,0.8,0.2c6.5,0,12.9,0.2,19.4,0.2
			c1.1,0,2.1,0.4,2.1-1.3c0-1.3,0.6-3.2-1.9-3.2c-5.7,0-11.4,0-17.3-0.2C174.5,178.3,173.6,179.1,173.9,182.3z M257.7,177.6
			c-0.2,0.6-0.4,1.5-0.4,2.1c-0.4,2.3,0,2.5,2.3,2.1c1.1-0.2,2.1-0.6,3.2-0.4c4.4,0,8.9,0.2,13.1,0.4c1.3,0,2.5,0,4,0
			c0.2-4,0.2-4-3.4-4.2c-1.5,0-3.2,0-4.6,0C267.2,177.6,262.6,177.6,257.7,177.6z M605,261.5c0.6,0,1.9-0.2,3-0.2
			c1.9,0.2,3-0.6,3-2.7c0-4,0-8.2,0-12.5c-1.3,0.2-2.5,0.4-3.6,0.6c-1.5,0.2-1.9,0.8-1.9,2.3C605.5,253.3,605.2,257.3,605,261.5z
			 M489.3,545.9c0-0.6,0.2-1.3,0.2-1.7c0.2-3.2,0-3.2-3-2.5c-0.8,0.2-1.7,0-2.3,0c-4.2-0.2-8.7-1.1-12.9,0.8
			c-0.6,0.2-1.1,1.3-1.3,1.9c-0.2,1.3,0.4,1.9,1.9,1.7C477.6,545.9,483.3,545.9,489.3,545.9z M110.1,545.9c7,0,13.9,0,21.1,0
			c-0.4-1.7-0.6-3.2-0.8-4.4c-1.5,0-2.7,0-4,0c-2.1,0-4.2,0-6.1,0.2c-2.5,0.2-4.9,0.8-7.2,0.8C109.6,542.8,109.6,542.6,110.1,545.9z
			 M98.9,541.3c-0.8,0-1.7-0.2-2.5,0c-5.3,1.5-10.6,1.3-16.1,1.3c-0.8,0-2.1,0.6-2.1,0.8c0,1.1,0,2.5,1.9,2.5c5.1,0,9.9,0.2,15,0.4
			C99.7,546.4,99.9,546.4,98.9,541.3z M164.1,541.5c-0.2,3-0.2,3.2,2.5,3.4c5.3,0.2,10.6,0.4,15.8,0.6c2.1,0,2.3-0.6,1.9-3.8
			c-0.2-1.9-1.5-1.3-2.5-1.3c-4.2,0.4-8.5,0.6-12.7,1.1C167.5,541.5,165.8,541.5,164.1,541.5z M216.3,541.5
			c-2.1-0.2-3.8-0.4-5.5-0.4c-1.3,0-2.7,0-4,0c-3.2,0.2-6.3,0.6-9.5,0.8c-0.4,0-1.1,0.2-1.5,0.2c0,1.1,0,2.1,0,3.2
			c7.2,0,14.2,0,21.3,0C216.7,543.8,216.5,542.6,216.3,541.5z M247,546.4c0-0.2,0.2-0.8,0.4-1.3c0.4-3.2,0.2-3-3-2.7
			c-4.6,0.4-9.5,0-14.4,0c-1.5,0-3.2-0.2-4.6-0.4c-0.6,3.8-0.4,4.2,3,4.4c1.3,0,2.7,0,4,0C237.2,546.4,241.9,546.4,247,546.4z
			 M367.6,181.7c0.8-4.4,0.4-4.9-3.6-4.4c-2.1,0.2-4.2,0.2-6.3,0.2c-3.2,0-6.5,0-9.7,0c-0.2,1.7-0.2,3-0.2,4.2
			C354.3,181.7,360.8,181.7,367.6,181.7z M364,546.4c5.5-0.4,10.8-0.6,16.3-1.1c3-0.2,3.2-0.6,3-4.2c-5.1,0.2-10.1,0.6-15.2,0.8
			C364,541.9,364,541.9,364,546.4z M539.1,182.3c0.4-4.2,0-4.9-4.2-4.6c-2.1,0-4,0-6.1,0s-4.4,0-6.5,0c-0.2,4.2-0.2,4.2,3.4,4.4
			c0.4,0,1.1,0,1.5,0C531.1,182.3,535.1,182.3,539.1,182.3z M139.2,545.1c4.9,0,9.3,0,13.9,0c1.5,0,1.9-1.3,1.7-2.3
			c-0.2-0.8-0.8-1.9-1.3-2.1c-4.2-0.2-8.5-0.4-12.7-0.4c-0.4,0-1.3,1.1-1.5,1.9C139,543.2,139.2,544.3,139.2,545.1z M222.4,177.6
			c-5.3,0.4-10.6,0.6-15.8,1.3c-3,0.2-3.2,0.8-2.7,4.2c4.9-0.2,9.7-0.6,14.8-0.8C222.4,182.1,222.7,181.9,222.4,177.6z M282,547.2
			c0.6,0,1.1,0.2,1.5,0.2c4.6-0.2,9.3-0.4,14.2-0.6c3.4-0.2,3.6-0.6,3.4-3.8c-5.5,0-11.2,0-16.7,0c-0.6,0-1.5,0.8-1.7,1.5
			C282,545.3,282,546.2,282,547.2z M539.3,542.8c-4.6-0.2-9.1-0.8-13.5-0.8c-4,0-4.9,1.1-3.4,5.5c5.5-0.4,11.2-0.8,16.9-1.3
			C539.3,544.9,539.3,544,539.3,542.8z M548.4,545.9c0.8,0,1.7,0.2,2.5,0.2c5.3-0.2,10.4-0.6,15.6-0.8c2.5-0.2,2.7-0.2,2.5-3.6
			c-6.8,0.2-13.5,0.4-20.3,0.6C548.4,543.8,548.4,544.7,548.4,545.9z M418.7,546.2c5.9,0,11.6,0,17.7,0c-0.2-1.5-0.2-3-0.4-4.4
			c-1.1,0.2-1.9,0.4-2.7,0.4c-3.8,0-7.6-0.2-11.2-0.2C418.3,541.9,418.3,541.9,418.7,546.2z M54.9,181.9c5.3,0,10.4,0,15.6,0
			c0.2-1.5,0.2-3,0.4-4.6c-5.5,0-10.6,0-15.8,0C55.1,178.7,54.9,180,54.9,181.9z M606.3,307.6c0.8,0,2.1,0,3.4,0
			c1.5,0.2,1.9-0.4,1.9-1.9c0-3,0.2-5.9,0-8.9c-0.2-4.2-0.2-4.2-4.6-3.6c-0.2,0-0.2,0.2-0.4,0.2
			C606.7,297.9,606.5,302.5,606.3,307.6z M151.3,182.3c5.9,0,11.4,0,17.1,0c0.2-1.5,0.2-2.7,0.4-4.2c-6.1,0-11.8,0-18,0
			C150.8,179.3,151,180.8,151.3,182.3z M377.3,182.1c5.1,0.2,10.4,0.4,15.4,0.2c1.9,0,0.8-2.1,0.8-3.4c0-0.4-1.1-1.3-1.7-1.3
			c-3.8,0-7.6,0.2-11.4,0C377.1,177.6,376.9,177.6,377.3,182.1z M79.6,182.7c5.5-0.4,10.4-0.6,15.4-1.1c0.2-1.5,0.2-3,0.4-4
			c-5.1,0-10.1,0-15.2,0C80.1,179.5,79.9,181.2,79.6,182.7z M463.5,183.1c5.3-0.6,10.4-1.1,15.4-1.5c2.1-0.2,2.5-0.8,2.3-3
			c-5.9-0.2-11.8-0.4-17.7-0.6C463.5,180,463.5,181.2,463.5,183.1z M605.5,347.1c1.1,0,2.5-0.2,4-0.2c1.3,0,1.7-0.6,1.7-1.9
			c0-2.7,0-5.5,0-8.2c0-1.1,0.2-2.3-1.5-2.3c-3,0-4,0.4-4,2.5C605.5,340.1,605.5,343.5,605.5,347.1z M139.8,177.2
			c-3.4,0.2-6.8,0.6-10.1,0.8c-0.6,0-1.3,0.2-1.9,0.2c-1.9-0.2-2.5,0.4-2.5,2.3c0,0.6,0,1.5,0,2.1c3.8,0,7.2-0.2,10.6,0
			c5.5,0.4,4.6,0.4,4.6-4.2C140.3,178.1,140.3,178.1,139.8,177.2z M447,546.8c4.6-0.2,9.5-0.6,14.6-0.8c0.2-1.5,0.2-3,0.4-4.6
			c-1.1,0.2-1.7,0.4-2.5,0.4c-2.7,0-5.5,0.2-8.2-0.2c-4.6-0.6-5.1-0.4-4.6,4.2C446.8,545.7,446.8,545.9,447,546.8z M606.5,366.1
			c4.4,0,5.1-0.8,5.1-4.6c0-2.1,0-4.2,0-6.3c0-3.4-0.4-3.8-3.8-3c-1.3,0.2-1.9,0.6-1.5,2.1c0.4,1.7,0.2,3.4,0.2,5.1
			C606.5,361.6,606.5,363.8,606.5,366.1z M8.5,214c-4.4-0.4-4.9,0.2-4.9,3.8c0,2.7-0.2,5.3-0.4,8c0,1.3-0.6,3,1.3,3.2s3-0.6,3.2-2.7
			c0-0.6,0.2-1.3,0.2-1.9C8,221,8.2,217.6,8.5,214z M24.7,541.3c0,1.1-0.2,2.1,0,3c0.2,0.6,0.8,1.5,1.3,1.7
			c3.6,0.4,7.4,0.6,11.2,1.1c0-2.3,0-4,0-5.5C33,541.3,28.9,541.3,24.7,541.3z M3,287.3C3,287.3,3.2,287.3,3,287.3
			c0.2,2.1,0,4,0.2,6.1c0,1.3,0.8,1.9,2.1,1.3c1.1-0.4,3.2,0.6,3-2.1c-0.2-3.4-0.4-6.8-0.6-10.4c0-1.1,0-2.1-1.7-1.9
			c-1.3,0.2-3-0.2-3,2.1C3,284.1,3,285.6,3,287.3z M46.7,182.1c0-1.9,0-3.4,0-4.4c-4,0-7.8,0-11.4,0c-0.6,0-1.3,0-1.7,0
			c-1.7,0.2-1.3,1.5-1.1,2.3c0,0.6,0.6,1.9,1.1,1.9C37.8,182.1,42.3,182.1,46.7,182.1z M513.1,541.9c-4.6-0.2-8.9-0.6-13.5-0.8
			c0.2,2.1,0.2,3.6,0.4,5.1c4.4,0,8.7,0,13.1,0C513.1,544.9,513.1,543.6,513.1,541.9z M104.6,182.1c4.6,0,9.1,0,13.9,0
			c-0.4-1.7,1.1-4-1.5-4c-4-0.2-8.2,0-12.5,0C104.6,179.5,104.6,180.8,104.6,182.1z M8.5,187.4c-0.2-1.9-0.4-3.6-0.4-5.5
			c2.3,0,4.2,0,6.1,0c0.2-3,0.2-3-1.5-3c-2.5,0-5.3,0-7.8,0c-0.6,0-1.7,0.6-1.7,1.1c-0.2,3,0,5.9,0,9.1
			C5.3,188.2,6.8,187.8,8.5,187.4z M560,182.9c-0.4-1.5-1.1-2.3-1.1-3.4c-0.2-1.9-1.3-2.5-3.2-2.1c-2.3,0.4-4.9,0.4-7.2,0.6
			c-2.7,0.2-3.2,1.1-2.3,4.2C550.7,182.5,555.2,182.7,560,182.9z M7.8,301.2C4,301.7,4,301.7,4,305c0,1.1,0,2.3,0,3.4
			c0,3.6,0,7.4,0,11c3.8,0.2,3.8,0.2,3.6-2.7c-0.2-3.2-0.2-6.5-0.2-9.7C7.2,305,7.6,303.1,7.8,301.2z M574.4,542.8
			c0.8,1.3,1.3,2.7,1.9,3c4,0.6,7.8,0.8,11.8,1.1c0.4,0,1.3-1.3,1.5-2.1c0.2-0.4-0.6-1.7-1.1-1.7
			C583.9,542.8,579.5,542.8,574.4,542.8z M4.9,338.8c3.8-0.2,6.1-3.4,4.9-6.3c-0.6-1.7-1.5-3.2-2.3-4.9c-1.1,0.2-2.1,0.4-3.4,0.8
			C4.2,331.9,4.4,335.2,4.9,338.8z M7.4,258.8C5.3,258.1,4,259,4,261.1c-0.2,3.6-0.2,7.2-0.2,10.8c0,0.6,0.4,1.3,0.6,1.5
			c0.4,0.4,1.1,0.4,1.7,0.4c0.4,0,0.6-0.8,0.8-1.3C7,267.9,7.2,263.4,7.4,258.8z M7.4,234.9c-2.1-0.2-3.4,0.4-3.2,3
			c0.2,2.5,0.2,4.9,0,7.4c0,1.5-0.4,2.7-0.6,4.2c4.2-0.8,4.4-1.1,4.4-2.7C7.8,242.9,7.6,238.9,7.4,234.9z M8.9,344.3
			c-1.5,0.8-3.2,1.3-3.4,1.9c-0.4,3.4-0.4,6.8-0.4,10.1c0,0.4,0.2,0.6,0.4,1.1c1.1,2.1,2.5,0.4,3.6,0.2c0.2,0,0.6-1.5,0.4-2.1
			c0-1.1-0.6-2.3-0.6-3.4C8.7,349.8,8.9,347.5,8.9,344.3z M7.2,196c-1.5-0.2-3.2-0.6-3.4,1.5c-0.2,2.7-0.2,5.3-0.2,8
			c0,0.4,1.3,1.3,1.9,1.1c0.8-0.2,2.1-0.8,2.1-1.5C7.8,202.2,7.4,199.2,7.2,196z M569.5,182.3c4.9,0,9.3,0,13.9,0c0-1.1,0-1.9,0-3
			c-4.4,0-8.9,0-13.5,0C569.7,180,569.7,181,569.5,182.3z M21.8,182.3c1.3,0,2.3,0,3.2,0c2.3-0.2,1.7-2.1,1.9-3.6
			c0.2-1.5-1.1-1.3-2.1-1.1c-1.5,0.2-3.2,0.4-4.6,0.4c-1.1,0.2-2.1,0.2-1.9,1.7c0.2,1.3,0,2.7,2.1,2.7
			C20.9,182.5,21.5,182.3,21.8,182.3z"/>
		<path d="M611.4,179.1c-0.4,5.1-0.6,9.5-1.3,13.7c-0.4,2.3-2.7,1.5-4.2,1.7c0-3.4,0-6.8,0-10.4c-0.8,0-2.1,0-3.4,0
			c-2.1-0.2-4.2-0.4-6.3-1.1c-0.4-0.2-1.1-1.5-0.8-2.1c0.2-0.6,0.8-1.9,1.5-1.9C601.2,179.1,606.1,179.1,611.4,179.1z"/>
		<path d="M611.8,539c0,7.8,0,7.8-8,8.7c-2.1,0.2-4.4,0-6.5-0.4c-0.6,0-1.5-1.1-1.5-1.7c0-0.6,0.6-2.1,1.3-2.1
			c1.9-0.2,4-0.4,6.1-0.2c3.2,0.4,3.6,0.2,3.6-3c0-1.9,0-3.8,0-5.7c0-2.7,0-2.7,3.4-3c2.3-0.2,1.7,1.5,1.7,2.7
			C611.8,536,611.8,537.5,611.8,539z"/>
		<path d="M344.1,546.4c-1.9,0-3.8,0-5.9,0c-1.5,0-2.3-0.4-2.1-2.1c0.2-1.5,0-3,2.1-3c2.1,0,4,0,6.1,0c3.2-0.2,6.3-0.4,9.5-0.6
			c2.3-0.2,2.7,0.2,3,3.4c0.2,2.1-1.3,1.7-2.5,1.9c-3.4,0.2-6.8,0.6-10.1,0.8C344.1,546.6,344.1,546.4,344.1,546.4z"/>
		<path d="M242.3,177.6c2.1,0,4,0,6.1,0c1.3,0,2.5,0.2,2.5,2.1c-0.2,1.7-0.6,3-2.5,3c-1.3,0-2.3,0-3.6,0c-3.8,0.2-7.8,0.4-11.6,0.6
			c-2.3,0.2-2.7-0.4-3-3.6c-0.2-2.1,1.5-1.5,2.5-1.5c3.2-0.4,6.5-0.6,9.7-1.1C242.3,177.4,242.3,177.6,242.3,177.6z"/>
		<path d="M8,527.1c0,4,0,8,0,12c0,2.1,0.6,2.7,2.7,2.7c1.7-0.2,3.4,0,5.5,0c0.2,1.1,0.4,2.3,0.8,4c-2.7,0-5.5,0-8,0
			c-4.4,0-4.4,0-4.6-4.6c-0.2-3.8-0.4-7.4-0.6-11.2C3.8,528.2,3.8,528.2,8,527.1z"/>
		<path d="M61.3,542.1c2.1,0,4,0,6.1,0c1.1,0,2.1,0.4,1.9,1.9c-0.2,1.3-0.2,2.5-1.9,2.7c-5.7,0.2-11.4,0.6-17.3,0.8
			c-2.3,0.2-1.7-1.9-1.9-3s0-1.9,1.3-1.9c4-0.2,7.8-0.6,11.8-0.8C61.3,541.7,61.3,541.9,61.3,542.1z"/>
		<path d="M262.2,542.1c2.7-0.2,5.7-0.4,8.5-0.8c3.2-0.4,4.4,0.6,4,4c0,0.4-0.8,1.1-1.3,1.1c-5.7,0.2-11.4,0.2-17.1,0.4
			c-1.5,0-2.1-0.6-1.9-2.1c0.2-1.5-0.2-3,2.1-3c1.9,0,3.8,0,5.5,0C262.2,541.9,262.2,542.1,262.2,542.1z"/>
		<path d="M316.5,178.3c7.6,0,15,0,22.6,0c0,0,0,0,0,0.2c-0.2,4-0.2,4-4,4c-4.9,0-9.7-0.2-14.6-0.4c-0.2,0-0.6,0-0.8,0
			C316,183.1,315.8,182.5,316.5,178.3z"/>
		<path d="M403.5,177.2c4.2,0,8.5,0,12.5,0c1.7,0,3.2,0,4.9,0c1.1,0,2.3,0,1.9,1.5c-0.2,1.3,0.8,3.4-1.7,3.4
			c-5.1,0.2-10.4,0.2-15.4,0.6c-1.7,0-2.1-0.6-2.1-2.1C403.7,179.5,403.7,178.7,403.5,177.2z"/>
		<path d="M450.6,177c0.2,0.6,0.2,0.8,0.2,0.8c0,3.6,0,3.6-3.8,3.8c-4.4,0.2-8.9,0.4-13.5,0.4c-2.1,0-3.4-0.6-3-3
			c0.2-0.8,0-1.7-0.2-2.3C437.3,177,444.1,177,450.6,177z"/>
		<path d="M491,182.5c0-1.9,0-3.4,0-5.3c2.1-0.2,4.2-0.4,6.3-0.4c4.4,0,8.9,0.4,13.1,0.6c1.1,0,2.3-0.2,2.3,1.7
			c0,1.5-0.2,2.7-2.1,2.5c-1.5,0-2.7,0-4.2-0.2c-4.4-0.6-8.7-0.4-12.9,0.6C492.9,182.3,492,182.3,491,182.5z"/>
		<path d="M605.5,222.4c1.9-0.2,3.4-0.2,5.3-0.4c0.2,0.4,0.4,0.8,0.4,1.3c0,4.6,0,9.1-0.2,13.7c0,0.4-0.6,1.1-1.1,1.3
			c-0.8,0.2-1.7,0.2-2.7,0.4c-1.7,0.2-2.3-0.6-2.1-2.3c0.2-3.8,0.4-7.4,0.6-11.2C605.5,224.3,605.5,223.5,605.5,222.4z"/>
		<path d="M288.1,178.1c7,0,13.7,0,20.7,0c0.8,3,0.4,3.8-3.2,4c-3,0.2-6.1,0.6-9.1,0.6c-2.3,0-4.9,0.2-7-0.4
			c-1.1-0.2-1.5-2.3-2.1-3.6C287.7,178.5,287.9,178.3,288.1,178.1z"/>
		<path d="M605.5,275.9c0-1.5,0-3,0-4.4c0-2.5,1.5-4,4-3.4c0.6,0.2,1.3,1.3,1.5,2.1c0.2,2.1,0,4.4,0.2,6.5c0,1.5,0.2,3.2,0.6,4.6
			c0.2,1.5,0.2,2.3-1.7,2.5c-4.4,0.4-4.4,0.4-4.4-4C605.5,278.4,605.5,277.1,605.5,275.9z"/>
		<path d="M605.5,314.1c1.7,0,3.8-0.2,6.1-0.2c-0.2,2.5-0.6,4.9-0.8,7c-0.2,1.9-0.2,3.8,0,5.7c0.2,1.3,0.4,2.7-1.3,3.2
			c-1.7,0.4-3.6,0.4-4-1.7c-0.4-2.1-0.6-4.2-0.6-6.3C604.8,319.2,605.2,316.9,605.5,314.1z"/>
		<path d="M604.8,216.5c-0.4-4.9,0-9.5,1.5-13.7c0.4-1.3,0.4-2.5,2.5-2.7c2.7-0.2,3.2,0,3,2.7c-0.4,4-0.8,8-1.5,12
			c0,0.4-0.6,1.1-1.1,1.3C608,216.3,606.5,216.5,604.8,216.5z"/>
		<path d="M307.4,541.9c1.3,0,2.7,0.2,4.2,0.2c5.1,0,9.9,0,15-0.2c0.4,0,0.8,0,1.3-0.2c1.7-0.2,2.5,0.2,1.9,1.9
			c-0.2,0.8-0.2,1.5-0.4,2.3c-6.3,0-12.7,0-18.8,0C306.7,546.2,306.7,545.9,307.4,541.9z"/>
		<path d="M412.6,542.1c0.6,3,0,3.6-3.2,3.6c-5.7,0-11.4,0-16.9-0.2c-2.3,0-1.7-1.9-1.7-3.2c0-0.4,1.3-1.1,2.1-1.1
			C399.5,541.5,406,541.9,412.6,542.1z"/>
		<path d="M173.9,182.3c-0.2-3.2,0.6-4,3.4-4c5.7,0,11.4,0,17.3,0.2c2.3,0,1.7,1.9,1.9,3.2c0,1.5-1.1,1.3-2.1,1.3
			c-6.5,0-12.9-0.2-19.4-0.2C174.5,182.5,174.3,182.3,173.9,182.3z"/>
		<path d="M257.7,177.6c4.9,0,9.3,0,13.9,0c1.5,0,3.2,0,4.6,0c3.6,0.2,3.6,0.2,3.4,4.2c-1.3,0-2.5,0-4,0c-4.4-0.2-8.9-0.4-13.1-0.4
			c-1.1,0-2.1,0.4-3.2,0.4c-2.3,0.4-2.7,0-2.3-2.1C257.5,179.1,257.7,178.5,257.7,177.6z"/>
		<path d="M605,261.5c0.2-4.2,0.4-8.2,0.4-12.5c0-1.5,0.4-2.1,1.9-2.3c1.1-0.2,2.3-0.4,3.6-0.6c0,4.2,0,8.5,0,12.5
			c0,1.9-1.1,2.7-3,2.7C606.9,261.3,605.7,261.5,605,261.5z"/>
		<path d="M489.3,545.9c-5.9,0-11.6,0-17.3,0c-1.5,0-2.1-0.6-1.9-1.7c0-0.6,0.6-1.5,1.3-1.9c4.2-1.9,8.5-1.1,12.9-0.8
			c0.8,0,1.7,0.2,2.3,0c3-0.6,3.2-0.6,3,2.5C489.5,544.7,489.3,545.1,489.3,545.9z"/>
		<path d="M110.1,545.9c-0.4-3.4-0.4-3.2,2.7-3.4c2.5-0.2,4.9-0.6,7.2-0.8c2.1-0.2,4.2-0.2,6.1-0.2c1.3,0,2.5,0,4,0
			c0.2,1.3,0.4,2.5,0.8,4.4C124,545.9,117.2,545.9,110.1,545.9z"/>
		<path d="M98.9,541.3c0.8,4.9,0.8,5.1-3.8,5.1c-5.1,0-9.9-0.2-15-0.4c-1.9,0-1.9-1.3-1.9-2.5c0-0.4,1.5-0.8,2.1-0.8
			c5.3,0,10.8,0.2,16.1-1.3C97.2,541.1,98,541.3,98.9,541.3z"/>
		<path d="M164.1,541.5c1.7,0,3.6,0,5.3,0c4.2-0.2,8.5-0.6,12.7-1.1c1.1,0,2.3-0.6,2.5,1.3c0.4,3.2,0,4-1.9,3.8
			c-5.3-0.2-10.6-0.4-15.8-0.6C163.7,544.7,163.7,544.5,164.1,541.5z"/>
		<path d="M216.3,541.5c0.2,1.1,0.4,2.3,0.6,4c-7.2,0-14.2,0-21.3,0c0-1.1,0-2.1,0-3.2c0.4,0,1.1-0.2,1.5-0.2
			c3.2-0.4,6.3-0.6,9.5-0.8c1.3-0.2,2.7-0.2,4,0C212.5,541.1,214.2,541.3,216.3,541.5z"/>
		<path d="M247,546.4c-5.1,0-9.7,0-14.4,0c-1.3,0-2.7,0-4,0c-3.6-0.2-3.6-0.4-3-4.4c1.5,0.2,3,0.4,4.6,0.4c4.9,0,9.5,0.4,14.4,0
			c3.2-0.2,3.4-0.4,3,2.7C247.2,545.5,247,546.2,247,546.4z"/>
		<path d="M367.6,181.7c-6.5,0-13.1,0-19.9,0c0-1.3,0.2-2.3,0.2-4.2c3.2,0,6.5,0,9.7,0c2.1,0,4.2-0.2,6.3-0.2
			C368,177,368.4,177.4,367.6,181.7z"/>
		<path d="M364,546.4c0-4.4,0-4.4,4-4.6c5.1-0.2,10.1-0.6,15.2-0.8c0.2,3.6,0,4-3,4.2C374.8,545.7,369.5,545.9,364,546.4z"/>
		<path d="M539.1,182.3c-4,0-8,0-12,0c-0.4,0-1.1,0-1.5,0c-3.6-0.2-3.6-0.2-3.4-4.4c2.1,0,4.4,0,6.5,0s4,0,6.1,0
			C539.1,177.4,539.5,177.9,539.1,182.3z"/>
		<path d="M139.2,545.1c0-0.8-0.2-1.9,0-3c0.2-0.6,0.8-1.7,1.5-1.9c4.2,0,8.5,0,12.7,0.4c0.4,0,1.3,1.3,1.3,2.1
			c0.2,1.1,0,2.3-1.7,2.3C148.5,545.1,144.1,545.1,139.2,545.1z"/>
		<path d="M222.4,177.6c0.2,4.4,0,4.4-3.8,4.6c-4.9,0.2-9.7,0.6-14.8,0.8c-0.4-3.4-0.2-4,2.7-4.2
			C211.9,178.3,217.2,178.1,222.4,177.6z"/>
		<path d="M282,547.2c0.2-1.1,0-1.9,0.4-2.7c0.4-0.6,1.1-1.5,1.7-1.5c5.5-0.2,11.2,0,16.7,0c0.2,3.2-0.2,3.6-3.4,3.8
			c-4.6,0.2-9.3,0.4-14.2,0.6C282.9,547.4,282.4,547.2,282,547.2z"/>
		<path d="M539.3,542.8c0,1.3-0.2,2.1-0.2,3.4c-5.7,0.4-11.4,0.8-16.9,1.3c-1.5-4.4-0.6-5.5,3.4-5.5
			C530.2,541.9,534.7,542.6,539.3,542.8z"/>
		<path d="M548.4,545.9c0-1.3,0.2-2.3,0.2-3.6c6.8-0.2,13.5-0.4,20.3-0.6c0.4,3.4,0.2,3.6-2.5,3.6c-5.3,0.2-10.4,0.6-15.6,0.8
			C550.1,546.2,549.3,546.2,548.4,545.9z"/>
		<path d="M418.7,546.2c-0.2-4.2-0.2-4.2,3.2-4.2c3.8,0,7.6,0.2,11.2,0.2c0.8,0,1.5-0.2,2.7-0.4c0.2,1.5,0.2,3,0.4,4.4
			C430.3,546.2,424.4,546.2,418.7,546.2z"/>
		<path d="M54.9,181.9c0-1.7,0.2-3.2,0.2-4.6c5.3,0,10.4,0,15.8,0c-0.2,1.7-0.2,3.2-0.4,4.6C65.3,181.9,60.2,181.9,54.9,181.9z"/>
		<path d="M606.3,307.6c0.2-5.1,0.2-9.5,0.4-14.2c0.2,0,0.2-0.2,0.4-0.2c4.2-0.6,4.4-0.6,4.6,3.6c0.2,3,0,5.9,0,8.9
			c0,1.5-0.4,2.1-1.9,1.9C608.4,307.4,607.1,307.6,606.3,307.6z"/>
		<path d="M151.3,182.3c-0.2-1.5-0.2-2.7-0.4-4.2c6.1,0,11.8,0,18,0c-0.2,1.5-0.2,2.7-0.4,4.2C162.7,182.3,157,182.3,151.3,182.3z"
			/>
		<path d="M377.3,182.1c-0.4-4.2-0.2-4.4,3.2-4.2c3.8,0,7.6-0.2,11.4,0c0.6,0,1.7,0.8,1.7,1.3c-0.2,1.1,1.1,3.2-0.8,3.4
			C387.4,182.3,382.4,182.1,377.3,182.1z"/>
		<path d="M79.6,182.7c0.2-1.5,0.4-3.2,0.6-5.3c5.1,0,10.1,0,15.2,0c0,1.3-0.2,2.7-0.4,4.2C90,182.1,85.1,182.3,79.6,182.7z"/>
		<path d="M463.5,183.1c0-1.7,0-3.2,0-5.3c5.9,0.2,11.8,0.4,17.7,0.6c0.4,2.1-0.2,3-2.3,3C473.8,181.9,468.8,182.5,463.5,183.1z"/>
		<path d="M605.5,347.1c0-3.6,0-7,0-10.1c0-2.1,1.1-2.5,4-2.5c1.7,0,1.5,1.3,1.5,2.3c0,2.7,0,5.5,0,8.2c0,1.3-0.2,1.9-1.7,1.9
			C608,346.9,606.5,347.1,605.5,347.1z"/>
		<path d="M139.8,177.2c0.4,0.6,0.4,0.8,0.4,0.8c0,4.6,1.1,4.9-4.6,4.2c-3.4-0.2-7,0-10.6,0c0-0.6,0-1.3,0-2.1
			c-0.2-1.9,0.6-2.5,2.5-2.3c0.6,0,1.3,0,1.9-0.2C133.1,177.9,136.5,177.4,139.8,177.2z"/>
		<path d="M447,546.8c-0.2-0.8-0.4-0.8-0.4-1.1c-0.4-4.6,0-4.9,4.6-4.2c2.7,0.4,5.5,0.2,8.2,0.2c0.6,0,1.5-0.2,2.5-0.4
			c-0.2,1.7-0.2,3-0.4,4.6C456.7,546.2,451.9,546.4,447,546.8z"/>
		<path d="M606.5,366.1c0-2.1,0-4.4,0-6.5c0-1.7,0.2-3.6-0.2-5.1c-0.4-1.7,0.2-1.9,1.5-2.1c3.4-0.6,3.8-0.4,3.8,3c0,2.1,0,4.2,0,6.3
			C611.8,365.2,610.9,366.1,606.5,366.1z"/>
		<path fill="#FFFFFF" d="M610.8,175.7c0,644.8,0,979.9,0,372.5"/>
		<g>
			<path fill="#FFFFFF" d="M4.2,383.6c0,1.1,0,1.9,0,2.5c-0.2,3.8-0.3,7.4-0.5,11.2c0,1.5,0.3,2.5,1.7,2.3c0.7-0.2,1.5,0,2.2-0.4
				c0.3-0.2,0.8-0.8,0.8-1.3c0.2-4.4,0.2-9.1,0.2-13.7c0-0.4-0.2-0.8-0.3-1.3C6.8,383.4,5.7,383.4,4.2,383.6z"/>
			<path fill="#FFFFFF" d="M4.2,437c0,1.3,0,2.5,0,3.8c0,4.4,0,4.4,3.5,4c1.5-0.2,1.5-1.1,1.3-2.5c-0.2-1.5-0.3-3.2-0.5-4.6
				c0-2.1,0-4.4-0.2-6.5c0-0.8-0.7-1.9-1.2-2.1c-2-0.6-3.2,0.8-3.2,3.4C4.2,434.1,4.2,435.5,4.2,437z"/>
			<path fill="#FFFFFF" d="M4.2,475.3c-0.2,2.7-0.5,5.3-0.5,7.6c0,2.1,0,4.2,0.5,6.3c0.3,1.9,1.8,2.1,3.2,1.7c1.3-0.4,1-1.7,1-3.2
				c-0.2-1.9,0-3.8,0-5.7c0.2-2.3,0.3-4.4,0.7-7C7.2,475,5.5,475,4.2,475.3z"/>
			<path fill="#FFFFFF" d="M3.7,377.7c1.3-0.2,2.5-0.2,3.5-0.6c0.3,0,0.7-0.8,0.8-1.3c0.3-4,0.8-8,1.2-12c0.2-2.7-0.2-3.2-2.3-2.7
				c-1.5,0.2-1.5,1.5-2,2.7C3.7,368.4,3.3,372.8,3.7,377.7z"/>
			<path fill="#FFFFFF" d="M3.8,422.6c0.5,0,1.5-0.2,2.3-0.2c1.5,0.2,2.3-0.6,2.3-2.7c0-4,0-8.2,0-12.5c-1,0.2-2,0.4-2.8,0.6
				c-1.2,0.2-1.5,0.8-1.5,2.3C4.2,414.4,4,418.4,3.8,422.6z"/>
			<path fill="#FFFFFF" d="M4.8,468.7c0.7,0,1.7,0,2.7,0c1.2,0.2,1.5-0.4,1.5-1.9c0-3,0.2-5.9,0-8.9c-0.2-4.2-0.2-4.2-3.7-3.6
				c-0.2,0-0.2,0.2-0.3,0.2C5.2,459,5,463.6,4.8,468.7z"/>
			<path fill="#FFFFFF" d="M4.2,508.2c0.8,0,2-0.2,3.2-0.2c1,0,1.3-0.6,1.3-1.9c0-2.7,0-5.5,0-8.2c0-1.1,0.2-2.3-1.2-2.3
				c-2.3,0-3.2,0.4-3.2,2.5C4.2,501.2,4.2,504.6,4.2,508.2z"/>
			<path fill="#FFFFFF" d="M5,527.2c3.5,0,4-0.8,4-4.6c0-2.1,0-4.2,0-6.3c0-3.4-0.3-3.8-3-3c-1,0.2-1.5,0.6-1.2,2.1
				c0.3,1.7,0.2,3.4,0.2,5.1C5,522.8,5,524.9,5,527.2z"/>
			<path d="M4.2,383.6c1.5-0.2,2.7-0.2,4.2-0.4c0.2,0.4,0.3,0.8,0.3,1.3c0,4.6,0,9.1-0.2,13.7c0,0.4-0.5,1.1-0.8,1.3
				c-0.7,0.2-1.3,0.2-2.2,0.4c-1.3,0.2-1.8-0.6-1.7-2.3c0.2-3.8,0.3-7.4,0.5-11.2C4.2,385.5,4.2,384.6,4.2,383.6z"/>
			<path d="M4.2,437c0-1.5,0-3,0-4.4c0-2.5,1.2-4,3.2-3.4c0.5,0.2,1,1.3,1.2,2.1c0.2,2.1,0,4.4,0.2,6.5c0,1.5,0.2,3.2,0.5,4.6
				c0.2,1.5,0.2,2.3-1.3,2.5c-3.5,0.4-3.5,0.4-3.5-4C4.2,439.5,4.2,438.3,4.2,437z"/>
			<path d="M4.2,475.3c1.3,0,3-0.2,4.8-0.2c-0.2,2.5-0.5,4.9-0.7,7c-0.2,1.9-0.2,3.8,0,5.7c0.2,1.3,0.3,2.7-1,3.2
				c-1.3,0.4-2.8,0.4-3.2-1.7c-0.3-2.1-0.5-4.2-0.5-6.3C3.7,480.3,4,478,4.2,475.3z"/>
			<path d="M3.7,377.7c-0.3-4.9,0-9.5,1.2-13.7c0.3-1.3,0.3-2.5,2-2.7c2.2-0.2,2.5,0,2.3,2.7c-0.3,4-0.7,8-1.2,12
				c0,0.4-0.5,1.1-0.8,1.3C6.2,377.4,5,377.7,3.7,377.7z"/>
			<path d="M3.8,422.6c0.2-4.2,0.3-8.2,0.3-12.5c0-1.5,0.3-2.1,1.5-2.3c0.8-0.2,1.8-0.4,2.8-0.6c0,4.2,0,8.5,0,12.5
				c0,1.9-0.8,2.7-2.3,2.7C5.3,422.4,4.3,422.6,3.8,422.6z"/>
			<path d="M4.8,468.7c0.2-5.1,0.2-9.5,0.3-14.2c0.2,0,0.2-0.2,0.3-0.2c3.3-0.6,3.5-0.6,3.7,3.6c0.2,3,0,5.9,0,8.9
				c0,1.5-0.3,2.1-1.5,1.9C6.5,468.5,5.5,468.7,4.8,468.7z"/>
			<path d="M4.2,508.2c0-3.6,0-7,0-10.1c0-2.1,0.8-2.5,3.2-2.5c1.3,0,1.2,1.3,1.2,2.3c0,2.7,0,5.5,0,8.2c0,1.3-0.2,1.9-1.3,1.9
				C6.2,508,5,508.2,4.2,508.2z"/>
			<path d="M4.3,523.8c0-1.9,0-4,0-5.9c0-1.5,0.2-3.2-0.2-4.6c-0.4-1.5,0.2-1.7,1.4-1.9c3.1-0.6,3.5-0.4,3.5,2.7c0,1.9,0,3.8,0,5.7
				C9.2,523,8.4,523.8,4.3,523.8z"/>
		</g>
		<path d="M8.5,214c-0.2,3.4-0.4,7-0.6,10.4c0,0.6-0.2,1.3-0.2,1.9c-0.2,1.9-1.1,3-3.2,2.7s-1.5-1.9-1.3-3.2c0.2-2.7,0.4-5.3,0.4-8
			C3.6,214.2,4,213.8,8.5,214z"/>
		<path d="M24.7,541.3c4.4,0,8.5,0,12.5,0c0,1.5,0,3.2,0,5.5c-3.8-0.2-7.6-0.6-11.2-1.1c-0.4,0-1.1-1.1-1.3-1.7
			C24.5,543.4,24.7,542.4,24.7,541.3z"/>
		<path d="M3,287.3c0-1.5,0-3.2,0-4.6c-0.2-2.3,1.7-1.9,3-2.1c1.7-0.2,1.7,0.8,1.7,1.9c0.2,3.4,0.4,6.8,0.6,10.4
			c0.2,2.5-1.9,1.5-3,2.1c-1.3,0.6-2.1,0-2.1-1.3C3,291.3,3.2,289.2,3,287.3C3.2,287.3,3,287.3,3,287.3z"/>
		<path d="M46.7,182.1c-4.4,0-8.9,0-13.3,0c-0.4,0-1.1-1.3-1.1-1.9c-0.2-0.8-0.6-2.3,1.1-2.3c0.6,0,1.3,0,1.7,0c3.8,0,7.6,0,11.4,0
			C46.7,178.7,46.7,180,46.7,182.1z"/>
		<path d="M513.1,541.9c0,1.7,0,3,0,4.2c-4.4,0-8.7,0-13.1,0c0-1.7-0.2-3.2-0.4-5.1C504.3,541.3,508.7,541.7,513.1,541.9z"/>
		<path d="M104.6,182.1c0-1.3,0-2.7,0-4.2c4.2,0,8.5-0.2,12.5,0c2.5,0.2,0.8,2.3,1.5,4C113.7,182.1,109.2,182.1,104.6,182.1z"/>
		<path d="M8.5,187.4c-1.7,0.4-3.2,0.8-5.3,1.5c0-3.2,0-6.1,0-9.1c0-0.2,1.1-0.8,1.7-0.8c2.5,0,5.3,0,7.8,0c1.7,0,1.7,0.2,1.5,3.2
			c-1.9,0-3.8,0-6.1,0C8,183.8,8.2,185.5,8.5,187.4z"/>
		<path d="M560,182.9c-4.9-0.2-9.3-0.4-13.7-0.6c-0.8-3.2-0.4-4,2.3-4.2c2.3-0.2,4.9-0.4,7.2-0.6c1.9-0.2,2.7,0.4,3.2,2.1
			C559,180.4,559.6,181.4,560,182.9z"/>
		<path d="M7.8,301.2c-0.2,1.9-0.4,3.8-0.4,5.5c0,3.2,0.2,6.5,0.2,9.7c0.2,3,0.2,3.2-3.6,2.7c0-3.6,0-7.4,0-11c0-1.1,0-2.3,0-3.4
			C4,301.7,4,301.7,7.8,301.2z"/>
		<path d="M574.4,542.8c5.1,0,9.5,0,13.9,0c0.4,0,1.3,1.1,1.1,1.7c-0.2,0.8-1.1,2.3-1.5,2.1c-4-0.2-7.8-0.4-11.8-1.1
			C575.7,545.5,575,544,574.4,542.8z"/>
		<path d="M4.9,338.8c-0.2-3.6-0.6-7-0.8-10.6c1.3-0.2,2.5-0.6,3.4-0.8c0.8,1.7,1.7,3.2,2.3,4.9C11,335.5,8.7,338.6,4.9,338.8z"/>
		<path d="M7.4,258.8c-0.2,4.6-0.4,9.3-0.6,13.7c0,0.4-0.4,1.1-0.8,1.3c-0.4,0.2-1.3,0-1.7-0.4c-0.4-0.4-0.6-1.1-0.6-1.5
			c0-3.6,0-7.2,0.2-10.8C4,259,5.3,258.1,7.4,258.8z"/>
		<path d="M7.4,234.9c0.2,4,0.4,8,0.6,11.8c0,1.9,0,1.9-4.4,2.7c0.2-1.5,0.6-3,0.6-4.2c0.2-2.5,0.2-4.9,0-7.4
			C4,235.5,5.3,234.7,7.4,234.9z"/>
		<path d="M8.9,344.3c0,3.2,0,5.7,0,8c0,1.1,0.6,2.3,0.6,3.4c0,0.6-0.2,2.1-0.4,2.1c-1.3,0.2-2.5,1.9-3.6-0.2
			c-0.2-0.4-0.4-0.6-0.4-1.1c0-3.4,0.2-6.8,0.4-10.1C5.5,345.6,7.4,345.2,8.9,344.3z"/>
		<path d="M7.2,196c0.2,3.2,0.6,6.1,0.6,9.1c0,0.4-1.3,1.3-2.1,1.5c-0.6,0-1.9-0.6-1.9-1.1c-0.2-2.7-0.2-5.3,0.2-8
			C4,195.4,5.7,195.8,7.2,196z"/>
		<path d="M569.5,182.3c0.2-1.1,0.2-2.3,0.4-3c4.6,0,9.1,0,13.5,0c0,1.3,0,2.1,0,3C578.8,182.3,574.4,182.3,569.5,182.3z"/>
		<path d="M21.8,182.3c-0.2,0-0.8,0-1.5,0.2c-2.1,0.2-1.9-1.3-2.1-2.7c-0.2-1.5,0.8-1.5,1.9-1.7c1.5-0.2,3.2-0.4,4.6-0.4
			c0.8,0,2.1-0.4,2.1,1.1s0.6,3.4-1.9,3.6C24.1,182.5,23,182.3,21.8,182.3z"/>
	</g>
</g>
<g>
	<path d="M612,389.7c-0.2,3.4-0.4,7-0.7,10.4c0,0.6-0.2,1.3-0.2,1.9c-0.2,1.9-1.1,3-3.3,2.7c-2.2-0.2-1.5-1.9-1.3-3.2
		c0.2-2.7,0.4-5.3,0.4-8C607,389.9,607.4,389.5,612,389.7z"/>
	<path d="M606.3,463c0-1.5,0-3.2,0-4.6c-0.2-2.3,1.7-1.9,3.1-2.1c1.7-0.2,1.7,0.8,1.7,1.9c0.2,3.4,0.4,6.8,0.7,10.4
		c0.2,2.5-2,1.5-3.1,2.1c-1.3,0.6-2.2,0-2.2-1.3C606.3,467,606.5,464.9,606.3,463C606.5,463,606.3,463,606.3,463z"/>
	<path d="M611.3,476.9c-0.2,1.9-0.4,3.8-0.4,5.5c0,3.2,0.2,6.5,0.2,9.7c0.2,3,0.2,3.2-3.7,2.7c0-3.6,0-7.4,0-11c0-1.1,0-2.3,0-3.4
		C607.4,477.4,607.4,477.4,611.3,476.9z"/>
	<path d="M607.3,524.6c-0.2-3.6,0.3-17,0.1-20.6c1.3-0.2,2.6-0.6,3.5-0.8c0.9,1.7-0.6,3.2,0.1,4.9
		C612.3,511.2,611.2,524.3,607.3,524.6z"/>
	<path d="M610.9,434.5c-0.2,4.6-0.4,9.3-0.7,13.7c0,0.4-0.4,1.1-0.9,1.3s-1.3,0-1.7-0.4c-0.4-0.4-0.7-1.1-0.7-1.5
		c0-3.6,0-7.2,0.2-10.8C607.4,434.7,608.7,433.9,610.9,434.5z"/>
	<path d="M610.9,410.6c0.2,4,0.4,8,0.7,11.8c0,1.9,0,1.9-4.6,2.7c0.2-1.5,0.7-3,0.7-4.2c0.2-2.5,0.2-4.9,0-7.4
		C607.4,411.2,608.7,410.4,610.9,410.6z"/>
	<path d="M610.7,371.7c0.2,3.2,0.7,6.1,0.7,9.1c0,0.4-1.3,1.3-2.2,1.5c-0.7,0-2-0.6-2-1.1c-0.2-2.7-0.2-5.3,0.2-8
		C607.4,371.1,609.2,371.5,610.7,371.7z"/>
</g>
</svg>
