<?xml version="1.0" encoding="utf-8"?>
<!-- Generator: Adobe Illustrator 18.1.0, SVG Export Plug-In . SVG Version: 6.00 Build 0)  -->
<!DOCTYPE svg PUBLIC "-//W3C//DTD SVG 1.1//EN" "http://www.w3.org/Graphics/SVG/1.1/DTD/svg11.dtd">
<svg version="1.1" id="Layer_1" xmlns="http://www.w3.org/2000/svg" xmlns:xlink="http://www.w3.org/1999/xlink" x="0px" y="0px"
	 viewBox="0 0 289.7 100.6" enable-background="new 0 0 289.7 100.6" xml:space="preserve">
<g>
	<g>
		<path fill="#FFFFFF" d="M1.2,100.8c0-33.5,0-67,0-100.6c96.3,0,192.6,0,288.9,0c0,33.5,0,67,0,100.6
			C193.8,100.8,97.5,100.8,1.2,100.8z M289.4,1.8c-2.6,0-4.8,0-7,0c-0.2,0-0.6,0.6-0.7,0.9c-0.1,0.3,0.2,0.9,0.4,1
			c1,0.2,2,0.4,3,0.5c0.6,0.1,1.2,0,1.6,0c0,1.7,0,3.2,0,4.9c0.7-0.1,1.9,0.3,2-0.8C289.1,6.3,289.2,4.2,289.4,1.8z M289.6,96.4
			c0-0.7,0-1.4,0-2.1c0-0.6,0.3-1.3-0.8-1.3c-1.6,0.1-1.6,0-1.6,1.4c0,0.9,0,1.8,0,2.7c0,1.4-0.2,1.6-1.7,1.4
			c-0.9-0.1-1.9,0-2.9,0.1c-0.3,0-0.6,0.7-0.6,1c0,0.3,0.4,0.7,0.7,0.8c1,0.2,2,0.3,3.1,0.2C289.6,100.1,289.6,100.1,289.6,96.4z
			 M162.9,99.9c0,0,0,0.1,0,0.1c1.6-0.1,3.2-0.3,4.8-0.4c0.6-0.1,1.3,0.2,1.2-0.9c-0.1-1.4-0.3-1.6-1.4-1.6c-1.5,0.1-3,0.2-4.5,0.3
			c-1,0.1-1.9,0-2.9,0c-1,0-0.9,0.7-1,1.4c-0.1,0.8,0.4,1,1,1C161.1,99.9,162,99.9,162.9,99.9z M114.7,1.1c0,0,0-0.1,0-0.1
			c-1.5,0.1-3.1,0.3-4.6,0.5c-0.5,0.1-1.2-0.3-1.2,0.7c0.1,1.5,0.3,1.7,1.4,1.7c1.8-0.1,3.7-0.2,5.5-0.3c0.6,0,1.1,0,1.7,0
			c0.9,0,1.2-0.6,1.2-1.4c0.1-0.9-0.6-1-1.2-1C116.6,1.1,115.7,1.1,114.7,1.1z M3.8,90.8c-2,0.5-2,0.5-2,1.4
			c0.1,1.8,0.2,3.5,0.3,5.3c0.1,2.1,0,2.1,2.2,2.2c1.2,0,2.4,0,3.8,0c-0.2-0.8-0.3-1.5-0.4-1.9c-1,0-1.8-0.1-2.6,0
			c-1,0.1-1.3-0.3-1.3-1.3C3.8,94.7,3.8,92.8,3.8,90.8z M29,97.9c0-0.1,0-0.1,0-0.2c-1.9,0.2-3.7,0.3-5.6,0.4
			c-0.7,0-0.7,0.4-0.6,0.9c0.1,0.6-0.2,1.5,0.9,1.4c2.7-0.1,5.4-0.3,8.2-0.4c0.8,0,0.9-0.6,0.9-1.3c0.1-0.7-0.4-0.9-0.9-0.9
			C30.9,97.8,29.9,97.9,29,97.9z M124.1,97.9c0-0.1,0-0.1,0-0.2c-0.9,0-1.8,0-2.6,0c-1.1,0-0.9,0.7-1,1.4c-0.1,0.7,0.2,1,0.9,1
			c2.7,0,5.4-0.1,8.1-0.2c0.2,0,0.6-0.3,0.6-0.5c0.2-1.5-0.4-2-1.9-1.9C126.7,97.7,125.4,97.8,124.1,97.9z M149.8,1.4
			c-0.3,2-0.1,2.3,1.5,1.8c0.1,0,0.3,0,0.4,0c2.3,0.1,4.6,0.1,6.9,0.2c1.8,0,1.8,0,1.9-1.9c0-0.1-0.1-0.1,0-0.1
			C156.9,1.4,153.3,1.4,149.8,1.4z M191,0.9c0,0.7,0.1,1.1,0.1,1.6c0,0.7,0.2,1,1,1c2.4-0.1,4.9-0.1,7.3-0.3
			c1.1-0.1,0.7-1.1,0.8-1.6c0.1-0.7-0.4-0.7-0.9-0.7c-0.8,0-1.5,0-2.3,0C195,0.9,193.1,0.9,191,0.9z M213.3,0.8c-3.1,0-6.3,0-9.5,0
			c0,0.2,0.1,0.7,0.1,1.1c-0.2,1.1,0.4,1.4,1.4,1.4c2.1-0.1,4.2-0.2,6.4-0.2c1.8,0,1.8,0,1.8-1.8C213.4,1.1,213.4,1.1,213.3,0.8z
			 M232.4,3.4c0.5-0.1,0.9-0.1,1.3-0.2c2-0.5,4-0.5,6.1-0.3c0.7,0.1,1.3,0.1,2,0.1c0.9,0,1-0.5,1-1.2c0-0.8-0.5-0.8-1.1-0.8
			c-2.1-0.1-4.2-0.2-6.2-0.3c-1,0-2,0.1-3,0.2C232.4,1.8,232.4,2.5,232.4,3.4z M286.6,22.3c0,0.5,0,0.9,0,1.2
			c-0.1,1.8-0.2,3.5-0.3,5.3c0,0.7,0.2,1.2,1,1.1c0.4-0.1,0.9,0,1.3-0.2c0.2-0.1,0.5-0.4,0.5-0.6c0.1-2.1,0.1-4.3,0.1-6.5
			c0-0.2-0.1-0.4-0.2-0.6C288.2,22.2,287.5,22.2,286.6,22.3z M136.4,1.3c-0.1,0.1-0.2,0.2-0.3,0.4c0.3,0.6,0.5,1.6,1,1.7
			c1,0.3,2.2,0.2,3.3,0.2c1.4-0.1,2.9-0.2,4.3-0.3c1.7-0.2,1.9-0.5,1.5-1.9C142.9,1.3,139.6,1.3,136.4,1.3z M286.6,47.6
			c0,0.6,0,1.2,0,1.8c0,2.1,0,2.1,2.1,1.9c0.9-0.1,0.9-0.5,0.8-1.2c-0.1-0.7-0.2-1.5-0.3-2.2c0-1,0-2.1-0.1-3.1c0-0.4-0.4-0.9-0.7-1
			c-1.2-0.3-1.9,0.4-1.9,1.6C286.6,46.2,286.6,46.9,286.6,47.6z M286.6,65.7c-0.1,1.3-0.3,2.5-0.3,3.6c0,1,0,2,0.3,3
			c0.2,0.9,1.1,1,1.9,0.8c0.8-0.2,0.6-0.8,0.6-1.5c-0.1-0.9,0-1.8,0-2.7c0.1-1.1,0.2-2.1,0.4-3.3C288.4,65.6,287.4,65.6,286.6,65.7z
			 M286.3,19.5c0.8-0.1,1.5-0.1,2.1-0.3c0.2,0,0.4-0.4,0.5-0.6c0.2-1.9,0.5-3.8,0.7-5.7c0.1-1.3-0.1-1.5-1.4-1.3
			c-0.9,0.1-0.9,0.7-1.2,1.3C286.3,15.1,286.1,17.2,286.3,19.5z M145.5,97.8c-0.3,1.9-0.2,2,1.5,2c3,0,5.9,0,8.9,0
			c0.1-0.4,0.1-0.8,0.2-1.1c0.2-0.9-0.2-1.1-0.9-0.9c-0.2,0-0.4,0.1-0.6,0.1c-2.4,0-4.7,0.1-7.1,0.1
			C146.8,97.9,146.1,97.9,145.5,97.8z M195.3,97.9c-3.1-0.1-6.2-0.3-9.3-0.4c-0.3,0-1,0.3-1,0.5c0,0.6-0.3,1.5,0.8,1.5
			c2.7,0,5.4,0.1,8,0.1C195.3,99.6,195.6,99.2,195.3,97.9z M82.3,3.3c0.2,0,0.3,0.1,0.4,0.1c3.1,0,6.1,0.1,9.2,0.1
			c0.5,0,1,0.2,1-0.6c0-0.6,0.3-1.5-0.9-1.5c-2.7,0-5.4,0-8.2-0.1C82.6,1.4,82.2,1.8,82.3,3.3z M122,1.1c-0.1,0.3-0.2,0.7-0.2,1
			c-0.2,1.1,0,1.2,1.1,1c0.5-0.1,1-0.3,1.5-0.2c2.1,0,4.2,0.1,6.2,0.2c0.6,0,1.2,0,1.9,0c0.1-1.9,0.1-1.9-1.6-2c-0.7,0-1.5,0-2.2,0
			C126.5,1.1,124.3,1.1,122,1.1z M286.4,40.8c0.3,0,0.9-0.1,1.4-0.1c0.9,0.1,1.4-0.3,1.4-1.3c0-1.9,0-3.9,0-5.9
			c-0.6,0.1-1.2,0.2-1.7,0.3c-0.7,0.1-0.9,0.4-0.9,1.1C286.6,36.9,286.5,38.8,286.4,40.8z M231.6,99.7c0-0.3,0.1-0.6,0.1-0.8
			c0.1-1.5,0-1.5-1.4-1.2c-0.4,0.1-0.8,0-1.1,0c-2-0.1-4.1-0.5-6.1,0.4c-0.3,0.1-0.5,0.6-0.6,0.9c-0.1,0.6,0.2,0.9,0.9,0.8
			C226.1,99.7,228.8,99.7,231.6,99.7z M52.1,99.7c3.3,0,6.6,0,10,0c-0.2-0.8-0.3-1.5-0.4-2.1c-0.7,0-1.3,0-1.9,0c-1,0-2,0-2.9,0.1
			c-1.2,0.1-2.3,0.4-3.4,0.4C51.9,98.2,51.9,98.1,52.1,99.7z M46.8,97.5c-0.4,0-0.8-0.1-1.2,0c-2.5,0.7-5,0.6-7.6,0.6
			c-0.4,0-1,0.3-1,0.4c0,0.5,0,1.2,0.9,1.2c2.4,0,4.7,0.1,7.1,0.2C47.2,99.9,47.3,99.9,46.8,97.5z M77.7,97.6
			c-0.1,1.4-0.1,1.5,1.2,1.6c2.5,0.1,5,0.2,7.5,0.3c1,0,1.1-0.3,0.9-1.8c-0.1-0.9-0.7-0.6-1.2-0.6c-2,0.2-4,0.3-6,0.5
			C79.3,97.6,78.5,97.6,77.7,97.6z M102.4,97.6c-1-0.1-1.8-0.2-2.6-0.2c-0.6,0-1.3,0-1.9,0c-1.5,0.1-3,0.3-4.5,0.4
			c-0.2,0-0.5,0.1-0.7,0.1c0,0.5,0,1,0,1.5c3.4,0,6.7,0,10.1,0C102.6,98.7,102.5,98.1,102.4,97.6z M116.9,99.9
			c0-0.1,0.1-0.4,0.2-0.6c0.2-1.5,0.1-1.4-1.4-1.3c-2.2,0.2-4.5,0-6.8,0c-0.7,0-1.5-0.1-2.2-0.2c-0.3,1.8-0.2,2,1.4,2.1
			c0.6,0,1.3,0,1.9,0C112.3,99.9,114.5,99.9,116.9,99.9z M174,3c0.4-2.1,0.2-2.3-1.7-2.1c-1,0.1-2,0.1-3,0.1c-1.5,0-3.1,0-4.6,0
			c-0.1,0.8-0.1,1.4-0.1,2C167.7,3,170.8,3,174,3z M172.3,99.9c2.6-0.2,5.1-0.3,7.7-0.5c1.4-0.1,1.5-0.3,1.4-2
			c-2.4,0.1-4.8,0.3-7.2,0.4C172.3,97.8,172.3,97.8,172.3,99.9z M255.2,3.3c0.2-2,0-2.3-2-2.2c-1,0-1.9,0-2.9,0c-1,0-2.1,0-3.1,0
			c-0.1,2-0.1,2,1.6,2.1c0.2,0,0.5,0,0.7,0C251.4,3.3,253.3,3.3,255.2,3.3z M65.9,99.3c2.3,0,4.4,0,6.6,0c0.7,0,0.9-0.6,0.8-1.1
			c-0.1-0.4-0.4-0.9-0.6-1c-2-0.1-4-0.2-6-0.2c-0.2,0-0.6,0.5-0.7,0.9C65.8,98.4,65.9,98.9,65.9,99.3z M105.3,1.1
			c-2.5,0.2-5,0.3-7.5,0.6c-1.4,0.1-1.5,0.4-1.3,2c2.3-0.1,4.6-0.3,7-0.4C105.3,3.2,105.4,3.1,105.3,1.1z M133.5,100.3
			c0.3,0,0.5,0.1,0.7,0.1c2.2-0.1,4.4-0.2,6.7-0.3c1.6-0.1,1.7-0.3,1.6-1.8c-2.6,0-5.3,0-7.9,0c-0.3,0-0.7,0.4-0.8,0.7
			C133.5,99.4,133.5,99.8,133.5,100.3z M255.3,98.2c-2.2-0.1-4.3-0.4-6.4-0.4c-1.9,0-2.3,0.5-1.6,2.6c2.6-0.2,5.3-0.4,8-0.6
			C255.3,99.2,255.3,98.8,255.3,98.2z M259.6,99.7c0.4,0,0.8,0.1,1.2,0.1c2.5-0.1,4.9-0.3,7.4-0.4c1.2-0.1,1.3-0.1,1.2-1.7
			c-3.2,0.1-6.4,0.2-9.6,0.3C259.6,98.7,259.6,99.1,259.6,99.7z M198.2,99.8c2.8,0,5.5,0,8.4,0c-0.1-0.7-0.1-1.4-0.2-2.1
			c-0.5,0.1-0.9,0.2-1.3,0.2c-1.8,0-3.6-0.1-5.3-0.1C198,97.8,198,97.8,198.2,99.8z M26,3.1c2.5,0,4.9,0,7.4,0
			c0.1-0.7,0.1-1.4,0.2-2.2c-2.6,0-5,0-7.5,0C26.1,1.6,26,2.2,26,3.1z M287,62.6c0.4,0,1,0,1.6,0c0.7,0.1,0.9-0.2,0.9-0.9
			c0-1.4,0.1-2.8,0-4.2c-0.1-2-0.1-2-2.2-1.7c-0.1,0-0.1,0.1-0.2,0.1C287.2,58,287.1,60.2,287,62.6z M71.6,3.3c2.8,0,5.4,0,8.1,0
			c0.1-0.7,0.1-1.3,0.2-2c-2.9,0-5.6,0-8.5,0C71.4,1.9,71.5,2.6,71.6,3.3z M178.6,3.2c2.4,0.1,4.9,0.2,7.3,0.1c0.9,0,0.4-1,0.4-1.6
			c0-0.2-0.5-0.6-0.8-0.6c-1.8,0-3.6,0.1-5.4,0C178.5,1.1,178.4,1.1,178.6,3.2z M37.7,3.5C40.3,3.3,42.6,3.2,45,3
			c0.1-0.7,0.1-1.4,0.2-1.9c-2.4,0-4.8,0-7.2,0C37.9,2,37.8,2.8,37.7,3.5z M219.4,3.7c2.5-0.3,4.9-0.5,7.3-0.7
			c1-0.1,1.2-0.4,1.1-1.4c-2.8-0.1-5.6-0.2-8.4-0.3C219.4,2.2,219.4,2.8,219.4,3.7z M286.6,81.3c0.5,0,1.2-0.1,1.9-0.1
			c0.6,0,0.8-0.3,0.8-0.9c0-1.3,0-2.6,0-3.9c0-0.5,0.1-1.1-0.7-1.1c-1.4,0-1.9,0.2-1.9,1.2C286.6,78,286.6,79.6,286.6,81.3z
			 M66.2,0.9C64.6,1,63,1.2,61.4,1.3c-0.3,0-0.6,0.1-0.9,0.1c-0.9-0.1-1.2,0.2-1.2,1.1c0,0.3,0,0.7,0,1c1.8,0,3.4-0.1,5,0
			c2.6,0.2,2.2,0.2,2.2-2C66.4,1.3,66.4,1.3,66.2,0.9z M211.6,100.1c2.2-0.1,4.5-0.3,6.9-0.4c0.1-0.7,0.1-1.4,0.2-2.2
			c-0.5,0.1-0.8,0.2-1.2,0.2c-1.3,0-2.6,0.1-3.9-0.1c-2.2-0.3-2.4-0.2-2.2,2C211.5,99.6,211.5,99.7,211.6,100.1z M287.1,90.3
			c2.1,0,2.4-0.4,2.4-2.2c0-1,0-2,0-3c0-1.6-0.2-1.8-1.8-1.4c-0.6,0.1-0.9,0.3-0.7,1c0.2,0.8,0.1,1.6,0.1,2.4
			C287.1,88.2,287.1,89.2,287.1,90.3z M4,18.3c-2.1-0.2-2.3,0.1-2.3,1.8c0,1.3-0.1,2.5-0.2,3.8c0,0.6-0.3,1.4,0.6,1.5
			c0.9,0.1,1.4-0.3,1.5-1.3c0-0.3,0.1-0.6,0.1-0.9C3.8,21.6,3.9,20,4,18.3z M11.7,97.5c0,0.5-0.1,1,0,1.4c0.1,0.3,0.4,0.7,0.6,0.8
			c1.7,0.2,3.5,0.3,5.3,0.5c0-1.1,0-1.9,0-2.6C15.6,97.5,13.7,97.5,11.7,97.5z M1.4,53C1.4,53,1.5,53,1.4,53c0.1,1,0,1.9,0.1,2.9
			c0,0.6,0.4,0.9,1,0.6c0.5-0.2,1.5,0.3,1.4-1c-0.1-1.6-0.2-3.2-0.3-4.9c0-0.5,0-1-0.8-0.9c-0.6,0.1-1.4-0.1-1.4,1
			C1.4,51.5,1.4,52.2,1.4,53z M22.1,3.2c0-0.9,0-1.6,0-2.1c-1.9,0-3.7,0-5.4,0c-0.3,0-0.6,0-0.8,0c-0.8,0.1-0.6,0.7-0.5,1.1
			c0,0.3,0.3,0.9,0.5,0.9C17.9,3.2,20,3.2,22.1,3.2z M242.9,97.8c-2.2-0.1-4.2-0.3-6.4-0.4c0.1,1,0.1,1.7,0.2,2.4c2.1,0,4.1,0,6.2,0
			C242.9,99.2,242.9,98.6,242.9,97.8z M49.5,3.2c2.2,0,4.3,0,6.6,0c-0.2-0.8,0.5-1.9-0.7-1.9c-1.9-0.1-3.9,0-5.9,0
			C49.5,2,49.5,2.6,49.5,3.2z M4,5.7C3.9,4.8,3.8,4,3.8,3.1c1.1,0,2,0,2.9,0C6.8,1.7,6.8,1.7,6,1.7c-1.2,0-2.5,0-3.7,0
			C2,1.7,1.5,2,1.5,2.2c-0.1,1.4,0,2.8,0,4.3C2.5,6.1,3.2,5.9,4,5.7z M265.1,3.6c-0.2-0.7-0.5-1.1-0.5-1.6c-0.1-0.9-0.6-1.2-1.5-1
			c-1.1,0.2-2.3,0.2-3.4,0.3c-1.3,0.1-1.5,0.5-1.1,2C260.7,3.4,262.8,3.5,265.1,3.6z M3.7,59.6c-1.8,0.2-1.8,0.2-1.8,1.8
			c0,0.5,0,1.1,0,1.6c0,1.7,0,3.5,0,5.2c1.8,0.1,1.8,0.1,1.7-1.3c-0.1-1.5-0.1-3.1-0.1-4.6C3.4,61.4,3.6,60.5,3.7,59.6z M271.9,98.2
			c0.4,0.6,0.6,1.3,0.9,1.4c1.9,0.3,3.7,0.4,5.6,0.5c0.2,0,0.6-0.6,0.7-1c0.1-0.2-0.3-0.8-0.5-0.8C276.4,98.2,274.3,98.2,271.9,98.2
			z M2.3,77.4c1.8-0.1,2.9-1.6,2.3-3c-0.3-0.8-0.7-1.5-1.1-2.3c-0.5,0.1-1,0.2-1.6,0.4C2,74.1,2.1,75.7,2.3,77.4z M3.5,39.5
			c-1-0.3-1.6,0.1-1.6,1.1c-0.1,1.7-0.1,3.4-0.1,5.1c0,0.3,0.2,0.6,0.3,0.7c0.2,0.2,0.5,0.2,0.8,0.2c0.2,0,0.3-0.4,0.4-0.6
			C3.3,43.8,3.4,41.7,3.5,39.5z M3.5,28.2c-1-0.1-1.6,0.2-1.5,1.4c0.1,1.2,0.1,2.3,0,3.5c0,0.7-0.2,1.3-0.3,2c2-0.4,2.1-0.5,2.1-1.3
			C3.7,32,3.6,30.1,3.5,28.2z M4.2,80c-0.7,0.4-1.5,0.6-1.6,0.9c-0.2,1.6-0.2,3.2-0.2,4.8c0,0.2,0.1,0.3,0.2,0.5
			c0.5,1,1.2,0.2,1.7,0.1c0.1,0,0.3-0.7,0.2-1c0-0.5-0.3-1.1-0.3-1.6C4.1,82.6,4.2,81.5,4.2,80z M3.4,9.8c-0.7-0.1-1.5-0.3-1.6,0.7
			c-0.1,1.3-0.1,2.5-0.1,3.8c0,0.2,0.6,0.6,0.9,0.5c0.4-0.1,1-0.4,1-0.7C3.7,12.7,3.5,11.3,3.4,9.8z M269.6,3.3c2.3,0,4.4,0,6.6,0
			c0-0.5,0-0.9,0-1.4c-2.1,0-4.2,0-6.4,0C269.7,2.2,269.7,2.7,269.6,3.3z M10.3,3.3c0.6,0,1.1,0,1.5,0c1.1-0.1,0.8-1,0.9-1.7
			c0.1-0.7-0.5-0.6-1-0.5c-0.7,0.1-1.5,0.2-2.2,0.2C9,1.4,8.5,1.4,8.6,2.1c0.1,0.6,0,1.3,1,1.3C9.9,3.4,10.2,3.3,10.3,3.3z"/>
		<path d="M289.4,1.8c-0.2,2.4-0.3,4.5-0.6,6.5c-0.2,1.1-1.3,0.7-2,0.8c0-1.6,0-3.2,0-4.9c-0.4,0-1,0-1.6,0c-1-0.1-2-0.2-3-0.5
			c-0.2-0.1-0.5-0.7-0.4-1c0.1-0.3,0.4-0.9,0.7-0.9C284.6,1.8,286.9,1.8,289.4,1.8z"/>
		<path d="M289.6,96.4c0,3.7,0,3.7-3.8,4.1c-1,0.1-2.1,0-3.1-0.2c-0.3,0-0.7-0.5-0.7-0.8c0-0.3,0.3-1,0.6-1c0.9-0.1,1.9-0.2,2.9-0.1
			c1.5,0.2,1.7,0.1,1.7-1.4c0-0.9,0-1.8,0-2.7c0-1.3,0-1.3,1.6-1.4c1.1-0.1,0.8,0.7,0.8,1.3C289.6,95,289.6,95.7,289.6,96.4z"/>
		<path d="M162.9,99.9c-0.9,0-1.8,0-2.8,0c-0.7,0-1.1-0.2-1-1c0.1-0.7,0-1.4,1-1.4c1,0,1.9,0,2.9,0c1.5-0.1,3-0.2,4.5-0.3
			c1.1-0.1,1.3,0.1,1.4,1.6c0.1,1-0.6,0.8-1.2,0.9c-1.6,0.1-3.2,0.3-4.8,0.4C162.9,100,162.9,99.9,162.9,99.9z"/>
		<path d="M114.7,1.1c1,0,1.9,0,2.9,0c0.6,0,1.2,0.1,1.2,1c-0.1,0.8-0.3,1.4-1.2,1.4c-0.6,0-1.1,0-1.7,0c-1.8,0.1-3.7,0.2-5.5,0.3
			c-1.1,0.1-1.3-0.2-1.4-1.7c-0.1-1,0.7-0.7,1.2-0.7c1.5-0.2,3.1-0.3,4.6-0.5C114.7,1,114.7,1.1,114.7,1.1z"/>
		<path d="M3.8,90.8c0,1.9,0,3.8,0,5.7c0,1,0.3,1.3,1.3,1.3c0.8-0.1,1.6,0,2.6,0c0.1,0.5,0.2,1.1,0.4,1.9c-1.3,0-2.6,0-3.8,0
			c-2.1,0-2.1,0-2.2-2.2c-0.1-1.8-0.2-3.5-0.3-5.3C1.8,91.3,1.8,91.3,3.8,90.8z"/>
		<path d="M29,97.9c1,0,1.9,0,2.9,0c0.5,0,1,0.2,0.9,0.9c-0.1,0.6-0.1,1.2-0.9,1.3c-2.7,0.1-5.4,0.3-8.2,0.4
			c-1.1,0.1-0.8-0.9-0.9-1.4c-0.1-0.5,0-0.9,0.6-0.9c1.9-0.1,3.7-0.3,5.6-0.4C29,97.7,29,97.8,29,97.9z"/>
		<path d="M124.1,97.9c1.3-0.1,2.7-0.2,4-0.4c1.5-0.2,2.1,0.3,1.9,1.9c0,0.2-0.4,0.5-0.6,0.5c-2.7,0.1-5.4,0.1-8.1,0.2
			c-0.7,0-1-0.3-0.9-1c0.1-0.7-0.1-1.4,1-1.4c0.9,0,1.8,0,2.6,0C124.1,97.8,124.1,97.9,124.1,97.9z"/>
		<path d="M149.8,1.4c3.6,0,7.1,0,10.7,0c0,0,0,0,0,0.1c-0.1,1.9-0.1,1.9-1.9,1.9c-2.3,0-4.6-0.1-6.9-0.2c-0.1,0-0.3,0-0.4,0
			C149.6,3.7,149.5,3.4,149.8,1.4z"/>
		<path d="M191,0.9c2,0,4,0,5.9,0c0.8,0,1.5,0,2.3,0c0.5,0,1.1,0,0.9,0.7c-0.1,0.6,0.4,1.6-0.8,1.6c-2.4,0.1-4.9,0.1-7.3,0.3
			c-0.8,0-1-0.3-1-1C191.1,2,191.1,1.6,191,0.9z"/>
		<path d="M213.3,0.8c0.1,0.3,0.1,0.4,0.1,0.4c0,1.7,0,1.7-1.8,1.8c-2.1,0.1-4.2,0.2-6.4,0.2c-1,0-1.6-0.3-1.4-1.4
			c0.1-0.4,0-0.8-0.1-1.1C207,0.8,210.2,0.8,213.3,0.8z"/>
		<path d="M232.4,3.4c0-0.9,0-1.6,0-2.5c1-0.1,2-0.2,3-0.2c2.1,0,4.2,0.2,6.2,0.3c0.5,0,1.1-0.1,1.1,0.8c0,0.7-0.1,1.3-1,1.2
			c-0.7,0-1.3,0-2-0.1c-2.1-0.3-4.1-0.2-6.1,0.3C233.3,3.3,232.9,3.3,232.4,3.4z"/>
		<path d="M286.6,22.3c0.9-0.1,1.6-0.1,2.5-0.2c0.1,0.2,0.2,0.4,0.2,0.6c0,2.2,0,4.3-0.1,6.5c0,0.2-0.3,0.5-0.5,0.6
			c-0.4,0.1-0.8,0.1-1.3,0.2c-0.8,0.1-1.1-0.3-1-1.1c0.1-1.8,0.2-3.5,0.3-5.3C286.6,23.2,286.6,22.8,286.6,22.3z"/>
		<path d="M136.4,1.3c3.3,0,6.5,0,9.8,0c0.4,1.4,0.2,1.8-1.5,1.9c-1.4,0.1-2.9,0.3-4.3,0.3c-1.1,0-2.3,0.1-3.3-0.2
			c-0.5-0.1-0.7-1.1-1-1.7C136.2,1.5,136.3,1.4,136.4,1.3z"/>
		<path d="M286.6,47.6c0-0.7,0-1.4,0-2.1c0-1.2,0.7-1.9,1.9-1.6c0.3,0.1,0.6,0.6,0.7,1c0.1,1,0,2.1,0.1,3.1c0,0.7,0.1,1.5,0.3,2.2
			c0.1,0.7,0.1,1.1-0.8,1.2c-2.1,0.2-2.1,0.2-2.1-1.9C286.6,48.8,286.6,48.2,286.6,47.6z"/>
		<path d="M286.6,65.7c0.8,0,1.8-0.1,2.9-0.1c-0.1,1.2-0.3,2.3-0.4,3.3c-0.1,0.9-0.1,1.8,0,2.7c0.1,0.6,0.2,1.3-0.6,1.5
			c-0.8,0.2-1.7,0.2-1.9-0.8c-0.2-1-0.3-2-0.3-3C286.3,68.1,286.5,67,286.6,65.7z"/>
		<path d="M286.3,19.5c-0.2-2.3,0-4.5,0.7-6.5c0.2-0.6,0.2-1.2,1.2-1.3c1.3-0.1,1.5,0,1.4,1.3c-0.2,1.9-0.4,3.8-0.7,5.7
			c0,0.2-0.3,0.5-0.5,0.6C287.8,19.4,287.1,19.5,286.3,19.5z"/>
		<path d="M145.5,97.8c0.6,0,1.3,0.1,2,0.1c2.4,0,4.7,0,7.1-0.1c0.2,0,0.4,0,0.6-0.1c0.8-0.1,1.2,0.1,0.9,0.9
			c-0.1,0.4-0.1,0.7-0.2,1.1c-3,0-6,0-8.9,0C145.2,99.8,145.2,99.7,145.5,97.8z"/>
		<path d="M195.3,97.9c0.3,1.4,0,1.7-1.5,1.7c-2.7,0-5.4,0-8-0.1c-1.1,0-0.8-0.9-0.8-1.5c0-0.2,0.6-0.5,1-0.5
			C189.1,97.6,192.2,97.8,195.3,97.9z"/>
		<path d="M82.3,3.3c-0.1-1.5,0.3-1.9,1.6-1.9c2.7,0,5.4,0,8.2,0.1c1.1,0,0.8,0.9,0.9,1.5c0,0.7-0.5,0.6-1,0.6
			c-3.1,0-6.1-0.1-9.2-0.1C82.6,3.4,82.5,3.3,82.3,3.3z"/>
		<path d="M122,1.1c2.3,0,4.4,0,6.6,0c0.7,0,1.5,0,2.2,0c1.7,0.1,1.7,0.1,1.6,2c-0.6,0-1.2,0-1.9,0c-2.1-0.1-4.2-0.2-6.2-0.2
			c-0.5,0-1,0.2-1.5,0.2c-1.1,0.2-1.3,0-1.1-1C121.9,1.8,122,1.5,122,1.1z"/>
		<path d="M286.4,40.8c0.1-2,0.2-3.9,0.2-5.9c0-0.7,0.2-1,0.9-1.1c0.5-0.1,1.1-0.2,1.7-0.3c0,2,0,4,0,5.9c0,0.9-0.5,1.3-1.4,1.3
			C287.3,40.7,286.7,40.8,286.4,40.8z"/>
		<path d="M231.6,99.7c-2.8,0-5.5,0-8.2,0c-0.7,0-1-0.3-0.9-0.8c0-0.3,0.3-0.7,0.6-0.9c2-0.9,4-0.5,6.1-0.4c0.4,0,0.8,0.1,1.1,0
			c1.4-0.3,1.5-0.3,1.4,1.2C231.7,99.1,231.6,99.3,231.6,99.7z"/>
		<path d="M52.1,99.7c-0.2-1.6-0.2-1.5,1.3-1.6c1.2-0.1,2.3-0.3,3.4-0.4c1-0.1,2-0.1,2.9-0.1c0.6,0,1.2,0,1.9,0
			c0.1,0.6,0.2,1.2,0.4,2.1C58.7,99.7,55.5,99.7,52.1,99.7z"/>
		<path d="M46.8,97.5c0.4,2.3,0.4,2.4-1.8,2.4c-2.4,0-4.7-0.1-7.1-0.2c-0.9,0-0.9-0.6-0.9-1.2c0-0.2,0.7-0.4,1-0.4
			c2.5,0,5.1,0.1,7.6-0.6C46,97.4,46.4,97.5,46.8,97.5z"/>
		<path d="M77.7,97.6c0.8,0,1.7,0,2.5,0c2-0.1,4-0.3,6-0.5c0.5,0,1.1-0.3,1.2,0.6c0.2,1.5,0,1.9-0.9,1.8c-2.5-0.1-5-0.2-7.5-0.3
			C77.5,99.1,77.5,99,77.7,97.6z"/>
		<path d="M102.4,97.6c0.1,0.5,0.2,1.1,0.3,1.9c-3.4,0-6.7,0-10.1,0c0-0.5,0-1,0-1.5c0.2,0,0.5-0.1,0.7-0.1c1.5-0.2,3-0.3,4.5-0.4
			c0.6-0.1,1.3-0.1,1.9,0C100.6,97.4,101.4,97.5,102.4,97.6z"/>
		<path d="M116.9,99.9c-2.4,0-4.6,0-6.8,0c-0.6,0-1.3,0-1.9,0c-1.7-0.1-1.7-0.2-1.4-2.1c0.7,0.1,1.4,0.2,2.2,0.2
			c2.3,0,4.5,0.2,6.8,0c1.5-0.1,1.6-0.2,1.4,1.3C117,99.5,116.9,99.8,116.9,99.9z"/>
		<path d="M174,3c-3.1,0-6.2,0-9.4,0c0-0.6,0.1-1.1,0.1-2c1.5,0,3.1,0,4.6,0c1,0,2-0.1,3-0.1C174.2,0.8,174.4,1,174,3z"/>
		<path d="M172.3,99.9c0-2.1,0-2.1,1.9-2.2c2.4-0.1,4.8-0.3,7.2-0.4c0.1,1.7,0,1.9-1.4,2C177.4,99.6,174.9,99.7,172.3,99.9z"/>
		<path d="M255.2,3.3c-1.9,0-3.8,0-5.7,0c-0.2,0-0.5,0-0.7,0c-1.7-0.1-1.7-0.1-1.6-2.1c1,0,2.1,0,3.1,0c1,0,1.9,0,2.9,0
			C255.2,1,255.4,1.2,255.2,3.3z"/>
		<path d="M65.9,99.3c0-0.4-0.1-0.9,0-1.4c0.1-0.3,0.4-0.8,0.7-0.9c2,0,4,0,6,0.2c0.2,0,0.6,0.6,0.6,1c0.1,0.5,0,1.1-0.8,1.1
			C70.3,99.3,68.2,99.3,65.9,99.3z"/>
		<path d="M105.3,1.1c0.1,2.1,0,2.1-1.8,2.2c-2.3,0.1-4.6,0.3-7,0.4c-0.2-1.6-0.1-1.9,1.3-2C100.3,1.4,102.8,1.3,105.3,1.1z"/>
		<path d="M133.5,100.3c0.1-0.5,0-0.9,0.2-1.3c0.2-0.3,0.5-0.7,0.8-0.7c2.6-0.1,5.3,0,7.9,0c0.1,1.5-0.1,1.7-1.6,1.8
			c-2.2,0.1-4.4,0.2-6.7,0.3C133.9,100.4,133.7,100.3,133.5,100.3z"/>
		<path d="M255.3,98.2c0,0.6-0.1,1-0.1,1.6c-2.7,0.2-5.4,0.4-8,0.6c-0.7-2.1-0.3-2.6,1.6-2.6C251,97.8,253.1,98.1,255.3,98.2z"/>
		<path d="M259.6,99.7c0-0.6,0.1-1.1,0.1-1.7c3.2-0.1,6.4-0.2,9.6-0.3c0.2,1.6,0.1,1.7-1.2,1.7c-2.5,0.1-4.9,0.3-7.4,0.4
			C260.4,99.8,260,99.8,259.6,99.7z"/>
		<path d="M198.2,99.8c-0.1-2-0.1-2,1.5-2c1.8,0,3.6,0.1,5.3,0.1c0.4,0,0.7-0.1,1.3-0.2c0.1,0.7,0.1,1.4,0.2,2.1
			C203.7,99.8,200.9,99.8,198.2,99.8z"/>
		<path d="M26,3.1c0-0.8,0.1-1.5,0.1-2.2c2.5,0,4.9,0,7.5,0c-0.1,0.8-0.1,1.5-0.2,2.2C30.9,3.1,28.5,3.1,26,3.1z"/>
		<path d="M287,62.6c0.1-2.4,0.1-4.5,0.2-6.7c0.1,0,0.1-0.1,0.2-0.1c2-0.3,2.1-0.3,2.2,1.7c0.1,1.4,0,2.8,0,4.2c0,0.7-0.2,1-0.9,0.9
			C288,62.5,287.4,62.6,287,62.6z"/>
		<path d="M71.6,3.3c-0.1-0.7-0.1-1.3-0.2-2c2.9,0,5.6,0,8.5,0c-0.1,0.7-0.1,1.3-0.2,2C77,3.3,74.3,3.3,71.6,3.3z"/>
		<path d="M178.6,3.2c-0.2-2-0.1-2.1,1.5-2c1.8,0,3.6-0.1,5.4,0c0.3,0,0.8,0.4,0.8,0.6c-0.1,0.5,0.5,1.5-0.4,1.6
			C183.4,3.3,181,3.2,178.6,3.2z"/>
		<path d="M37.7,3.5C37.8,2.8,37.9,2,38,1c2.4,0,4.8,0,7.2,0C45.2,1.6,45.1,2.3,45,3C42.6,3.2,40.3,3.3,37.7,3.5z"/>
		<path d="M219.4,3.7c0-0.8,0-1.5,0-2.5c2.8,0.1,5.6,0.2,8.4,0.3c0.2,1-0.1,1.4-1.1,1.4C224.3,3.1,221.9,3.4,219.4,3.7z"/>
		<path d="M286.6,81.3c0-1.7,0-3.3,0-4.8c0-1,0.5-1.2,1.9-1.2c0.8,0,0.7,0.6,0.7,1.1c0,1.3,0,2.6,0,3.9c0,0.6-0.1,0.9-0.8,0.9
			C287.8,81.2,287.1,81.3,286.6,81.3z"/>
		<path d="M66.2,0.9c0.2,0.3,0.2,0.4,0.2,0.4c0,2.2,0.5,2.3-2.2,2c-1.6-0.1-3.3,0-5,0c0-0.3,0-0.6,0-1c-0.1-0.9,0.3-1.2,1.2-1.1
			c0.3,0,0.6,0,0.9-0.1C63,1.2,64.6,1,66.2,0.9z"/>
		<path d="M211.6,100.1c-0.1-0.4-0.2-0.4-0.2-0.5c-0.2-2.2,0-2.3,2.2-2c1.3,0.2,2.6,0.1,3.9,0.1c0.3,0,0.7-0.1,1.2-0.2
			c-0.1,0.8-0.1,1.4-0.2,2.2C216.2,99.8,213.9,99.9,211.6,100.1z"/>
		<path d="M287.1,90.3c0-1,0-2.1,0-3.1c0-0.8,0.1-1.7-0.1-2.4c-0.2-0.8,0.1-0.9,0.7-1c1.6-0.3,1.8-0.2,1.8,1.4c0,1,0,2,0,3
			C289.6,89.9,289.2,90.3,287.1,90.3z"/>
		<path d="M4,18.3c-0.1,1.6-0.2,3.3-0.3,4.9c0,0.3-0.1,0.6-0.1,0.9c-0.1,0.9-0.5,1.4-1.5,1.3c-1-0.1-0.7-0.9-0.6-1.5
			c0.1-1.3,0.2-2.5,0.2-3.8C1.7,18.4,1.9,18.2,4,18.3z"/>
		<path d="M11.7,97.5c2.1,0,4,0,5.9,0c0,0.7,0,1.5,0,2.6c-1.8-0.1-3.6-0.3-5.3-0.5c-0.2,0-0.5-0.5-0.6-0.8
			C11.6,98.5,11.7,98,11.7,97.5z"/>
		<path d="M1.4,53c0-0.7,0-1.5,0-2.2c-0.1-1.1,0.8-0.9,1.4-1c0.8-0.1,0.8,0.4,0.8,0.9c0.1,1.6,0.2,3.2,0.3,4.9
			c0.1,1.2-0.9,0.7-1.4,1c-0.6,0.3-1,0-1-0.6C1.4,54.9,1.5,53.9,1.4,53C1.5,53,1.4,53,1.4,53z"/>
		<path d="M22.1,3.2c-2.1,0-4.2,0-6.3,0c-0.2,0-0.5-0.6-0.5-0.9c-0.1-0.4-0.3-1.1,0.5-1.1c0.3,0,0.6,0,0.8,0c1.8,0,3.6,0,5.4,0
			C22.1,1.6,22.1,2.2,22.1,3.2z"/>
		<path d="M242.9,97.8c0,0.8,0,1.4,0,2c-2.1,0-4.1,0-6.2,0c0-0.8-0.1-1.5-0.2-2.4C238.7,97.5,240.8,97.7,242.9,97.8z"/>
		<path d="M49.5,3.2c0-0.6,0-1.3,0-2c2,0,4-0.1,5.9,0c1.2,0.1,0.4,1.1,0.7,1.9C53.8,3.2,51.7,3.2,49.5,3.2z"/>
		<path d="M4,5.7C3.2,5.9,2.5,6.1,1.5,6.4c0-1.5,0-2.9,0-4.3C1.5,2,2,1.7,2.3,1.7c1.2,0,2.5,0,3.7,0c0.8,0,0.8,0.1,0.7,1.5
			c-0.9,0-1.8,0-2.9,0C3.8,4,3.9,4.8,4,5.7z"/>
		<path d="M265.1,3.6c-2.3-0.1-4.4-0.2-6.5-0.3c-0.4-1.5-0.2-1.9,1.1-2c1.1-0.1,2.3-0.2,3.4-0.3c0.9-0.1,1.3,0.2,1.5,1
			C264.6,2.4,264.9,2.9,265.1,3.6z"/>
		<path d="M3.7,59.6c-0.1,0.9-0.2,1.8-0.2,2.6c0,1.5,0.1,3.1,0.1,4.6c0.1,1.4,0.1,1.5-1.7,1.3c0-1.7,0-3.5,0-5.2c0-0.5,0-1.1,0-1.6
			C1.9,59.8,1.9,59.8,3.7,59.6z"/>
		<path d="M271.9,98.2c2.4,0,4.5,0,6.6,0c0.2,0,0.6,0.5,0.5,0.8c-0.1,0.4-0.5,1.1-0.7,1c-1.9-0.1-3.7-0.2-5.6-0.5
			C272.5,99.5,272.2,98.8,271.9,98.2z"/>
		<path d="M2.3,77.4c-0.1-1.7-0.3-3.3-0.4-5c0.6-0.1,1.2-0.3,1.6-0.4c0.4,0.8,0.8,1.5,1.1,2.3C5.2,75.8,4.1,77.3,2.3,77.4z"/>
		<path d="M3.5,39.5c-0.1,2.2-0.2,4.4-0.3,6.5c0,0.2-0.2,0.5-0.4,0.6c-0.2,0.1-0.6,0-0.8-0.2c-0.2-0.2-0.3-0.5-0.3-0.7
			c0-1.7,0-3.4,0.1-5.1C1.9,39.6,2.5,39.2,3.5,39.5z"/>
		<path d="M3.5,28.2c0.1,1.9,0.2,3.8,0.3,5.6c0,0.9,0,0.9-2.1,1.3c0.1-0.7,0.3-1.4,0.3-2c0.1-1.2,0.1-2.3,0-3.5
			C1.9,28.5,2.5,28.1,3.5,28.2z"/>
		<path d="M4.2,80c0,1.5,0,2.7,0,3.8c0,0.5,0.3,1.1,0.3,1.6c0,0.3-0.1,1-0.2,1c-0.6,0.1-1.2,0.9-1.7-0.1c-0.1-0.2-0.2-0.3-0.2-0.5
			c0-1.6,0.1-3.2,0.2-4.8C2.6,80.6,3.5,80.4,4.2,80z"/>
		<path d="M3.4,9.8c0.1,1.5,0.3,2.9,0.3,4.3c0,0.2-0.6,0.6-1,0.7c-0.3,0-0.9-0.3-0.9-0.5c-0.1-1.3-0.1-2.5,0.1-3.8
			C1.9,9.5,2.7,9.7,3.4,9.8z"/>
		<path d="M269.6,3.3c0.1-0.5,0.1-1.1,0.2-1.4c2.2,0,4.3,0,6.4,0c0,0.6,0,1,0,1.4C274,3.3,271.9,3.3,269.6,3.3z"/>
		<path d="M10.3,3.3c-0.1,0-0.4,0-0.7,0.1c-1,0.1-0.9-0.6-1-1.3C8.5,1.4,9,1.4,9.5,1.3c0.7-0.1,1.5-0.2,2.2-0.2c0.4,0,1-0.2,1,0.5
			c0,0.7,0.3,1.6-0.9,1.7C11.4,3.4,10.9,3.3,10.3,3.3z"/>
	</g>
</g>
</svg>
