<?xml version="1.0" encoding="utf-8"?>
<!-- Generator: Adobe Illustrator 18.1.0, SVG Export Plug-In . SVG Version: 6.00 Build 0)  -->
<!DOCTYPE svg PUBLIC "-//W3C//DTD SVG 1.1//EN" "http://www.w3.org/Graphics/SVG/1.1/DTD/svg11.dtd">
<svg version="1.1" id="Layer_1" xmlns="http://www.w3.org/2000/svg" xmlns:xlink="http://www.w3.org/1999/xlink" x="0px" y="0px"
	 viewBox="0 0 198.2 197" enable-background="new 0 0 198.2 197" xml:space="preserve">
<g>
	<path fill-rule="evenodd" clip-rule="evenodd" fill="#0C0C0C" d="M115.5,36.9c-2.2,2-4.4,3.9-6.2,5.5c-1.5-1.7-2.7-2.9-3.7-4.1
		c-0.9-1.2-1.6-2.5-2.4-3.7c0.7,0,1.5,0,2.2,0l0,0c0.4,0.5,0.8,1,1.2,1.5c0.2-0.3,0.4-0.6,0.5-0.9c-0.7-1.4-1.4-2.9-2.2-4.3
		c-0.2-0.4-0.8-0.7-1.2-1c-0.3,0.6-0.5,1.1-0.8,1.7c-0.6,0-1.1,0-1.7,0c-3.5-6.2-4.1-12.8-3.1-19.7c0.9,0.6,1.7,1.3,2.6,1.9
		c0.4-2.6,0-3.6-2.3-4.3c0.1-2,0.2-4,0.4-6c0.6-0.4,1.2-0.8,1.8-1.3c2.8-0.4,5.6-0.7,8.3-1.1c0.4,0.3,0.8,0.7,1.7,1.4
		c-0.3-1.4-0.4-2-0.6-2.6c0.4,0,0.8,0,1.2,0c1.6,0.4,3.2,0.8,4.8,1.2c0.6,0,1.2,0,1.8,0c0.6-0.2,1.2-0.4,1.8-0.6
		c2.8,1.2,5.6,2.3,8.4,3.5c1,1.3,2,2.7,3.2,3.9c0.1,0.1,1-0.6,1.6-0.9c0.6-0.2,1.2-0.4,1.8-0.6c2.8,2.5,4.6,5.2,2.1,9
		c-1.3,2.1-2.4,4.3-3.5,6.5c-0.8,0.1-1.6,0.2-2.4,0.3c0,0.2,0.1,0.5,0.1,0.7c0.9,0,1.7,0.1,2.6,0.1c0.3,0.4,0.7,0.8,1,1.2
		c3.1,3.1,6.2,6.2,9.2,9.3c3.6,3.7,6.6,4.1,11.1,1.5c0.9-0.5,2.2-0.2,3.4-0.3c-0.7,0.6-1.4,1.1-2.4,1.9c2.3,0,4,0,5.6,0
		c3.6,1.3,6,3.8,6.6,7.7c0.1,0.4,0.1,0.8,0.2,1.2c0.7,1.9,1.3,3.7-0.3,5.5c-0.4,0.5-0.3,1.5-0.4,2.2c-0.3,0.3-0.6,0.5-0.9,0.8
		c0.5-0.1,1-0.1,1.5-0.2c1.2,1.2,2.4,2.4,3.6,3.6c-0.1,0.5-0.1,1-0.2,1.5c0.5-0.1,0.9-0.2,1.4-0.4c0.4,0.4,0.8,0.8,1.2,1.2
		c-0.2,0.2-0.4,0.4-0.6,0.6c0,0.2,0,0.4,0,0.6c0.4,0,0.8,0,1.2,0c0.2,0.1,0.4,0.3,0.5,0.4c0,1.1-0.1,2.3,1.7,1.4
		c1.1,1.6,2.2,3.2,3.4,4.7c0.6,0.8,1.4,1.6,2.1,2.4c0.2,0.9,0.1,2.1,0.7,2.7c1.7,1.8,3.6,3.6,5.7,5c1,0.7,2.5,0.4,3.8,0.6
		c1.6,1.2,3.3,2.3,4.9,3.6c0.4,0.4,0.5,1.2,0.8,1.8c-0.7,1-1.4,2-2.2,3c-0.6,0.6-1.2,1.2-1.8,1.8c-0.4,0.5-0.7,0.9-1.1,1.4
		c-0.2,0.4-0.4,0.8-0.7,1.1c-0.4,0.1-0.7,0.1-1.1,0.2c-0.2-0.5-0.5-1-0.7-1.5c-0.2-0.1-0.4-0.3-0.7-0.4c0,0-0.1,0.1-0.2,0.2
		c0.2,0.1,0.5,0.2,0.7,0.3c0.2,0.5,0.5,1,0.7,1.5c-0.3,0.5-0.5,0.9-0.8,1.4c-2.4-1.6-4.8-3.1-7-4.9c-2.4-2-4.5-4.4-6.8-6.5
		c-2.7-2.5-5.6-5-8.3-7.5c-0.7-0.6-1.1-1.5-1.7-2.3c0.4-0.6,0.8-1.3,1.3-1.9c-0.3-0.2-0.6-0.3-0.8-0.5c-0.3,0.7-0.7,1.3-1,2
		c-1.1-0.6-2.1-1.4-3.2-1.8c-0.5-0.2-1.3,0.6-2,0.9c-0.2,0-0.5,0-0.7,0c-0.4-0.4-0.8-0.8-1.2-1.2c0-0.4,0-0.8,0-1.2
		c-0.3-0.4-0.7-0.8-1-1.2v-0.2l0.1-0.1c0.1-0.7,0.3-1.4,0.4-2.1c-0.6,0-1.3,0-1.9,0c-2.2-2.8-4.4-5.6-6.6-8.4c-0.4-0.5-1-1-1.5-1.4
		c-0.1-0.1-0.6,0.5-0.9,0.8c0,0.2,0,0.4,0.1,0.5c0.2,0.9,0.8,2,0.5,2.8c-0.9,3.2-2,6.2-3.1,9.4c-0.1,0.3-0.3,0.6-0.4,0.9
		c-0.2,1-0.3,2-0.6,2.9c-2.8,6.7-6,13.3-8.4,20.2c-1.1,3.3-3.8,4.3-5.8,6.4c-3.1,3.3-6.2,6.7-9.9,9.2c-3.7,2.5-6.2,5.1-5.6,9.9
		c0.2,1.8,0.2,3.5,0.4,5.3c0,0.5,0.3,0.9,0.6,1.3c1.1,1.6,2.3,3.1,3.2,4.7c1.4,2.3,2.6,4.7,4,7.4c0.5-0.7,0.9-1,0.9-1.2
		c-0.4-3.9,2.3-6.5,4-9.5c1-1.8,1.8-4.2,3.4-5.1c2.3-1.3,3.4-3.1,4.3-5.3c0.2-0.5,0.4-0.9,0.7-1.3c3.1-4.4,6.6-8.5,9.1-13.3
		c2.6-5,4.2-10.5,6.2-15.7c1.1-2.8,2.2-5.6,3.3-8.4c0.6-0.2,1.3-0.5,1.9-0.7c-0.4-0.4-0.9-0.7-1.3-1.1c0.4-1.4,0.8-2.8,1.2-4.2
		c0.5,0.8,1.2,1.6,1.4,2.4c0.4,2,0.4,4,0.6,6.1c0,0.2,0,0.4,0,0.6c-0.7,2.8-1.3,5.6-2,8.4c-0.4,0.1-0.8,0.2-1.2,0.3
		c0.3,0.2,0.6,0.5,0.9,0.7c-0.4,1.6,0.1,3.6-2.4,4c-0.6,0.1-1,1.8-1.4,2.8c-2.2,5.9-4.7,11.6-8.3,16.9c-4.5,6.7-8.7,13.6-12.4,20.7
		c-3.3,6.3-4.5,13.3-3.6,20.5c0,0.6,0,1.2,0,1.8c-0.1,5.2-0.3,10.3-0.4,15.5c-1-2.5-1.9-4.9-3.1-7.9c-0.3,1.2-0.7,2.1-0.6,3
		c0.1,3.7,0.4,7.5,0.6,11.2c0.1,2,0.3,3.9,0.6,5.8c0.1,0.8,0.7,1.6,1.4,2c0.3,0.2,1.2-0.6,1.9-0.9c0.4-0.2,0.8-0.5,1.3-0.7
		c0.2,1.1,0.5,2.1,0.7,3.2c0.9,5.7-1.8,8.4-7.6,8.5c-3.5,0-7,1.2-10.4,1.3c-6.5,0.3-13.1-0.6-19.5,0.4c-5.9,1-10.5-2.1-15.7-3
		c-1.7-0.3-3.4-0.8-5.1-1.2c0.2-3.2,0.5-6.2,0.7-9.2c0.2,0.5,0.4,1.1,0.8,1.9c0.6-0.7,1.1-1.3,1.6-1.9c1.9-1.6,1.9-3.2,0-4.8
		c0-0.6,0-1.2,0-1.8c0-1,0-2,0-3c0.6-0.2,1.2-0.4,1.8-0.6c1.9-1.6,1.9-3.2,0-4.8c0-0.4,0-0.8,0-1.2c0.1-0.7,0.2-1.4,0.3-2
		c-0.5,0.1-1,0.2-1.5,0.3c-0.2,0-0.4,0-0.6,0c-0.8-0.6-1.5-1.1-2.3-1.7c-0.2-1-0.4-2-0.6-3.1c0.3-0.3,0.7-0.7,1-1
		c-0.3-0.3-0.6-0.5-1-0.8c-0.7-2.6-1.4-5.1-2.1-7.7c2.7-2.7,1.1-6.5-3.3-7.8c-1.2-1.5-2.4-3.1-3.6-4.6c-0.3-0.2-0.7-0.4-1-0.6
		c-0.3-0.4-0.5-0.9-0.8-1.3c0.4-1.4,0.7-2.9,1.2-4.2c1.1-2.7-0.9-4.3-2.5-4.8c-1.6-0.5-3.6,0.8-5.4,1.3c-0.4-0.4-0.7-0.7-1.1-1.1
		c-0.5-0.5-0.9-0.9-1.4-1.4c-3.3-2.7-6.5-5.4-9.8-8.2c-0.2-0.3-0.4-0.5-0.6-0.8c-0.2-0.4-0.4-1-0.7-1.2c-6.8-3.4-9.9-10.3-14.6-15.8
		c-2.3-2.7-4.7-5.5-6.2-8.6c-2.5-5-6.7-8.3-10.6-11.8c-0.6-0.2-1.2-0.5-1.9-0.7c-3.9-1.5-6.1-4.7-7.7-8.4c0-2.6,0-5.2,0-7.7
		c0.8-0.7,1.7-1.3,2.4-2.1c1.9-2.1,3.6-4.3,5.7-6.2c2.6-2.4,5.1-2.3,7.9,0c2.4,2,4,4.5,4.4,7.8c-1.4,0.6-2.7,1.2-4.1,1.8
		c-0.4-0.5-0.8-1-1-1.2c-0.9,3.3-1.6,6.5-2.8,9.5c-1,2.6-0.1,3.7,2.1,5.1c2.7,1.7,5.1,4.1,7.6,6.2c0.1,0.2,0.3,0.4,0.4,0.6l0.1,0.2
		c0.1,0.2,0.3,0.3,0.4,0.4c1,0.8,2.1,1.5,2.8,2.5c3.5,4.9,8.7,8.3,11,14.2c0.7,1.8,2.9,3.1,4.4,4.6c-1.3,2,0.6,1,1.2,1.2
		c4,3.5,8,7.1,12,10.6c2,1.8,4.2,3.4,6.3,5.1c0.1,0.1,0.2,0.3,0.3,0.4c0.2,0.1,0.3,0.2,0.4,0.4l0.2,0.2c0.5,0.5,1.1,1,1.6,1.5
		c0.5,0.7,1,1.4,1.5,2.1c0.5,0.1,1,0.3,1.5,0.4c0.5,0.7,1.1,1.4,1.6,2.1c0.4,0.4,0.8,0.8,1.2,1.2c-0.3,0.2-0.6,0.4-0.8,0.5
		c0.4,0.2,0.9,0.4,1.3,0.6c0.3,0.3,0.6,0.6,0.9,0.8c0.2,0.2,0.3,0.3,0.5,0.5c1.2,0.8,2.5,1.6,3.7,2.4c0.4,0,1,0,1-0.1
		c0.3-3.5,0.5-7,0.8-10.5c-0.1,0-0.2,0-0.4,0c-0.3,1.3-0.7,2.7-1,4c0-2,0.1-3.9,0.1-5.9c0.6,0,1.2,0,1.7,0c0.2,0.3,0.5,0.6,0.7,0.9
		c0.1-0.1,0.1-0.1,0.2-0.2c-0.3-0.2-0.6-0.5-0.9-0.7c-0.4-0.4-0.8-0.8-1.2-1.2c0.4-0.4,0.8-0.8,1.3-1.2c0.2-0.2,0.4-0.4,0.6-0.6
		c0.6-0.5,1.2-1,1.6-1.2c0.9,0.7,1.7,1.2,2.5,1.8c0.2,0.8,0.4,1.6,0.6,2.4c-0.4,0.6-1,1.2-1,1.8c0,3.1,0.1,6.2,0.3,9.3
		c0,0.2,0.7,0.5,1.1,0.7c0.1-1.7,0.2-3.2,0.3-4.6c0.2,3,0.4,6,0.6,8.9c-0.7,0.7-2,1.6-1.9,2.2c0.1,0.9,1.3,1.7,2,2.6
		c0.2,2.6,0.3,5.1,0.5,7.7c-0.3-1.1-0.5-2.1-0.8-3.2c-0.3,0-0.7,0-1,0c0,3-0.2,6-0.1,9c0.1,1.3,0.9,2.5,1.4,3.7
		c-0.4,4-0.7,8-1.1,11.9c-0.4,0.1-1.1,0.2-1.1,0.3c-0.2,3-0.4,6.1-0.6,9.2c0.1,0,0.3,0,0.4,0.1c0.4-1.4,0.8-2.7,1.2-4.1
		c0,1.4,0,2.9,0,4.3c1.1,0.4,2.1,0.7,3,1c-1,0-2,0-3,0c0,0.3,0,0.5-0.1,0.8c1.5,0.2,3,0.5,4.6,0.7c0-0.1,0.1-0.3,0.1-0.4
		c-0.5-0.4-1-0.7-1.5-1.1c1,0.2,2,0.5,3,0.7c0,0.2,0,0.3,0,0.5c0.2,0.2,0.4,0.4,0.6,0.6c0.2,0,0.4,0,0.5,0l0.1,0.1
		c0.2,0.2,0.4,0.3,0.7,0.5c0.2,0,0.4,0,0.5,0.2c0,0.2,0,0.3,0,0.5c0.2,0,0.4,0,0.6,0c0.2-0.2,0.4-0.4,0.6-0.6l0,0
		c0.2,0,0.4,0.1,0.6,0.1c1.4,2,3.1,1.2,4.7,0.5c1,0,2,0,3,0c0.2,0.3,0.4,0.9,0.6,0.9c3.6-0.1,7.2-0.2,10.7-0.4c0.8,0,1.6,0,2.4,0
		c1.9,0.6,3.8,1.5,5.3-0.6c0.2-0.2,0.4-0.3,0.6-0.5c0.2,0,0.4-0.1,0.6-0.1c0.8,0,1.6,0,2.4,0c0.1,0,0.2,0.1,0.2,0.1
		c-0.1,0-0.2-0.1-0.2-0.1c0-0.2,0-0.4,0-0.7c-0.6-4.7-1.3-9.4-1.8-14.1c-0.5-4.8-1.2-9.7-0.8-14.5c0.4-4.8-4.4-8.5-2.3-13.4
		c0.1-0.2-0.4-0.7-0.5-1c-0.8-4.3-4.2-7.4-4.6-12.1c-0.5-6.5-2.4-12.9-3.9-19.4c-0.2-1-1-1.9-1.5-2.8c-0.3,0.1-0.5,0.2-0.8,0.2
		c-0.3,5-0.7,9.9-1,14.9c-0.2,3.3,0,6.7-0.3,10c-0.2,2.3-2,3.2-4.1,3.5c-0.9,0.1-1.8,0-2.6,0.3c-2.2,0.8-3.6,0.2-4.2-2.1
		c2-0.5,4.1-1.1,6.2-1.6c-0.2-0.6-0.3-1.1-0.5-1.6c0.4-1.3,0.7-2.6,1.1-3.9c0.4-0.6,0.9-1.2,1.3-1.7c0.8-0.2,1.6-0.4,2.4-0.6
		c-0.1-0.3-0.2-0.6-0.4-1c-1.1-0.4-2-0.4-2,1.5c-0.4,0.2-0.8,0.4-1.1,0.6c1.3-4.9,0.2-9.8-0.6-14.6c0.9-1.1,1.5-2.6,2.7-3.1
		c1.7-0.7,2.7-1.3,2.8-3.2c0-0.4,0.7-0.7,1.1-1.1c0.6,0.5,1.3,0.9,1.8,1.4c2.2,2.2,2.8,1.9,4.8-0.3c2.4-2.6,5.3-4.7,7.7-7.3
		c3.1-3.2,6.5-6.4,8.9-10.1c2.1-3.3,3.1-7.4,4.6-11.2c0.8-2,1.9-3.9,2.8-5.9c0.3-0.6,0.5-1.1,0.8-1.7c1-2.6,2.1-5.2,3.1-7.8
		c0.2-0.6,0.5-1.3,0.7-1.9c0.6-1.3,1.2-2.7,1.8-4c0-0.6,0.1-1.2,0.1-1.8c0.1-1.4,0.4-2.8,0.3-4.1c-0.1-1.1-0.5-2.3-1.2-3
		c-4.6-4.4-9.6-8.5-14-13.1c-2.2-2.3-4.7-2.1-7.2-2.8c-0.2-0.5-0.4-0.9-0.6-1.4c-0.3-0.3-0.6-0.6-0.8-1
		C119.1,32.4,115.5,33.3,115.5,36.9z M13.7,61.3c0.1,0,0.2,0.1,0.3,0.1C13.9,61.4,13.8,61.4,13.7,61.3c-0.1-0.3-0.1-0.5-0.2-0.8
		c-0.1,0-0.1,0.1-0.2,0.1C13.4,60.9,13.5,61.1,13.7,61.3z M78,140.6c-0.4-0.4-0.8-0.8-1.2-1.2c-0.6,0-1.1,0.1-1.7,0.1
		c0.6,0.4,1.1,0.7,1.7,1.1c0.2,0.4,0.4,0.8,0.6,1.2C77.6,141.3,77.8,141,78,140.6z M148.3,39.9c0.3-0.3,0.7-0.5,1-0.8
		c-0.3-0.1-0.7-0.3-1-0.4c-0.5,0.3-1,0.6-1.5,0.8C147.3,39.7,147.8,39.8,148.3,39.9z M161.4,42.9c-1.1-0.5-2.1-1.3-3.2-1.3
		c-1,0-2.8,1-2.8,1.4c0.1,2.7,0.7,5.3,1.2,7.9c0,0.2,0.9,0.5,1.2,0.4c1.5-0.4,3.2-0.7,4.4-1.5c3-2,3.3-5.6,0.9-7.1
		C162.6,42.9,162,42.9,161.4,42.9z M10,64.8c-2.8-0.9-4.1,0.3-4.3,1.8c-0.3,2.4-1.4,5.2,2.2,7.1C8.7,70.6,9.4,67.7,10,64.8z
		 M103.4,121.7c0.3,0,0.7,0,1,0.1c0-2.5,0.1-5-0.1-7.5c0-0.4-1.3-0.7-2.7-1.3C102.3,116.4,102.8,119.1,103.4,121.7z M173.5,73
		c0.2-0.3,0.3-0.6,0.5-0.9c-1.4-0.5-2.8-1.1-4.2-1.6c-0.2,0.8-0.5,1.6-0.7,2.5C170.9,73,172.2,73,173.5,73z M117.1,192.6
		c0,0.2,0,0.3,0,0.5c0.9,0,1.9,0,2.8,0c0-0.2,0-0.3,0-0.5C119,192.6,118,192.6,117.1,192.6z M150.8,45.7c0.3-0.1,0.6-0.1,1-0.2
		c-0.1-0.6-0.2-1.2-0.4-1.7c-0.3,0.1-0.9,0.3-0.9,0.4C150.5,44.7,150.7,45.2,150.8,45.7z M13.1,66.5c-0.3-0.1-0.6-0.2-1-0.3
		c-0.1,0.5-0.4,1-0.4,1.5c0,0.1,0.6,0.3,0.9,0.4C12.8,67.7,12.9,67.1,13.1,66.5z M130.5,128.1c0.2,0.1,0.5,0.3,0.7,0.4
		c0.3-0.6,0.6-1.2,0.8-1.8c-0.2-0.1-0.4-0.2-0.6-0.3C131.2,127,130.9,127.5,130.5,128.1z M155.9,56.6c0.3,0.5,0.5,0.7,0.6,0.9
		c0.2-0.1,0.6-0.3,0.5-0.4c-0.1-0.3-0.3-0.6-0.5-0.8C156.5,56.2,156.1,56.5,155.9,56.6z M101.2,17.5c-0.2-0.2-0.4-0.5-0.6-0.5
		c-0.2,0-0.5,0.4-0.5,0.5c0.1,0.3,0.4,0.5,0.6,0.7C100.9,18,101.1,17.7,101.2,17.5z M159.6,61.4c-0.2,0.2-0.3,0.4-0.5,0.6
		c0.4,0.3,0.9,0.5,1.3,0.8c0.1-0.1,0.2-0.3,0.3-0.4C160.4,62,160,61.7,159.6,61.4z M107.4,37.7c0.2,0.1,0.4,0.2,0.5,0.2
		c0.1,0,0.2-0.3,0.2-0.5c-0.2-0.1-0.4-0.2-0.5-0.2C107.5,37.3,107.5,37.5,107.4,37.7z M102,6.3c0.1-0.2,0.2-0.4,0.2-0.5
		c0-0.1-0.3-0.2-0.5-0.2c-0.1,0.2-0.2,0.4-0.2,0.5C101.6,6.2,101.8,6.3,102,6.3z M136.2,116.4c-0.1,0.2-0.1,0.3-0.2,0.5
		c0.2,0.1,0.4,0.2,0.5,0.2c0.1,0,0.2-0.3,0.2-0.5C136.6,116.5,136.4,116.5,136.2,116.4z M117.1,2.8c-0.2-0.1-0.4-0.2-0.5-0.2
		c-0.1,0-0.2,0.3-0.2,0.5c0.2,0.1,0.4,0.2,0.5,0.2C117,3.2,117,3,117.1,2.8z M133.8,120.7c-0.2-0.1-0.4-0.2-0.5-0.2
		c-0.1,0-0.2,0.3-0.2,0.5c0.2,0.1,0.4,0.2,0.5,0.2C133.7,121.2,133.7,120.9,133.8,120.7z M100.9,22.2c0.2,0.1,0.4,0.2,0.5,0.2
		c0.1,0,0.2-0.3,0.2-0.5c-0.2-0.1-0.4-0.2-0.5-0.2C101,21.8,101,22,100.9,22.2z M164.7,52.8c-0.2-0.1-0.3-0.1-0.5-0.2
		c-0.1,0.2-0.2,0.4-0.2,0.5c0,0.1,0.3,0.2,0.5,0.2C164.6,53.2,164.7,53,164.7,52.8z M162.2,63.6c0,0.1-0.1,0.2-0.1,0.2
		c0,0,0.1,0.1,0.2,0.1c0-0.1,0.1-0.2,0.1-0.3C162.4,63.6,162.3,63.6,162.2,63.6z M189,88.5c-0.2-0.1-0.3-0.1-0.4-0.1
		c0,0.1,0,0.1,0.1,0.2C188.8,88.6,188.9,88.5,189,88.5z"/>
	<path fill-rule="evenodd" clip-rule="evenodd" fill="#0E0E0E" d="M116.1,1.2c-1.6-0.4-3.2-0.8-4.8-1.2c1.6,0,3.2,0,4.8,0
		C116.1,0.4,116.1,0.8,116.1,1.2z"/>
	<path fill-rule="evenodd" clip-rule="evenodd" fill="#111111" d="M110.2,0c0.1,0.6,0.3,1.3,0.6,2.6c-0.9-0.7-1.3-1.1-1.7-1.4
		c0.2-0.4,0.4-0.8,0.6-1.2C109.8,0,110,0,110.2,0z"/>
	<path fill-rule="evenodd" clip-rule="evenodd" fill="#0E0E0E" d="M119.7,0c0,0.2,0,0.4,0,0.6c-0.6,0.2-1.2,0.4-1.8,0.6
		c0-0.4,0-0.8,0-1.2C118.5,0,119.1,0,119.7,0z"/>
	<path fill-rule="evenodd" clip-rule="evenodd" fill="#0D0C0C" d="M117.9,0c0,0.4,0,0.8,0,1.2c-0.6,0-1.2,0-1.8,0c0-0.4,0-0.8,0-1.2
		C116.7,0,117.3,0,117.9,0z"/>
	<path fill-rule="evenodd" clip-rule="evenodd" fill="#040404" d="M129.6,183.4c-0.4,0.2-0.8,0.5-1.3,0.7c-0.6,0.3-1.6,1.1-1.9,0.9
		c-0.6-0.4-1.2-1.3-1.4-2c-0.3-1.9-0.5-3.9-0.6-5.8c-0.3-3.7-0.5-7.4-0.6-11.2c0-0.9,0.4-1.7,0.6-3c1.2,3,2.1,5.5,3.1,7.9
		c0.1,1.4,0.2,2.8,0.4,4.2c0,0.6,0.1,1.2,0.1,1.8C128.6,179.1,129.1,181.3,129.6,183.4z"/>
	<path fill-rule="evenodd" clip-rule="evenodd" fill="#080808" d="M54.6,129.4c1.8-0.5,3.9-1.8,5.4-1.3c1.6,0.5,3.6,2.1,2.5,4.8
		c-0.6,1.3-0.8,2.8-1.2,4.2c-0.8-0.9-1.6-1.9-2.4-2.8c0.3-0.5,0.5-0.9,0.8-1.4c-0.5,0.2-0.9,0.4-1.4,0.6
		C57.1,132.1,55.8,130.7,54.6,129.4z"/>
	<path fill-rule="evenodd" clip-rule="evenodd" fill="#030303" d="M72.8,163.9c0.8,0.6,1.5,1.1,2.3,1.7c0.4,0.4,0.8,0.8,1.2,1.2
		c0.2,0.2,0.4,0.4,0.6,0.6c0,0.4,0,0.8,0,1.2c0,1.6,0,3.2,0,4.8c-0.6,0.2-1.2,0.4-1.8,0.6c-0.5,0-1,0-1.5,0c-0.1-1-0.1-2-0.2-3
		c0-0.6-0.1-1.2-0.1-1.8c0-0.4-0.1-0.8-0.1-1.1c-0.1-0.6-0.1-1.3-0.2-1.9C72.9,165.3,72.8,164.6,72.8,163.9z"/>
	<path fill-rule="evenodd" clip-rule="evenodd" fill="#0D0C0C" d="M159,69.1c0.4,0.4,0.8,0.8,1.2,1.2c0.2,0.4,0.4,0.8,0.6,1.2
		c0,0.8,0,1.6,0,2.4c-0.6,0.1-1.1,0.1-1.7,0.2c0.4,0.5,0.7,1.1,1.1,1.6c-0.5,1-0.9,2-1.4,2.9c-0.2,0-0.3,0.1-0.4,0.1
		c-0.2-2-0.3-4.1-0.6-6.1c-0.2-0.9-0.9-1.6-1.4-2.4c0.2-0.4,0.3-0.8,0.5-1.2c0.3,0,0.6,0.1,0.9,0.1C158.2,69.1,158.6,69.1,159,69.1z
		"/>
	<path fill-rule="evenodd" clip-rule="evenodd" fill="#080808" d="M66.8,143.5c4.4,1.3,6,5.1,3.3,7.8
		C69,148.7,67.9,146.1,66.8,143.5z"/>
	<path fill-rule="evenodd" clip-rule="evenodd" fill="#030303" d="M75,183.4c-0.5,0.6-1,1.2-1.6,1.9c-0.3-0.8-0.5-1.3-0.8-1.9
		c0.1-0.6,0.2-1.2,0.3-1.8c0.1-0.4,0.2-0.8,0.3-1.2c0-1.2,0.1-2.4,0.1-3.6c0.5,0,1.1,0,1.6,0c0,0.6,0,1.2,0,1.8
		C75,180.3,75,181.8,75,183.4z"/>
	<path fill-rule="evenodd" clip-rule="evenodd" fill="#080808" d="M75,176.9c-0.5,0-1.1,0-1.6,0c0-1,0-2,0.1-3c0.5,0,1,0,1.5,0
		C75,174.9,75,175.9,75,176.9z"/>
	<path fill-rule="evenodd" clip-rule="evenodd" fill="#0C0C0C" d="M160.2,75.6c-0.4-0.5-0.7-1.1-1.1-1.6c0.6-0.1,1.1-0.1,1.7-0.2
		C160.6,74.4,160.4,75,160.2,75.6z"/>
	<path fill-rule="evenodd" clip-rule="evenodd" fill="#0E0E0E" d="M198.1,84c0.1,0.2,0.1,0.4,0.2,0.6c-0.8,0.8-1.5,1.6-2.3,2.4
		C196.7,85.9,197.4,85,198.1,84z"/>
	<path fill-rule="evenodd" clip-rule="evenodd" fill="#0D0C0C" d="M166.1,71.2c0.3-0.7,0.7-1.3,1-2c0.3,0.2,0.6,0.3,0.8,0.5
		c-0.4,0.6-0.9,1.3-1.3,1.9C166.4,71.4,166.3,71.3,166.1,71.2z"/>
	<path fill-rule="evenodd" clip-rule="evenodd" fill="#0E0E0E" d="M41.7,117.9c0.2,0.3,0.4,0.5,0.6,0.8c-0.4,0.2-0.8,0.4-1.2,0.6
		c-0.1-0.1-0.2-0.2-0.3-0.3C41.1,118.7,41.4,118.3,41.7,117.9z"/>
	<path fill-rule="evenodd" clip-rule="evenodd" fill="#0C0C0C" d="M128.1,176.9c0-0.6-0.1-1.2-0.1-1.8
		C128,175.7,128.1,176.3,128.1,176.9z"/>
	<path fill-rule="evenodd" clip-rule="evenodd" fill="#0C0C0C" d="M73.2,169.1c0,0.6,0.1,1.2,0.1,1.8
		C73.3,170.3,73.3,169.7,73.2,169.1z"/>
	<path fill-rule="evenodd" clip-rule="evenodd" fill="#0C0C0C" d="M72.9,166.1c0.1,0.6,0.1,1.3,0.2,1.9
		C73.1,167.4,73,166.7,72.9,166.1z"/>
	<path fill-rule="evenodd" clip-rule="evenodd" fill="#0E0F0F" d="M58.3,133.4c0.5-0.2,0.9-0.4,1.4-0.6c-0.3,0.5-0.5,0.9-0.8,1.4
		C58.7,133.9,58.5,133.7,58.3,133.4z"/>
	<path fill-rule="evenodd" clip-rule="evenodd" fill="#0E0F0F" d="M72.2,159c0.3,0.3,0.6,0.5,1,0.8c-0.3,0.3-0.7,0.7-1,1
		C72.2,160.2,72.2,159.6,72.2,159z"/>
	<path fill-rule="evenodd" clip-rule="evenodd" fill="#0E0F0F" d="M128,155.4c0-0.6,0-1.2,0-1.8C128,154.3,128,154.8,128,155.4z"/>
	<path fill-rule="evenodd" clip-rule="evenodd" fill="#FFFFFF" d="M191.3,91.4c0.4-0.1,0.7-0.1,1.1-0.2c-0.6,0.5-1.3,1.1-1.9,1.6
		C190.7,92.4,191,91.9,191.3,91.4L191.3,91.4z"/>
	<path fill-rule="evenodd" clip-rule="evenodd" fill="#0E0E0E" d="M7.7,79.8c0.6,0.2,1.2,0.5,1.9,0.7C8.9,80.3,8.3,80.1,7.7,79.8z"
		/>
	<path fill-rule="evenodd" clip-rule="evenodd" fill="#0E0E0E" d="M193,90.1c0.4-0.5,0.7-0.9,1.1-1.4
		C193.7,89.2,193.4,89.6,193,90.1z"/>
	<path fill-rule="evenodd" clip-rule="evenodd" fill="#0D0C0C" d="M156.1,88.7c-0.3-0.2-0.6-0.5-0.9-0.7c0.4-0.1,0.8-0.2,1.2-0.3
		C156.3,88,156.2,88.4,156.1,88.7z"/>
	<path fill-rule="evenodd" clip-rule="evenodd" fill="#0E0E0E" d="M160.8,71.5c-0.2-0.4-0.4-0.8-0.6-1.2c0.2,0,0.5,0,0.7,0
		C160.9,70.7,160.9,71.1,160.8,71.5z"/>
	<path fill-rule="evenodd" clip-rule="evenodd" fill="#0C0C0C" d="M73.3,180.5c-0.1,0.4-0.2,0.8-0.3,1.2
		C73.1,181.3,73.2,180.9,73.3,180.5z"/>
	<path fill-rule="evenodd" clip-rule="evenodd" fill="#0E0E0E" d="M52.1,126.9c0.5,0.5,0.9,0.9,1.4,1.4
		C53,127.8,52.6,127.4,52.1,126.9z"/>
	<path fill-rule="evenodd" clip-rule="evenodd" fill="#0F0F0E" d="M158.4,78.7c0.1-0.1,0.3-0.1,0.4-0.1c-0.1,0.2-0.3,0.5-0.4,0.7
		C158.4,79.1,158.4,78.9,158.4,78.7z"/>
	<path fill-rule="evenodd" clip-rule="evenodd" fill="#080808" d="M62.2,138.3c0.3,0.2,0.7,0.4,1,0.6
		C62.8,138.7,62.5,138.5,62.2,138.3z"/>
	<path fill-rule="evenodd" clip-rule="evenodd" fill="#0A0A0A" d="M16.2,64.9c1.4-0.6,2.7-1.2,4.1-1.8c2.4,4.9,6.5,8.1,10.7,11.5
		c5.1,4.1,9.5,9,14.2,13.6c-0.3,0.2-0.6,0.4-0.9,0.6c0.7,0.2,1.4,0.4,2.1,0.6c4.9,5.3,10.8,9.3,16.9,13.2c4,2.5,7.8,5.5,11.8,8.1
		c1,0.7,2.3,0.8,3.5,1.2c0.4,0,0.8,0,1.2,0c0.2-1.5,0.4-3.1,0.6-4.6c0.4-0.7,1.2-2,1.1-2.2c-1-1-2.3-1.8-3.5-2.6
		c-1-2.4-1.9-4.8-2.9-7.2c-0.1-0.4-0.2-0.8-0.3-1.2c-0.7-2-1.4-4-2.1-6.1c0.3-0.7,0.4-1.8,0.9-2.2c6.2-4.2,12.5-8.2,18.7-12.3
		c2.3-1.1,4.6-2.2,6.9-3.4c1.1-0.8,2.1-1.5,3.2-2.3c2.1-2.2,4.3-4.4,6.4-6.6c1-0.2,2.5,0,1.3-1.8c0.2-0.2,0.4-0.4,0.5-0.6
		c1.4-0.5,2.7-1,1.9-3c0.2-0.8,0.5-1.6,0.7-2.4c0.4-1.4,0.8-2.7,1.2-4.1c2.1,0.6,3.2,1.7,2.5,4.1c-0.6,2.4-1.3,4.8-1.9,7.2
		c-0.4,0.6-0.8,1.2-1.2,1.7c-3.4,0.4-2.8,3.3-3.5,5.5c-0.5,0.4-1.1,0.8-1.6,1.2c-0.6,0.5-1.2,1-1.9,1.4c0.5,6.4,1,12.9,1.5,19.3
		c-0.3,0.2-0.5,0.4-0.8,0.5c0.3,0.2,0.6,0.4,1,0.7c0.2,2,0.4,4,0.6,5.9c0,0.4-0.1,0.8-0.1,1.2c-0.6,1.8-1.1,3.5-1.7,5.3
		c0,0.3-0.1,0.6-0.1,0.9c0,0.5,0,1.1,0,1.6c-0.4,0.4-1.1,0.7-1.1,1.1c-0.1,1.9-1.1,2.6-2.8,3.2c-1.1,0.4-1.8,2-2.7,3.1
		c-2.2,2.7-4.3,0.4-7.4,0.1c3.5-3.9,6.5-7.2,9.5-10.5c0.5-0.8,1.3-1.6,1.3-2.4c0.1-5.5,0.3-10.9,0-16.4c-0.2-3-1-6-1.8-8.9
		c-0.3-1-1.2-2.3-2.3-0.3c-0.1,0.2-0.2,0.4-0.3,0.6c-2,1-4.1,1.8-5.8,3.2c-2.5,2-4.7,4.6-7.1,6.7c-1.5,1.3-1.8,2.7-1,4.4
		c0,0.2-0.1,0.4-0.1,0.6c-0.4,0.4-1,0.8-1,1.2c0,3.1,0.1,6.1,0.4,9.2c0.1,0.8,0.9,1.4,1.4,2.2c0,0.4,0,0.7,0,1.1
		c0,2.6-0.2,5.2-0.1,7.7c0.1,2.4-0.9,3.2-3.2,2.9c-0.1-0.8-0.2-1.5-0.3-2.2c-0.3-0.1-0.5-0.1-0.8-0.2c-0.6,1.4-1.1,2.9-1.7,4.3
		c-1,0.2-2,0.4-3,0.6c-0.2-0.1-0.4-0.2-0.6-0.3c-0.2-0.3-0.4-0.6-0.6-0.9c-0.7-0.4-1.4-0.7-2.1-1.1c-1.1-0.8-2.2-1.6-3.3-2.4
		c-0.3-1-0.5-1.9-0.8-2.9c-0.7,0.3-1.4,0.6-2.2,1c-3.5-1.5-6.9-3-10.3-4.7c-0.9-0.4-1.4-1.6-2.1-2.5c0.2-0.1,0.5-0.2,0.7-0.3
		c-0.2-0.1-0.5-0.2-0.7-0.3c-2-1.8-4-3.5-6.1-5.3c0.3-0.6,0.6-1.2,0.9-1.8c-1.1-0.4-2.2-0.7-3.3-1.1h0c0-0.7,0-1.4,0-2.2
		c-0.2,0-0.4-0.1-0.6-0.1c-0.2,0.5-0.4,0.9-0.6,1.4c-3.6-2.6-7.3-5.1-10.7-7.9c-2.4-2.1-4.4-4.7-6.6-7.1c0-1,0.1-2.1,0.1-3.1
		c-0.6,0.4-1.2,0.8-1.8,1.2c-1.8-1.8-3.6-3.5-5.4-5.3c-0.3-0.3-0.5-0.5-0.8-0.8c-1.1-1.2-2.1-2.4-3.2-3.6c0.3-0.2,0.6-0.4,0.9-0.6
		c-0.4-0.2-0.8-0.3-1.2-0.5C16.8,65.8,16.5,65.3,16.2,64.9z"/>
	<path fill-rule="evenodd" clip-rule="evenodd" fill="#0C0C0C" d="M114.4,49.5c-0.4,1.4-0.8,2.7-1.2,4.1c-4.6,0.2-9.3,0.4-13.9,0.5
		c-1.6,0-3.5,0.1-4.8-0.7c-2.2-1.3-4-3.4-6-5c-2.4-2-4.8-3.9-7.3-5.8c-0.4-0.3-1.2-0.3-1.6-0.1c-2.6,1.3-5.1,2.7-7.5,4
		c1.3,4.2,2.5,7.7,3.4,11.3c0.4,1.6,0.1,3.3,0.1,4.9c-0.1,1.1,0.7,2.3,0.4,3.2c-1.3,3.8-3,7.4-4.4,11.2c-0.4,1-0.1,2.2-0.1,3.3
		c6.1-0.6,10.8-3.1,15.4-6c1.7-1.1,3.4-2.2,5.4-0.8c-6.2,4.1-12.5,8.2-18.7,12.3c-0.5,0.4-0.6,1.4-0.9,2.2c-5.1,0-10.2,0.1-15.4,0
		c-1.1,0-2.1-1-3.2-1.5c-1.5-0.7-1.2-3.2-3.2-3.5c0.6-1.7,0.8-3.5,1.8-4.9c1-1.6,2.4-3.3,4.1-4c4.2-1.8,3.8-5.1,4-8.7
		c0.4-5.4,1-10.9,2.3-16.1c0.6-2.3,1.7-5.2,4.6-6.4c1.5-0.6,2.8-1.8,4.1-2.8c1.1-0.9,1.8-1.6,3.7-1.2c2.1,0.4,4.7-1.3,7-1.3
		c1.9,0,4.1,0.7,5.7,1.8c4,2.8,7.8,6.1,11.8,9c0.8,0.5,2.2,0.1,3.3,0.2C107.1,48.5,110.9,47.4,114.4,49.5z M65.6,50
		c0.3,0.3,0.6,0.6,0.9,0.9c0.3-0.4,0.7-0.7,1-1.1c-0.3-0.3-0.6-0.6-0.9-0.8C66.2,49.3,65.9,49.6,65.6,50z"/>
	<path fill-rule="evenodd" clip-rule="evenodd" fill="#0E0E0E" d="M115.5,36.9c0-3.6,3.6-4.5,5.1-6.9c0.3,0.3,0.6,0.6,0.8,1
		c-0.2,0.6-0.4,1.2-0.6,1.8C119.1,34.1,117.3,35.5,115.5,36.9z"/>
	<path fill-rule="evenodd" clip-rule="evenodd" fill="#0C0C0C" d="M78,102.4c1.2,0.8,2.4,1.6,3.5,2.6c0.2,0.2-0.7,1.4-1.1,2.2
		C79.6,105.6,78.8,104,78,102.4z"/>
	<path fill-rule="evenodd" clip-rule="evenodd" fill="#0C0C0C" d="M115,60.8c0.6-2.4,1.3-4.8,1.9-7.2
		C118.4,56.6,116.9,58.7,115,60.8z"/>
	<path fill-rule="evenodd" clip-rule="evenodd" fill="#0C0C0C" d="M110.2,68c0.7-2.1,0.1-5.1,3.5-5.5
		C112.6,64.4,111.4,66.2,110.2,68z"/>
	<path fill-rule="evenodd" clip-rule="evenodd" fill="#111111" d="M105.4,34.5c-0.7,0-1.5,0-2.2,0c-0.6-1-1.2-2-1.8-3
		c0.6,0,1.1,0,1.7,0C103.8,32.6,104.6,33.5,105.4,34.5z"/>
	<path fill-rule="evenodd" clip-rule="evenodd" fill="#0D0C0C" d="M98.5,9.5c2.3,0.7,2.8,1.6,2.3,4.3c-0.8-0.6-1.7-1.2-2.6-1.9
		C98.3,11.1,98.4,10.3,98.5,9.5z"/>
	<path fill-rule="evenodd" clip-rule="evenodd" fill="#0C0C0C" d="M46.4,89.3c-0.7-0.2-1.4-0.4-2.1-0.6c0.3-0.2,0.6-0.4,0.9-0.6
		C45.6,88.5,46,88.9,46.4,89.3z"/>
	<path fill-rule="evenodd" clip-rule="evenodd" fill="#0E0E0E" d="M144.2,55.4c0,0.6-0.1,1.2-0.1,1.8
		C144.1,56.6,144.1,56,144.2,55.4z"/>
	<path fill-rule="evenodd" clip-rule="evenodd" fill="#0D0C0C" d="M120.9,32.8c0.2-0.6,0.4-1.2,0.6-1.8c0.2,0.5,0.4,0.9,0.6,1.4
		C121.7,32.5,121.3,32.6,120.9,32.8z"/>
	<path fill-rule="evenodd" clip-rule="evenodd" fill="#0D0C0C" d="M100.7,2.3c-0.6,0.4-1.2,0.8-1.8,1.3
		C99.5,3.2,100.1,2.7,100.7,2.3z"/>
	<path fill-rule="evenodd" clip-rule="evenodd" fill="#0C0C0C" d="M106.7,70.6c0.6-0.5,1.2-1,1.9-1.4
		C108,69.6,107.3,70.1,106.7,70.6z"/>
	<path fill-rule="evenodd" clip-rule="evenodd" fill="#0E0E0E" d="M142.3,61.2c-0.2,0.6-0.5,1.3-0.7,1.9
		C141.8,62.5,142.1,61.8,142.3,61.2z"/>
	<path fill-rule="evenodd" clip-rule="evenodd" fill="#0E0E0E" d="M79.8,111.8c-0.4,0-0.8,0-1.2,0C79,111.8,79.4,111.8,79.8,111.8z"
		/>
	<path fill-rule="evenodd" clip-rule="evenodd" fill="#0C0C0C" d="M107.1,104.4c0-0.3,0.1-0.6,0.1-0.9c0.2,0.2,0.5,0.5,0.7,0.7
		C107.7,104.3,107.4,104.4,107.1,104.4z"/>
	<path fill-rule="evenodd" clip-rule="evenodd" fill="#0C0C0C" d="M108.9,98.2c0-0.4,0.1-0.8,0.1-1.2C109,97.5,109,97.9,108.9,98.2z
		"/>
	<path fill-rule="evenodd" clip-rule="evenodd" fill="#0C0C0C" d="M74.8,94.1c0.1,0.4,0.2,0.8,0.3,1.2C75,94.9,74.9,94.5,74.8,94.1z
		"/>
	<path fill-rule="evenodd" clip-rule="evenodd" fill="#0E0E0E" d="M138.5,71c-0.3,0.6-0.5,1.1-0.8,1.7C138,72.1,138.3,71.5,138.5,71
		z"/>
	<path fill-rule="evenodd" clip-rule="evenodd" fill="#0C0C0C" d="M108.4,91.1c-0.3-0.2-0.6-0.4-1-0.7c0.3-0.2,0.5-0.4,0.8-0.5
		C108.3,90.3,108.3,90.7,108.4,91.1z"/>
	<path fill-rule="evenodd" clip-rule="evenodd" fill="#2DB7D7" d="M88.1,186c-1-0.2-2-0.5-3-0.7l0,0c-1-0.3-2-0.7-3-1
		c0-1.5,0-2.9,0-4.3c0-1.8,0.1-3.6,0.1-5.4c0.4-4,0.7-8,1.1-11.9c0-0.5,0.1-1.1,0.1-1.6c0.1-1.2,0.3-2.4,0.4-3.7c0-0.6,0-1.2,0-1.9
		c0-0.4,0-0.8,0-1.1c0-0.4,0-0.9,0-1.3c-0.2-2.6-0.3-5.1-0.5-7.7c0-0.4-0.1-0.8-0.1-1.2c0-0.6,0-1.1,0-1.7c0-0.6,0.1-1.2,0.1-1.8
		c-0.2-3-0.4-6-0.6-8.9c0-0.6,0-1.2,0-1.8c-0.2-1.6-0.4-3.1-0.5-4.7c0-0.2-0.1-0.4-0.1-0.6c-0.2-0.8-0.4-1.6-0.6-2.4
		c-0.1-0.2-0.2-0.4-0.2-0.7c-0.1-0.2-0.2-0.4-0.3-0.6l0,0c0-0.8-0.2-1.6,0-2.4c0.2-1,0.6-2.6,1.1-2.6c1.2-0.2,2.6,0.3,3.6,0.5
		c-0.7,4.9,0.2,9,2.3,12.9c0.1,0.2,0.2,0.4,0.3,0.6l0,0.2l0.2,0c0.5,0.1,0.9,0.2,1.4,0.3c0.2,0.8,0.3,1.5,0.5,2.3
		c0.1,0.2,0.2,0.5,0.3,0.7c0.1,0.1,0.2,0.3,0.3,0.4l0.1,0.1c0.2,0.2,0.3,0.4,0.5,0.6c0.8,0.6,1.7,1.2,2.5,1.8c0.6,2.4,2,2.9,4.2,2.1
		c0.8-0.3,1.8-0.1,2.6-0.3c2.1-0.3,3.9-1.2,4.1-3.5c0.3-3.3,0.1-6.7,0.3-10c0.3-5,0.6-9.9,1-14.9c0.3-0.1,0.5-0.2,0.8-0.2
		c0.5,0.9,1.3,1.8,1.5,2.8c1.4,6.4,3.4,12.8,3.9,19.4c0.3,4.8,3.7,7.8,4.6,12.1c0.1,0.4,0.6,0.8,0.5,1c-2.1,4.9,2.7,8.6,2.3,13.4
		c-0.4,4.8,0.4,9.7,0.8,14.5c0.5,4.7,1.2,9.4,1.8,14.1c-0.8,0.2-1.6,0.4-2.3,0.7c-0.2,0-0.4,0.1-0.6,0.1c-0.6,0.1-1.3,0.3-1.9,0.4
		c-0.8,0.1-1.5,0.1-2.3,0.2c-1.4,0-2.8,0-4.2-0.1c-1.6,0-3.2-0.1-4.7-0.1c-0.6,0-1.3,0-1.9,0c-1.1,0-2.2,0-3.3,0
		c-1.4-0.2-2.8-0.4-4.2-0.6l0,0c-1.8,0-3.6,0-5.4,0l0,0c-0.4,0-0.8,0.1-1.2,0.1c-0.1-0.2-0.3-0.2-0.5-0.2c-0.2-0.2-0.4-0.3-0.7-0.5
		c0,0-0.1-0.1-0.1-0.1c-0.2-0.2-0.3-0.4-0.5-0.6l0,0C88.5,186.3,88.3,186.1,88.1,186z"/>
	<path fill-rule="evenodd" clip-rule="evenodd" fill="#A87650" d="M156.9,69c-0.2,0.4-0.3,0.8-0.5,1.2c-0.4,1.4-0.8,2.8-1.2,4.2
		c-0.2,0.6-0.4,1.2-0.6,1.8c-1.1,2.8-2.2,5.6-3.3,8.4c-2,5.3-3.6,10.7-6.2,15.7c-2.5,4.7-6,8.9-9.1,13.3c-0.3,0.4-0.5,0.9-0.7,1.3
		c-0.9,2.2-2,4-4.3,5.3c-1.6,0.9-2.4,3.3-3.4,5.1c-1.7,3-4.4,5.6-4,9.5c0,0.3-0.4,0.6-0.9,1.2c-1.4-2.6-2.6-5.1-4-7.4
		c-1-1.6-2.2-3.1-3.2-4.7c-0.3-0.4-0.5-0.9-0.6-1.3c-0.2-1.8-0.1-3.6-0.4-5.3c-0.6-4.7,1.9-7.3,5.6-9.9c3.7-2.5,6.8-5.9,9.9-9.2
		c2-2.1,4.7-3.2,5.8-6.4c2.4-6.9,5.6-13.5,8.4-20.2c0.4-0.9,0.4-1.9,0.6-2.9c0.1-0.3,0.3-0.6,0.4-0.9c1.1-3.1,2.2-6.2,3.1-9.4
		c0.2-0.8-0.3-1.8-0.5-2.8c0-0.1,0.1-0.1,0.1-0.2c0-0.1-0.1-0.2-0.2-0.4c0.3-0.3,0.8-0.8,0.9-0.8c0.6,0.4,1.1,0.9,1.5,1.4
		c2.2,2.8,4.4,5.6,6.6,8.4c0.5,0.7,1,1.5,1.5,2.2l-0.1,0.1c0,0,0,0.2,0,0.2c-0.1,0.1-0.2,0.3-0.2,0.4l0.1,0c-0.1,0-0.2,0.1-0.3,0.1
		c-0.2,0.4-0.3,0.8-0.5,1.2C157,68.6,156.9,68.8,156.9,69z"/>
	<path fill-rule="evenodd" clip-rule="evenodd" fill="#A6754F" d="M70.8,112.7c1.1,0.8,2.2,1.6,3.3,2.4c0.3,0.4,0.6,0.7,0.8,1.1
		c-0.2,0.5-0.5,1-0.7,1.5c-0.4,0.3-0.7,0.5-1.1,0.8c-0.5,0.2-1,0.3-1.4,0.5c0.3,0.3,0.5,0.5,0.8,0.8c0.3-0.3,0.7-0.5,1-0.8
		c0.3-0.3,0.7-0.5,1-0.8c0.5,0.2,1,0.4,1.5,0.6c0.2-0.5,0.5-1.1,0.8-1.6c0.2,0.1,0.4,0.2,0.6,0.3c-0.1,1.4-0.2,2.8-0.3,4.1
		c-0.1,0.2-0.2,0.4-0.2,0.6c-0.4,0.4-0.8,0.8-1.3,1.2c-0.2,0.4-0.4,0.8-0.5,1.2c0,2-0.1,3.9-0.1,5.9c-0.2,2.2-0.3,4.4-0.5,6.6
		c-1.2-0.8-2.5-1.6-3.7-2.4c-0.2-0.2-0.3-0.3-0.5-0.5c-0.3-0.3-0.6-0.6-0.9-0.8c-0.1-0.4-0.3-0.7-0.4-1.1c-0.4-0.4-0.8-0.8-1.2-1.2
		c-0.1-0.7,0-1.4-0.3-2c-0.1-0.2-0.9-0.1-1.4-0.1c-0.5-0.1-1-0.3-1.5-0.4c-0.5-0.7-1-1.4-1.5-2.1c-0.5-0.5-1.1-1-1.6-1.5
		c0,0-0.1-0.2-0.1-0.2l-0.2,0c-0.1-0.2-0.2-0.3-0.4-0.4c0-0.2-0.1-0.3-0.3-0.4c-2.1-1.7-4.3-3.3-6.3-5.1c-4-3.5-8-7.1-12-10.6
		c-0.4-0.4-0.8-0.8-1.2-1.2c-1.5-1.5-3.7-2.8-4.4-4.6c-2.3-5.9-7.5-9.4-11-14.2c-0.7-1-1.9-1.7-2.8-2.5c-0.1-0.1-0.3-0.3-0.4-0.4
		l-0.1-0.2c-0.1-0.2-0.3-0.4-0.4-0.6c-2.5-2.1-4.8-4.5-7.6-6.2c-2.2-1.4-3.1-2.5-2.1-5.1c1.2-3,1.9-6.3,2.8-9.5
		c0.1,0.2,0.6,0.7,1,1.2c0.3,0.4,0.6,0.9,0.8,1.3c0.1,0.4,0.2,0.7,0.3,1.1c1.1,1.2,2.1,2.4,3.2,3.6c0.3,0.3,0.5,0.5,0.8,0.8
		c1.8,1.8,3.6,3.5,5.4,5.3c0.6,0.7,1.1,1.3,1.7,2c2.2,2.4,4.2,5,6.6,7.1c3.4,2.9,7.1,5.3,10.7,7.9c0.4,0.3,0.8,0.6,1.2,0.9
		c0,0,0,0,0,0c0.8,1,1.6,1.9,2.5,2.9c2,1.8,4,3.5,6.1,5.3c0,0.2,0,0.4,0.1,0.6c0.7,0.8,1.2,2,2.1,2.5c3.4,1.7,6.9,3.2,10.3,4.7
		C68.9,111.4,69.8,112.1,70.8,112.7z"/>
	<path fill-rule="evenodd" clip-rule="evenodd" fill="#A6764F" d="M86.5,104.2c0-0.4,0-0.7,0-1.1c-0.3-4.2-0.5-8.3-0.8-12.5
		c0-0.2,0.1-0.4,0.1-0.6c2.2-4.3,6-7.1,9.8-9.9c1.6-1.1,2.8-2.9,4.2-4.4c0.1-0.2,0.2-0.4,0.3-0.6c0.9,1.8,2.4,3.6,2.5,5.5
		c0.3,7.5,0.2,15,0.3,22.5c-3,3.3-6,6.7-9.5,10.5c3,0.3,5.2,2.6,7.4-0.1c0.9,4.8,1.9,9.7,0.6,14.6c-0.1,0.4-0.1,0.8-0.2,1.2
		c-0.4,1.3-0.7,2.6-1.1,3.9c-0.1-0.3-0.3-0.6-0.4-0.9c-1-0.5-2.1-1.1-3.1-1.6c-0.4-0.4-0.8-0.7-1.3-1.1c-0.6-0.2-1.1-0.5-1.7-0.7
		c-0.4-0.4-0.7-0.9-1.1-1.3c-0.7-2.2-1.9-4.4-2.1-6.6c-0.3-4.1-3.2-7.5-2.8-11.8C87.6,107.4,86.8,105.8,86.5,104.2z"/>
	<path fill-rule="evenodd" clip-rule="evenodd" fill="#A1734F" d="M163.2,42.9c2.4,1.5,2.1,5.1-0.9,7.1c-1.3,0.8-2.9,1.1-4.4,1.5
		c-0.4,0.1-1.2-0.2-1.2-0.4c-0.5-2.6-1.1-5.3-1.2-7.9c0-0.5,1.8-1.4,2.8-1.4c1.1,0,2.1,0.8,3.2,1.3C162,42.9,162.6,42.9,163.2,42.9z
		"/>
	<path fill-rule="evenodd" clip-rule="evenodd" fill="#0A0A0A" d="M92.4,127.4c0.4,0.4,0.7,0.9,1.1,1.3c0.6,0.2,1.1,0.5,1.7,0.7
		c0.4,0.4,0.8,0.7,1.3,1.1c1,0.5,2.1,1.1,3.1,1.6c0.1,0.3,0.3,0.6,0.4,0.9c0.2,0.5,0.3,1.1,0.5,1.6c-2.2,0.6-4.2,1.1-6.2,1.6
		c-0.8-0.6-1.7-1.2-2.5-1.8c-0.2-0.2-0.3-0.4-0.5-0.6c0,0-0.1-0.1-0.1-0.1c-0.1-0.2-0.2-0.3-0.3-0.4c-0.1-0.2-0.2-0.5-0.3-0.7
		c-0.2-0.8-0.3-1.5-0.5-2.3c-0.5-0.1-0.9-0.2-1.4-0.3c-0.1-0.1-0.2-0.2-0.3-0.3c-0.1-0.2-0.2-0.4-0.3-0.6c0.2-0.2,0.4-0.4,0.7-0.6
		c0.2-0.2,0.4-0.4,0.6-0.6C90.4,127.8,91.4,127.6,92.4,127.4z"/>
	<path fill-rule="evenodd" clip-rule="evenodd" fill="#A0714E" d="M10,64.8c-0.7,2.9-1.4,5.8-2.1,8.9c-3.6-1.8-2.5-4.7-2.2-7.1
		C5.9,65.1,7.2,63.8,10,64.8z"/>
	<path fill-rule="evenodd" clip-rule="evenodd" fill="#0D0C0C" d="M182.2,70.3c3.4,2.8,6.8,5.5,10.2,8.3c-1.3-0.2-2.9,0.1-3.8-0.6
		c-2.1-1.4-3.9-3.2-5.7-5C182.4,72.4,182.5,71.2,182.2,70.3z"/>
	<path fill-rule="evenodd" clip-rule="evenodd" fill="#080808" d="M83.4,160.9c0,0.5-0.1,1.1-0.1,1.6c-0.5-1.2-1.4-2.5-1.4-3.7
		c-0.2-3,0-6,0.1-9c0.3,0,0.7,0,1,0c0.3,1.1,0.5,2.1,0.8,3.2c0,0.4,0,0.9,0,1.3c0,0.4,0,0.8,0,1.1c0,0.6,0,1.2,0,1.9
		C83.7,158.5,83.6,159.7,83.4,160.9z"/>
	<path fill-rule="evenodd" clip-rule="evenodd" fill="#0A0A0A" d="M103.4,121.7c-0.5-2.6-1.1-5.3-1.8-8.7c1.3,0.6,2.7,0.9,2.7,1.3
		c0.2,2.5,0.1,5,0.1,7.5C104,121.7,103.7,121.7,103.4,121.7z"/>
	<path fill-rule="evenodd" clip-rule="evenodd" fill="#080808" d="M77.1,121.5c0.1-1.4,0.2-2.8,0.3-4.1c1-0.2,2-0.4,3-0.6
		c0.2,1.4,0.4,2.8,0.6,4.1l0,0c0.1,0.2,0.2,0.4,0.3,0.6c0.1,0.2,0.2,0.4,0.2,0.7c-0.8-0.6-1.6-1.2-2.5-1.8c-0.3,0.3-0.9,0.7-1.6,1.2
		C77.3,121.5,77.2,121.5,77.1,121.5z"/>
	<path fill-rule="evenodd" clip-rule="evenodd" fill="#080808" d="M106.6,188.2c1.6,0,3.2,0.1,4.7,0.1c0,0.2,0,0.4,0,0.5
		c-3.6,0.1-7.2,0.3-10.7,0.4c-0.2,0-0.4-0.6-0.6-0.9c0.4,0,0.9-0.1,1.3-0.1c1.1,0,2.2,0,3.3,0C105.3,188.1,106,188.2,106.6,188.2z"
		/>
	<path fill-rule="evenodd" clip-rule="evenodd" fill="#080808" d="M74.5,137c0.2-2.2,0.3-4.4,0.5-6.6c0.3-1.3,0.7-2.7,1-4
		c0.1,0,0.2,0,0.4,0c-0.2,3.5-0.5,7-0.8,10.5C75.5,137,74.9,137,74.5,137z"/>
	<path fill-rule="evenodd" clip-rule="evenodd" fill="#080808" d="M82.1,124.5c0,0.2,0.1,0.4,0.1,0.6c0.2,1.6,0.4,3.1,0.5,4.7
		c0,0.6,0,1.2,0,1.8c-0.1,1.5-0.2,2.9-0.3,4.6c-0.5-0.3-1.1-0.5-1.1-0.7c-0.2-3.1-0.3-6.2-0.3-9.3C81.1,125.7,81.7,125.1,82.1,124.5
		z"/>
	<path fill-rule="evenodd" clip-rule="evenodd" fill="#080808" d="M82.2,174.5c0,1.8-0.1,3.6-0.1,5.4c-0.4,1.4-0.8,2.7-1.2,4.1
		c-0.1,0-0.3,0-0.4-0.1c0.2-3.1,0.4-6.1,0.6-9.2C81.1,174.7,81.8,174.6,82.2,174.5z"/>
	<path fill-rule="evenodd" clip-rule="evenodd" fill="#0D0C0C" d="M173.5,73c-1.3,0-2.6,0-4.4,0c0.3-0.9,0.5-1.7,0.7-2.5
		c1.4,0.5,2.8,1.1,4.2,1.6C173.8,72.3,173.7,72.6,173.5,73z"/>
	<path fill-rule="evenodd" clip-rule="evenodd" fill="#0D0C0C" d="M128.1,4.1c1.6,0.8,3.1,1.6,4.7,2.4c0,0.2,0,0.5,0,0.7
		c-0.5,0.3-1.5,1-1.6,0.9C130.1,6.8,129.1,5.4,128.1,4.1z"/>
	<path fill-rule="evenodd" clip-rule="evenodd" fill="#0D0C0C" d="M105.4,34.5c-0.8-1-1.6-2-2.4-3c0.3-0.6,0.5-1.1,0.8-1.7
		c0.4,0.3,1,0.6,1.2,1c0.8,1.4,1.5,2.8,2.2,4.3C106.6,34.9,106,34.7,105.4,34.5L105.4,34.5z"/>
	<path fill-rule="evenodd" clip-rule="evenodd" fill="#080808" d="M83.3,140.6c0,0.6-0.1,1.2-0.1,1.8c0,0.6,0,1.1,0,1.7
		c0,0.4,0.1,0.8,0.1,1.2c-0.7-0.9-1.8-1.6-2-2.6C81.3,142.1,82.6,141.3,83.3,140.6z"/>
	<path fill-rule="evenodd" clip-rule="evenodd" fill="#0E0E0E" d="M158.1,35c1.1,0.6,2.2,1.3,3.3,1.9c-1.6,0-3.3,0-5.6,0
		C156.7,36.2,157.4,35.6,158.1,35z"/>
	<path fill-rule="evenodd" clip-rule="evenodd" fill="#080808" d="M75,183.4c0-1.6,0-3.2,0-4.8C77,180.3,77,181.8,75,183.4z"/>
	<path fill-rule="evenodd" clip-rule="evenodd" fill="#080808" d="M76.8,173.3c0-1.6,0-3.2,0-4.8C78.7,170.1,78.8,171.7,76.8,173.3z
		"/>
	<path fill-rule="evenodd" clip-rule="evenodd" fill="#080808" d="M85.2,185.2c0.5,0.4,1,0.7,1.5,1.1c0,0.1-0.1,0.3-0.1,0.4
		c-1.5-0.2-3-0.5-4.6-0.7c0-0.3,0-0.5,0.1-0.8C83.1,185.2,84.1,185.2,85.2,185.2L85.2,185.2z"/>
	<path fill-rule="evenodd" clip-rule="evenodd" fill="#080808" d="M97.1,188.2c-1.7,0.7-3.3,1.5-4.7-0.5c1.6-0.1,3.2-0.1,4.8-0.2
		l0,0C97.1,187.8,97.1,188,97.1,188.2z"/>
	<path fill-rule="evenodd" clip-rule="evenodd" fill="#080808" d="M115.5,188.3c0.8-0.1,1.5-0.1,2.3-0.2c0.4,0,0.9,0.1,1.3,0.1
		c-1.6,2.1-3.5,1.1-5.3,0.6C114.4,188.7,114.9,188.5,115.5,188.3z"/>
	<path fill-rule="evenodd" clip-rule="evenodd" fill="#0F0F0E" d="M158.2,66.5c-0.5-0.7-1-1.5-1.5-2.2c0.6,0,1.3,0,1.9,0
		C158.5,65.1,158.3,65.8,158.2,66.5z"/>
	<path fill-rule="evenodd" clip-rule="evenodd" fill="#0E0F0F" d="M117.1,192.6c0.9,0,1.9,0,2.8,0c0,0.2,0,0.3,0,0.5
		c-0.9,0-1.9,0-2.8,0C117.1,193,117.1,192.8,117.1,192.6z"/>
	<path fill-rule="evenodd" clip-rule="evenodd" fill="#0E0E0E" d="M66.2,129c0.5,0,1.3-0.1,1.4,0.1c0.2,0.6,0.2,1.3,0.3,2
		C67.3,130.4,66.7,129.7,66.2,129z"/>
	<path fill-rule="evenodd" clip-rule="evenodd" fill="#0A0A0A" d="M102.4,127.5c0-1.9,0.9-1.9,2-1.5c0.1,0.3,0.2,0.6,0.4,1
		C104,127.1,103.2,127.3,102.4,127.5L102.4,127.5z"/>
	<path fill-rule="evenodd" clip-rule="evenodd" fill="#0D0C0C" d="M133.1,22c0.2,0,0.4,0.2,0.3,0.4c0,0.3-0.1,0.5-0.1,0.8
		c-0.9,0-1.7-0.1-2.6-0.1c0-0.2-0.1-0.5-0.1-0.7C131.5,22.3,132.3,22.2,133.1,22z"/>
	<path fill-rule="evenodd" clip-rule="evenodd" fill="#0E0E0E" d="M150.8,45.7c-0.1-0.5-0.3-1-0.3-1.6c0-0.1,0.6-0.3,0.9-0.4
		c0.1,0.6,0.2,1.2,0.4,1.7C151.5,45.6,151.2,45.7,150.8,45.7z"/>
	<path fill-rule="evenodd" clip-rule="evenodd" fill="#0E0E0E" d="M13.1,66.5c-0.1,0.6-0.3,1.1-0.4,1.7c-0.3-0.1-0.9-0.3-0.9-0.4
		c0-0.5,0.2-1,0.4-1.5C12.4,66.4,12.7,66.4,13.1,66.5z"/>
	<path fill-rule="evenodd" clip-rule="evenodd" fill="#0E0F0F" d="M97.1,187.6c-1.6,0.1-3.2,0.1-4.8,0.2c-0.2,0-0.4-0.1-0.6-0.1
		C93.5,187.6,95.3,187.6,97.1,187.6z"/>
	<path fill-rule="evenodd" clip-rule="evenodd" fill="#080808" d="M76.8,167.4c-0.2-0.2-0.4-0.4-0.6-0.6c-0.2-0.4-0.4-0.8-0.6-1.2
		c0.5-0.1,1-0.2,1.5-0.3C77,166,76.9,166.7,76.8,167.4z"/>
	<path fill-rule="evenodd" clip-rule="evenodd" fill="#0D0C0C" d="M154.6,76.2c0.2-0.6,0.4-1.2,0.6-1.8c0.4,0.4,0.9,0.7,1.3,1.1
		C155.9,75.7,155.2,76,154.6,76.2z"/>
	<path fill-rule="evenodd" clip-rule="evenodd" fill="#0D0C0C" d="M148.3,39.9c-0.5-0.1-1-0.2-1.5-0.3c0.5-0.3,1-0.6,1.5-0.8
		C148.3,39.1,148.3,39.5,148.3,39.9z"/>
	<path fill-rule="evenodd" clip-rule="evenodd" fill="#080808" d="M76.8,140.6c-0.6-0.4-1.1-0.7-1.7-1.1c0.6,0,1.1-0.1,1.7-0.1
		C76.8,139.8,76.8,140.2,76.8,140.6z"/>
	<path fill-rule="evenodd" clip-rule="evenodd" fill="#0D0C0C" d="M130.5,128.1c0.3-0.6,0.6-1.1,1-1.7c0.2,0.1,0.4,0.2,0.6,0.3
		c-0.3,0.6-0.6,1.2-0.8,1.8C131,128.4,130.8,128.2,130.5,128.1z"/>
	<path fill-rule="evenodd" clip-rule="evenodd" fill="#0E0F0F" d="M115.5,188.3c-0.6,0.2-1.2,0.3-1.8,0.5c-0.8,0-1.6,0-2.4,0
		c0-0.2,0-0.4,0-0.5C112.7,188.3,114.1,188.3,115.5,188.3z"/>
	<path fill-rule="evenodd" clip-rule="evenodd" fill="#0E0F0F" d="M76.8,140.6c0-0.4,0-0.8,0-1.2c0.4,0.4,0.8,0.8,1.2,1.2
		c-0.2,0.4-0.4,0.8-0.6,1.2C77.2,141.3,77,141,76.8,140.6z"/>
	<path fill-rule="evenodd" clip-rule="evenodd" fill="#0D0C0C" d="M171.5,57.8c0.4,0.4,0.8,0.7,1.2,1.1c-0.5,0.1-0.9,0.2-1.4,0.4
		C171.4,58.8,171.4,58.3,171.5,57.8z"/>
	<path fill-rule="evenodd" clip-rule="evenodd" fill="#0D0C0C" d="M175.1,61.8c0.6,0.5,1.1,0.9,1.7,1.4
		C175,64.1,175.1,62.9,175.1,61.8z"/>
	<path fill-rule="evenodd" clip-rule="evenodd" fill="#0E0F0F" d="M97.1,188.2c0-0.2,0-0.4,0-0.6c1.4,0.2,2.8,0.4,4.2,0.6
		c-0.4,0-0.9,0.1-1.3,0.1C99.1,188.2,98.1,188.2,97.1,188.2z"/>
	<path fill-rule="evenodd" clip-rule="evenodd" fill="#0D0C0C" d="M155.9,56.6c0.3-0.1,0.6-0.4,0.7-0.3c0.2,0.2,0.4,0.5,0.5,0.8
		c0,0.1-0.4,0.3-0.5,0.4C156.4,57.3,156.2,57.1,155.9,56.6z"/>
	<path fill-rule="evenodd" clip-rule="evenodd" fill="#0E0E0E" d="M132.8,7.1c0-0.2,0-0.5,0-0.7c0.6,0,1.2,0.1,1.8,0.1
		C134,6.8,133.4,7,132.8,7.1z"/>
	<path fill-rule="evenodd" clip-rule="evenodd" fill="#0D0C0C" d="M101.2,17.5c-0.2,0.3-0.3,0.5-0.5,0.7c-0.2-0.2-0.5-0.4-0.6-0.7
		c0-0.1,0.3-0.5,0.5-0.5C100.8,17,101,17.3,101.2,17.5z"/>
	<path fill-rule="evenodd" clip-rule="evenodd" fill="#080808" d="M75.1,124.5c0.2-0.4,0.4-0.8,0.5-1.2c0.4,0.4,0.8,0.8,1.2,1.2l0,0
		C76.2,124.5,75.7,124.5,75.1,124.5z"/>
	<path fill-rule="evenodd" clip-rule="evenodd" fill="#0E0E0E" d="M133.4,23.2c0-0.3,0.1-0.5,0.1-0.8c0.3,0.7,0.6,1.3,1,2
		C134.1,24,133.7,23.6,133.4,23.2z"/>
	<path fill-rule="evenodd" clip-rule="evenodd" fill="#0F0F0E" d="M157.1,68.5c0.2-0.4,0.3-0.8,0.5-1.2c0.1,0,0.2-0.1,0.3-0.1
		c0,0-0.1,0-0.1,0c0.4,0.3,0.8,0.5,1.2,0.8c0,0.4,0,0.8,0,1.2c-0.4,0-0.8,0-1.2,0C157.6,68.9,157.4,68.7,157.1,68.5z"/>
	<path fill-rule="evenodd" clip-rule="evenodd" fill="#111111" d="M105.4,34.5c0.6,0.2,1.2,0.4,1.8,0.6c-0.2,0.3-0.4,0.6-0.5,0.9
		C106.2,35.6,105.8,35.1,105.4,34.5z"/>
	<path fill-rule="evenodd" clip-rule="evenodd" fill="#0E0E0E" d="M159.6,61.4c0.4,0.3,0.7,0.6,1.1,0.9c-0.1,0.1-0.2,0.3-0.3,0.4
		c-0.4-0.3-0.9-0.5-1.3-0.8C159.3,61.8,159.4,61.6,159.6,61.4z"/>
	<path fill-rule="evenodd" clip-rule="evenodd" fill="#0E0E0E" d="M41.3,107.1c0.4,0.4,0.8,0.8,1.2,1.2
		C41.9,108.1,40,109.1,41.3,107.1z"/>
	<path fill-rule="evenodd" clip-rule="evenodd" fill="#080808" d="M63.2,126.5c0.5,0.7,1,1.4,1.5,2.1
		C64.2,127.9,63.7,127.2,63.2,126.5z"/>
	<path fill-rule="evenodd" clip-rule="evenodd" fill="#0A0A0A" d="M101.1,129.2c0.1-0.4,0.1-0.8,0.2-1.2c0.4-0.2,0.8-0.4,1.1-0.6
		l0,0C102,128,101.6,128.6,101.1,129.2z"/>
	<path fill-rule="evenodd" clip-rule="evenodd" fill="#0D0C0C" d="M159,67.9c-0.4-0.3-0.8-0.5-1.2-0.8c0.1-0.1,0.1-0.3,0.2-0.4
		C158.4,67.1,158.7,67.5,159,67.9z"/>
	<path fill-rule="evenodd" clip-rule="evenodd" fill="#0E0E0E" d="M163.2,42.9c-0.6,0-1.2,0-1.8,0C162,42.9,162.6,42.9,163.2,42.9z"
		/>
	<path fill-rule="evenodd" clip-rule="evenodd" fill="#0E0E0E" d="M148.3,39.9c0-0.4,0-0.8,0-1.2c0.3,0.1,0.7,0.3,1,0.4
		C149,39.4,148.6,39.6,148.3,39.9z"/>
	<path fill-rule="evenodd" clip-rule="evenodd" fill="#0D0C0C" d="M167.3,53.6c0.2,0.2,0.4,0.4,0.6,0.6c-0.5,0.1-1,0.1-1.5,0.2
		C166.7,54.1,167,53.9,167.3,53.6z"/>
	<path fill-rule="evenodd" clip-rule="evenodd" fill="#0E0F0F" d="M75.6,165.6c0.2,0.4,0.4,0.8,0.6,1.2c-0.4-0.4-0.8-0.8-1.2-1.2
		C75.2,165.6,75.4,165.6,75.6,165.6z"/>
	<path fill-rule="evenodd" clip-rule="evenodd" fill="#0D0C0C" d="M107.4,37.7c0.1-0.2,0.1-0.4,0.2-0.5c0.1,0,0.3,0.1,0.5,0.2
		c-0.1,0.2-0.1,0.4-0.2,0.5C107.8,37.9,107.6,37.8,107.4,37.7z"/>
	<path fill-rule="evenodd" clip-rule="evenodd" fill="#080808" d="M69,132.2c0.1,0.4,0.3,0.7,0.4,1.1c-0.4-0.2-0.9-0.4-1.3-0.6
		C68.5,132.6,68.7,132.4,69,132.2z"/>
	<path fill-rule="evenodd" clip-rule="evenodd" fill="#080808" d="M77.4,141.7c0.2-0.4,0.4-0.8,0.6-1.2
		C77.8,141,77.6,141.3,77.4,141.7z"/>
	<path fill-rule="evenodd" clip-rule="evenodd" fill="#0D0C0C" d="M102,6.3c-0.2-0.1-0.4-0.1-0.5-0.2c0-0.1,0.1-0.3,0.2-0.5
		c0.2,0.1,0.4,0.1,0.5,0.2C102.2,6,102.1,6.2,102,6.3z"/>
	<path fill-rule="evenodd" clip-rule="evenodd" fill="#0D0C0C" d="M173.9,60.2c0.2,0.4,0.4,0.8,0.7,1.2c-0.4,0-0.8,0-1.2,0
		c0-0.2,0-0.4,0-0.6C173.5,60.6,173.7,60.4,173.9,60.2z"/>
	<path fill-rule="evenodd" clip-rule="evenodd" fill="#0D0C0C" d="M136.2,116.4c0.2,0.1,0.3,0.1,0.5,0.2c-0.1,0.2-0.1,0.4-0.2,0.5
		c-0.1,0-0.3-0.1-0.5-0.2C136.1,116.7,136.2,116.6,136.2,116.4z"/>
	<path fill-rule="evenodd" clip-rule="evenodd" fill="#0D0C0C" d="M117.1,2.8C117,3,117,3.2,116.9,3.3c-0.1,0-0.3-0.1-0.5-0.2
		c0.1-0.2,0.1-0.4,0.2-0.5C116.7,2.6,116.9,2.7,117.1,2.8z"/>
	<path fill-rule="evenodd" clip-rule="evenodd" fill="#0E0F0F" d="M120.3,187.6c0.8-0.2,1.6-0.4,2.3-0.7c0,0.2,0,0.4,0,0.7l0,0
		C121.9,187.6,121.1,187.6,120.3,187.6z"/>
	<path fill-rule="evenodd" clip-rule="evenodd" fill="#0D0C0C" d="M133.8,120.7c-0.1,0.2-0.1,0.4-0.2,0.5c-0.1,0-0.3-0.1-0.5-0.2
		c0.1-0.2,0.1-0.4,0.2-0.5C133.4,120.5,133.6,120.7,133.8,120.7z"/>
	<path fill-rule="evenodd" clip-rule="evenodd" fill="#0D0C0C" d="M100.9,22.2c0.1-0.2,0.1-0.4,0.2-0.5c0.1,0,0.3,0.1,0.5,0.2
		c-0.1,0.2-0.1,0.4-0.2,0.5C101.2,22.4,101,22.3,100.9,22.2z"/>
	<path fill-rule="evenodd" clip-rule="evenodd" fill="#080808" d="M76.8,124.5c0.3,0.2,0.6,0.5,0.9,0.7c-0.1,0.1-0.1,0.1-0.2,0.2
		C77.3,125.1,77.1,124.8,76.8,124.5L76.8,124.5z"/>
	<path fill-rule="evenodd" clip-rule="evenodd" fill="#0D0C0C" d="M164.7,52.8c-0.1,0.2-0.1,0.3-0.2,0.5c-0.2-0.1-0.4-0.1-0.5-0.2
		c0-0.1,0.1-0.3,0.2-0.5C164.4,52.7,164.6,52.8,164.7,52.8z"/>
	<path fill-rule="evenodd" clip-rule="evenodd" fill="#0E0E0E" d="M167.9,44.7c0.1,0.4,0.1,0.8,0.2,1.2
		C168,45.5,167.9,45.1,167.9,44.7z"/>
	<path fill-rule="evenodd" clip-rule="evenodd" fill="#0E0F0F" d="M119.1,188.2c-0.4,0-0.9-0.1-1.3-0.1c0.6-0.1,1.3-0.3,1.9-0.4
		C119.5,187.9,119.3,188.1,119.1,188.2z"/>
	<path fill-rule="evenodd" clip-rule="evenodd" fill="#0E0F0F" d="M90.5,187.7c0.4,0,0.8-0.1,1.2-0.1c-0.2,0.2-0.4,0.4-0.6,0.6
		c-0.2,0-0.4,0-0.6,0C90.5,188.1,90.5,187.9,90.5,187.7z"/>
	<path fill-rule="evenodd" clip-rule="evenodd" fill="#0E0E0E" d="M162.2,63.6c0.1,0,0.2,0,0.2,0.1c0,0.1,0,0.2-0.1,0.3
		c-0.1,0-0.2,0-0.2-0.1C162.1,63.7,162.2,63.6,162.2,63.6z"/>
	<path fill-rule="evenodd" clip-rule="evenodd" fill="#0E0E0E" d="M13.7,61.4c-0.1-0.2-0.3-0.4-0.4-0.6c0.1,0,0.1-0.1,0.2-0.1
		C13.6,60.8,13.6,61.1,13.7,61.4L13.7,61.4z"/>
	<path fill-rule="evenodd" clip-rule="evenodd" fill="#0E0E0E" d="M189,88.5c-0.2,0-0.2,0.1-0.3,0.1c0-0.1,0-0.1-0.1-0.2
		C188.7,88.4,188.9,88.4,189,88.5z"/>
	<path fill-rule="evenodd" clip-rule="evenodd" fill="#0E0E0E" d="M190.5,90c-0.2-0.1-0.5-0.2-0.7-0.3c0.1-0.1,0.2-0.2,0.2-0.2
		C190.2,89.6,190.4,89.8,190.5,90L190.5,90z"/>
	<path fill-rule="evenodd" clip-rule="evenodd" fill="#0E0E0E" d="M191.2,91.4c-0.2-0.5-0.5-1-0.7-1.5l0.1-0.1
		C190.8,90.4,191.1,90.9,191.2,91.4C191.3,91.4,191.2,91.4,191.2,91.4z"/>
	<path fill-rule="evenodd" clip-rule="evenodd" fill="#080808" d="M88.7,187c-0.2-0.2-0.4-0.4-0.6-0.6c0.2,0,0.4,0,0.6,0l0,0
		C88.7,186.6,88.7,186.8,88.7,187z"/>
	<path fill-rule="evenodd" clip-rule="evenodd" fill="#0E0F0F" d="M88.7,187c0-0.2,0-0.4,0-0.6c0.2,0.2,0.3,0.4,0.5,0.6
		C89.1,187,88.9,187,88.7,187z"/>
	<path fill-rule="evenodd" clip-rule="evenodd" fill="#0E0F0F" d="M89.3,187.1c0.2,0.2,0.4,0.3,0.7,0.5
		C89.8,187.4,89.6,187.3,89.3,187.1z"/>
	<path fill-rule="evenodd" clip-rule="evenodd" fill="#0E0E0E" d="M173.3,60.8c0,0.2,0,0.4,0,0.6C173.3,61.1,173.3,60.9,173.3,60.8z
		"/>
	<path fill-rule="evenodd" clip-rule="evenodd" fill="#0E0E0E" d="M13.7,61.3c0.1,0,0.2,0.1,0.2,0.1C13.9,61.4,13.8,61.4,13.7,61.3
		C13.7,61.4,13.7,61.3,13.7,61.3z"/>
	<path fill-rule="evenodd" clip-rule="evenodd" fill="#0E0E0E" d="M22.6,85.4c0.1,0.1,0.3,0.3,0.4,0.4
		C22.9,85.7,22.7,85.5,22.6,85.4z"/>
	<path fill-rule="evenodd" clip-rule="evenodd" fill="#080808" d="M122.7,187.6c0.1,0,0.2,0.1,0.2,0.1
		C122.9,187.7,122.8,187.7,122.7,187.6L122.7,187.6z"/>
	<path fill-rule="evenodd" clip-rule="evenodd" fill="#080808" d="M90.5,188.2c0.2,0,0.4,0,0.6,0C90.9,188.2,90.7,188.2,90.5,188.2z
		"/>
	<path fill-rule="evenodd" clip-rule="evenodd" fill="#0E0E0E" d="M22,84.6c0.1,0.2,0.3,0.4,0.4,0.6C22.3,85,22.2,84.8,22,84.6z"/>
	<path fill-rule="evenodd" clip-rule="evenodd" fill="#0E0E0E" d="M145.2,67.9c-0.1,0.3-0.3,0.6-0.4,0.9
		C144.9,68.5,145.1,68.2,145.2,67.9z"/>
	<path fill-rule="evenodd" clip-rule="evenodd" fill="#0E0F0F" d="M88.7,186.4c-0.2,0-0.4,0-0.6,0c0-0.2,0-0.3,0-0.5
		C88.3,186.1,88.5,186.3,88.7,186.4z"/>
	<path fill-rule="evenodd" clip-rule="evenodd" fill="#0E0E0E" d="M147.7,55.3c0.1,0.1,0.1,0.2,0.2,0.4c0,0-0.1,0.1-0.1,0.2
		C147.7,55.6,147.7,55.4,147.7,55.3z"/>
	<path fill-rule="evenodd" clip-rule="evenodd" fill="#0E0F0F" d="M77.1,121.5c0.1,0,0.2,0,0.3,0c-0.2,0.2-0.4,0.4-0.6,0.6
		C77,121.9,77,121.7,77.1,121.5z"/>
	<path fill-rule="evenodd" clip-rule="evenodd" fill="#0E0E0E" d="M60.7,124.1c0.2,0,0.3,0.2,0.3,0.4
		C60.9,124.3,60.8,124.2,60.7,124.1z"/>
	<polygon fill-rule="evenodd" clip-rule="evenodd" fill="#0E0E0E" points="61.4,124.8 61.6,124.8 61.6,125 	"/>
	<path fill-rule="evenodd" clip-rule="evenodd" fill="#080808" d="M70.3,134.1c0.2,0.2,0.3,0.3,0.5,0.5
		C70.6,134.5,70.5,134.3,70.3,134.1z"/>
	<path fill-rule="evenodd" clip-rule="evenodd" fill="#0C0C0C" d="M157.1,68.5c0.2,0.2,0.5,0.4,0.7,0.6c-0.3,0-0.6-0.1-0.9-0.1
		C156.9,68.8,157,68.6,157.1,68.5z"/>
	<path fill-rule="evenodd" clip-rule="evenodd" fill="#5D3928" d="M92.3,73.5c-2.1-1.4-3.8-0.3-5.4,0.8c-4.6,3-9.3,5.5-15.4,6
		c0-1.1-0.3-2.4,0.1-3.3c1.4-3.8,3.1-7.4,4.4-11.2c0.3-0.9-0.6-2.1-0.4-3.2c0-1.6,0.3-3.4-0.1-4.9c-0.9-3.6-2.1-7.2-3.4-11.3
		c2.4-1.3,4.9-2.7,7.5-4c0.4-0.2,1.3-0.2,1.6,0.1c2.5,1.9,4.9,3.8,7.3,5.8c2,1.7,3.8,3.7,6,5c1.3,0.8,3.2,0.7,4.8,0.7
		c4.6-0.1,9.3-0.3,13.9-0.5c-0.2,0.8-0.5,1.6-0.7,2.4c-0.6,1-1.2,2-1.9,3c-0.2,0.2-0.4,0.4-0.5,0.6c-0.4,0.6-0.8,1.2-1.3,1.8
		c-2.1,2.2-4.3,4.4-6.4,6.6c-1.1,0.8-2.1,1.5-3.2,2.3C96.9,71.3,94.6,72.4,92.3,73.5z"/>
	<path fill-rule="evenodd" clip-rule="evenodd" fill="#0C0C0C" d="M81,120.9c-0.2-1.4-0.4-2.8-0.6-4.1c0.6-1.4,1.1-2.9,1.7-4.3
		c0.3,0.1,0.5,0.1,0.8,0.2c0.1,0.7,0.2,1.3,0.3,2.2c2.2,0.3,3.3-0.5,3.2-2.9c-0.1-2.6,0-5.1,0.1-7.7c0.4,1.6,1.1,3.2,1,4.8
		c-0.3,4.3,2.5,7.7,2.8,11.8c0.2,2.3,1.4,4.4,2.1,6.6c-1,0.2-2,0.4-3.1,0.6c-0.2,0.2-0.4,0.4-0.6,0.6c-0.2,0.2-0.4,0.4-0.7,0.6
		c-2.1-3.9-2.9-8-2.3-12.9c-1-0.2-2.4-0.7-3.6-0.5c-0.5,0.1-0.9,1.7-1.1,2.6C80.9,119.3,81,120.1,81,120.9z"/>
	<path fill-rule="evenodd" clip-rule="evenodd" fill="#0C0C0C" d="M102.8,103c-0.1-7.5,0-15-0.3-22.5c-0.1-1.9-1.6-3.6-2.5-5.5
		c1-2,2-0.7,2.3,0.3c0.8,2.9,1.7,5.9,1.8,8.9c0.3,5.4,0.1,10.9,0,16.4C104.1,101.4,103.3,102.2,102.8,103z"/>
	<path fill-rule="evenodd" clip-rule="evenodd" fill="#0C0C0C" d="M99.8,75.6c-1.4,1.5-2.5,3.3-4.2,4.4c-3.9,2.7-7.6,5.5-9.8,9.9
		c-0.7-1.7-0.5-3.1,1-4.4c2.5-2.1,4.6-4.7,7.1-6.7C95.6,77.4,97.8,76.7,99.8,75.6z"/>
	<path fill-rule="evenodd" clip-rule="evenodd" fill="#0C0C0C" d="M85.7,90.5c0.3,4.2,0.5,8.3,0.8,12.5c-0.5-0.7-1.3-1.4-1.4-2.2
		c-0.3-3-0.3-6.1-0.4-9.2C84.6,91.3,85.3,90.9,85.7,90.5z"/>
	<path fill-rule="evenodd" clip-rule="evenodd" fill="#0C0C0C" d="M70.8,112.7c-1-0.6-1.9-1.3-2.9-1.9c0.7-0.3,1.4-0.6,2.2-1
		C70.3,110.8,70.6,111.7,70.8,112.7z"/>
	<path fill-rule="evenodd" clip-rule="evenodd" fill="#0C0C0C" d="M49.4,97.7c-0.8-1-1.6-1.9-2.5-2.9c1.1,0.4,2.2,0.7,3.3,1.1
		C50,96.5,49.7,97.1,49.4,97.7z"/>
	<path fill-rule="evenodd" clip-rule="evenodd" fill="#0C0C0C" d="M28.4,78.9c-0.6-0.7-1.1-1.3-1.7-2c0.6-0.4,1.2-0.8,1.8-1.2
		C28.5,76.9,28.5,77.9,28.4,78.9z"/>
	<path fill-rule="evenodd" clip-rule="evenodd" fill="#0E0F0F" d="M74.2,117.6c0.2-0.5,0.5-1,0.7-1.5c0.4,0,0.9,0,1.3,0
		c0.2,0.3,0.4,0.6,0.6,0.9c-0.3,0.5-0.5,1.1-0.8,1.6c-0.5-0.2-1-0.4-1.5-0.6C74.4,117.9,74.3,117.8,74.2,117.6z"/>
	<path fill-rule="evenodd" clip-rule="evenodd" fill="#0C0C0C" d="M99.2,70.2c1.1-0.8,2.1-1.5,3.2-2.3
		C101.4,68.6,100.3,69.4,99.2,70.2z"/>
	<path fill-rule="evenodd" clip-rule="evenodd" fill="#0C0C0C" d="M110.6,58.9c0.6-1,1.2-2,1.9-3C113.4,57.9,112.1,58.4,110.6,58.9z
		"/>
	<path fill-rule="evenodd" clip-rule="evenodd" fill="#0C0C0C" d="M108.8,61.3c0.4-0.6,0.8-1.2,1.3-1.8
		C111.3,61.3,109.8,61.1,108.8,61.3z"/>
	<path fill-rule="evenodd" clip-rule="evenodd" fill="#0C0C0C" d="M46.9,94.8c-0.4-0.3-0.8-0.6-1.2-0.9c0.2-0.5,0.4-0.9,0.6-1.4
		c0.2,0,0.4,0.1,0.6,0.1C46.9,93.4,46.9,94.1,46.9,94.8z"/>
	<path fill-rule="evenodd" clip-rule="evenodd" fill="#080808" d="M76.2,116.1c-0.4,0-0.9,0-1.3,0c-0.3-0.4-0.6-0.7-0.8-1.1
		C74.8,115.4,75.5,115.8,76.2,116.1z"/>
	<path fill-rule="evenodd" clip-rule="evenodd" fill="#0C0C0C" d="M17.3,67.3c-0.1-0.4-0.2-0.7-0.3-1.1c0.4,0.2,0.8,0.3,1.2,0.5
		C17.9,66.9,17.6,67.1,17.3,67.3z"/>
	<path fill-rule="evenodd" clip-rule="evenodd" fill="#0C0C0C" d="M55.5,103.6c0-0.2,0-0.4-0.1-0.6c0.2,0.1,0.5,0.2,0.7,0.3
		C55.9,103.4,55.7,103.5,55.5,103.6z"/>
	<path fill-rule="evenodd" clip-rule="evenodd" fill="#0C0C0C" d="M21.4,71.7c-0.3-0.3-0.5-0.5-0.8-0.8
		C20.8,71.2,21.1,71.5,21.4,71.7z"/>
	<path fill-rule="evenodd" clip-rule="evenodd" fill="#0D0D0D" d="M65.6,50c0.3-0.4,0.7-0.7,1-1.1c0.3,0.3,0.6,0.6,0.9,0.8
		c-0.3,0.4-0.7,0.7-1,1.1C66.2,50.6,65.9,50.3,65.6,50z"/>
	<path fill-rule="evenodd" clip-rule="evenodd" fill="#0C0C0C" d="M82.7,129.8c-0.2-1.6-0.4-3.1-0.5-4.7
		C82.3,126.7,82.5,128.3,82.7,129.8z"/>
	<path fill-rule="evenodd" clip-rule="evenodd" fill="#0C0C0C" d="M83.4,160.9c0.1-1.2,0.3-2.4,0.4-3.7
		C83.7,158.5,83.6,159.7,83.4,160.9z"/>
	<path fill-rule="evenodd" clip-rule="evenodd" fill="#0E0F0F" d="M106.6,188.2c-0.6,0-1.3,0-1.9,0
		C105.3,188.1,106,188.2,106.6,188.2z"/>
	<path fill-rule="evenodd" clip-rule="evenodd" fill="#0C0C0C" d="M90.1,130.5c0.2,0.8,0.3,1.5,0.5,2.3
		C90.4,132,90.2,131.2,90.1,130.5z"/>
	<path fill-rule="evenodd" clip-rule="evenodd" fill="#0C0C0C" d="M83.2,144.1c0-0.6,0-1.1,0-1.7C83.2,143,83.2,143.5,83.2,144.1z"
		/>
	<path fill-rule="evenodd" clip-rule="evenodd" fill="#0C0C0C" d="M83.8,155.4c0-0.4,0-0.8,0-1.1C83.8,154.7,83.8,155,83.8,155.4z"
		/>
	<path fill-rule="evenodd" clip-rule="evenodd" fill="#0C0C0C" d="M81.3,121.4c-0.1-0.2-0.2-0.4-0.3-0.6
		C81.1,121.1,81.2,121.2,81.3,121.4z"/>
	<path fill-rule="evenodd" clip-rule="evenodd" fill="#0C0C0C" d="M88.4,129.9c0.1,0.1,0.2,0.1,0.3,0.3l-0.2,0L88.4,129.9z"/>
	<path fill-rule="evenodd" clip-rule="evenodd" fill="#0E0F0F" d="M90.8,133.5c0.2,0.1,0.3,0.3,0.3,0.4
		C91,133.8,90.9,133.6,90.8,133.5z"/>
	<path fill-rule="evenodd" clip-rule="evenodd" fill="#0E0F0F" d="M91.2,134c0.2,0.2,0.3,0.4,0.5,0.6
		C91.5,134.4,91.4,134.2,91.2,134z"/>
	<path fill-rule="evenodd" clip-rule="evenodd" fill="#0C0C0C" d="M157.9,67.2c-0.1,0.1-0.2,0.1-0.3,0.1
		C157.7,67.2,157.8,67.2,157.9,67.2z"/>
	<path fill-rule="evenodd" clip-rule="evenodd" fill="#0E0F0F" d="M73.6,118.9c-0.3,0.3-0.7,0.5-1,0.8c-0.3-0.3-0.5-0.5-0.8-0.8
		c0.5-0.2,1-0.3,1.4-0.5C73.3,118.5,73.4,118.7,73.6,118.9z"/>
	<path fill-rule="evenodd" clip-rule="evenodd" fill="#0E0F0F" d="M74.6,118.1c-0.3,0.3-0.7,0.5-1,0.8c-0.1-0.2-0.3-0.3-0.4-0.5
		c0.4-0.3,0.7-0.5,1.1-0.8C74.3,117.8,74.4,117.9,74.6,118.1z"/>
	<path fill-rule="evenodd" clip-rule="evenodd" fill="#0C0C0C" d="M99.6,132.2c-1-0.5-2.1-1.1-3.1-1.6
		C97.5,131.1,98.6,131.6,99.6,132.2z"/>
	<path fill-rule="evenodd" clip-rule="evenodd" fill="#0E0F0F" d="M95.2,129.5c-0.6-0.2-1.1-0.5-1.7-0.7
		C94.1,129,94.6,129.2,95.2,129.5z"/>
	<path fill-rule="evenodd" clip-rule="evenodd" fill="#0E0F0F" d="M88.7,128.6c0.2-0.2,0.4-0.4,0.6-0.6
		C89.1,128.2,88.9,128.4,88.7,128.6z"/>
</g>
</svg>
