<?xml version="1.0" encoding="utf-8"?>
<!-- Generator: Adobe Illustrator 18.1.0, SVG Export Plug-In . SVG Version: 6.00 Build 0)  -->
<!DOCTYPE svg PUBLIC "-//W3C//DTD SVG 1.1//EN" "http://www.w3.org/Graphics/SVG/1.1/DTD/svg11.dtd">
<svg version="1.1" id="Layer_1" xmlns="http://www.w3.org/2000/svg" xmlns:xlink="http://www.w3.org/1999/xlink" x="0px" y="0px"
	 viewBox="1 0.7 34.1 34.1" enable-background="new 1 0.7 34.1 34.1" xml:space="preserve">
<g enable-background="new    ">
	<path fill="#010101" d="M32.8,9.2c1.5,2.6,2.3,5.5,2.3,8.6s-0.8,5.9-2.3,8.6c-1.5,2.6-3.6,4.7-6.2,6.2C24,34,21.1,34.8,18,34.8
		s-5.9-0.8-8.6-2.3c-2.6-1.5-4.7-3.6-6.2-6.2C1.8,23.7,1,20.8,1,17.7s0.8-5.9,2.3-8.6C4.8,6.6,6.9,4.5,9.5,3
		c2.6-1.5,5.5-2.3,8.6-2.3S24,1.5,26.6,3C29.2,4.5,31.3,6.6,32.8,9.2z M26.5,22.7c0-0.4-0.1-0.7-0.4-1l-4-4l4-4
		c0.3-0.3,0.4-0.6,0.4-1c0-0.4-0.1-0.7-0.4-1l-2-2c-0.3-0.3-0.6-0.4-1-0.4c-0.4,0-0.7,0.1-1,0.4l-4,4l-4-4c-0.3-0.3-0.6-0.4-1-0.4
		c-0.4,0-0.7,0.1-1,0.4l-2,2c-0.3,0.3-0.4,0.6-0.4,1c0,0.4,0.1,0.7,0.4,1l4,4l-4,4c-0.3,0.3-0.4,0.6-0.4,1c0,0.4,0.1,0.7,0.4,1l2,2
		c0.3,0.3,0.6,0.4,1,0.4c0.4,0,0.7-0.1,1-0.4l4-4l4,4c0.3,0.3,0.6,0.4,1,0.4c0.4,0,0.7-0.1,1-0.4l2-2C26.3,23.5,26.5,23.1,26.5,22.7
		z"/>
</g>
</svg>
