<?xml version="1.0" encoding="utf-8"?>
<!-- Generator: Adobe Illustrator 18.1.0, SVG Export Plug-In . SVG Version: 6.00 Build 0)  -->
<!DOCTYPE svg PUBLIC "-//W3C//DTD SVG 1.1//EN" "http://www.w3.org/Graphics/SVG/1.1/DTD/svg11.dtd">
<svg version="1.1" id="Layer_1" xmlns="http://www.w3.org/2000/svg" xmlns:xlink="http://www.w3.org/1999/xlink" x="0px" y="0px"
	 viewBox="0 0 857 114.9" enable-background="new 0 0 857 114.9" xml:space="preserve">
<g>
	<path fill-rule="evenodd" clip-rule="evenodd" fill="#030303" d="M645,52.8c0,17.8,0,35.6,0,53.4c-4.5,0.7-8.8,1.4-13.1,2.1
		c-0.1-33.1-0.3-66-0.4-99.2c2.4-0.3,4.8-0.6,7.2-0.9c0.9-0.1,1,0.6,1.3,1.2c3.3,7.4,6.6,14.8,9.7,22.2c3.7,8.7,7.1,17.4,10.7,26.1
		c0.8,1.9,1.8,3.7,2.9,5.5c0.6-17.7,0.5-35.4-1-53.3c4.8,0,9.5,0,14.4,0c0,0.5,0,1.1,0,1.8c0,7.2,0,14.4,0,21.6
		c0,2.8-0.2,5.6-0.2,8.4c0.2,17.1,0.3,34.3,0.5,51.4c0,3.2-0.1,6.5,0,9.7c0,0.9-0.3,1.3-1.2,1.5c-2.7,0.5-5.4,1.1-8.1,1.8
		c-1.1,0.3-1.4-0.1-1.8-1c-3.5-9.8-6.8-19.6-10.6-29.3c-2.9-7.6-6.5-14.9-9.7-22.4c-0.1-0.3-0.3-0.5-0.4-0.7
		C645.1,52.8,645.1,52.8,645,52.8z"/>
	<path fill-rule="evenodd" clip-rule="evenodd" fill="#030303" d="M122,110.1c0.3-34.4,0.7-68.6,1-102.8c1.7-0.1,3.2-0.4,4.7-0.4
		c5.5-0.2,11.1,0,16.5,1.5c9.7,2.6,17,8.1,21.2,17.5c3.3,7.3,3.1,14.7,1.8,22.3c-0.7,3.8-2.2,7.1-4.4,10.2c-0.7,1-1.7,1.7-2.6,2.5
		c-1.6,1.2-3.2,2.3-4.8,3.4c-1,0.6-1.1,1.2-0.7,2.1c2.6,5.8,5,11.6,7.7,17.3c3.1,6.4,6.5,12.6,9.7,19c0.1,0.2,0.3,0.5,0.5,1
		c-3.8,2.6-7.7,5.3-11.5,7.9c-0.6,0.4-1.1,0.3-1.5-0.4c-0.2-0.4-0.4-0.7-0.6-1.1c-3.1-7.2-6.2-14.4-9.2-21.7
		c-1.6-3.9-2.8-8-4.2-12.1c-0.5-1.5-1.1-3.1-1.7-4.6c-0.2-0.4-0.8-0.8-1.2-0.8c-1.7,0-3.4,0.3-5,0.4c-0.9,0-1.3,0.4-1.3,1.3
		c0,4.2,0,8.4,0,12.6c0.1,9.1,0.3,18.3,0.4,27.4c0,0.2-0.1,0.4-0.1,0.8C131.8,112.2,126.9,111.1,122,110.1z M135.8,56.5
		c4.4,0.4,8.3-0.4,11.7-2.7c2.9-1.9,5.1-4.5,6-7.9c1-4,0.7-8.1,0-12.1c-1.7-8.8-10.9-12.3-18.6-11.7C135.2,33.6,135.5,45,135.8,56.5
		z"/>
	<path fill-rule="evenodd" clip-rule="evenodd" fill="#030303" d="M101.8,110.8c-1.6-11.7-3.5-23.4-5.9-35.1c-2.6,0.7-4.9,1.4-7.2,2
		c-4,1-8.1,2-12.1,3c-0.5,0.1-1,0.6-1.2,1.1c-2.4,8.4-4.8,16.8-7.2,25.3c-0.7,2.6-1.7,5.1-2.6,7.8c-5.1-2.6-10-5.1-15.1-7.8
		c1.5-4.4,3.1-8.7,4.6-13.1c1.6-4.8,3-9.7,4.6-14.6c1.8-5.6,3.9-11,5.6-16.6c2.9-9.3,5.6-18.7,8.2-28.1c2.2-7.8,4.3-15.7,6.5-23.5
		c0.1-0.4,0.6-0.9,0.9-1c4.6-0.6,9.2-1.2,13.9-1.8c0.4,1.6,0.8,3.2,1.1,4.9c4.1,19.1,8.3,38.2,12.4,57.3c1.6,7.5,3.1,14.9,4.7,22.4
		c0.8,3.9,1.7,7.8,2.5,11.7c0.1,0.4-0.2,1.1-0.5,1.3C110.7,107.6,106.3,109.2,101.8,110.8z M92.7,60.4C91.1,51.2,89.6,42.1,88,33
		c-0.1,0-0.2,0-0.3,0c-2.7,10.2-5.5,20.4-8.3,30.7C83.9,62.6,88.1,61.6,92.7,60.4z"/>
	<path fill-rule="evenodd" clip-rule="evenodd" fill="#030303" d="M521,111.8c-1.1-2.5-2.1-4.9-3.1-7.3c-3.2-7.6-6.4-15.2-9.5-22.8
		c-1.3-3.1-2.6-6.3-3.8-9.5c-0.5-1.2-1.4-1.5-2.5-1.5c-0.4,0-0.8,0.1-1.3,0.1c-2.7,0.4-2.8,0.4-2.8,3c-0.2,10.5-0.3,21-0.5,31.4
		c0,1.8,0,3.6,0,5.7c-4.8,0-9.5,0-14.5,0c0-0.2,0-0.7,0-1.1c0.3-11.9,0.7-23.8,0.8-35.6c0.1-11,0-21.9,0-32.9c0-9.2,0-18.4,0-27.7
		c0-1.8-0.2-3.6-0.3-5.3c-0.1-1,0.3-1.6,1.4-1.6c4.7-0.1,9.4-0.3,14.2-0.3c3.7,0,7.1,1.2,10.3,2.9c6.5,3.4,10.9,8.6,14,15.1
		c2.2,4.6,3.7,9.4,3.6,14.6c-0.1,5.1-0.1,10.3-3.1,14.8c-1.6,2.5-3.5,4.9-5.3,7.2c-0.7,0.9-1.7,1.7-2.6,2.3c-1,0.6-0.9,1.3-0.5,2.2
		c1.7,3.7,3.3,7.3,4.9,11c3.2,7.2,6.3,14.5,9.5,21.7c0.6,1.4,1.5,2.7,2.3,4c0.5,0.8,0.5,1.3-0.3,1.8
		C528.4,106.6,524.8,109.1,521,111.8z M496.2,42.7c0.1,0,0.1,0,0.2,0c0,4.1,0,8.1,0,12.2c0,1.3,0.5,1.7,1.9,1.6
		c3.2-0.4,6.1-1.3,8.7-3.2c4.5-3.1,6.8-7.5,7.2-12.8c0.3-4.4-1-8.5-2.9-12.4c-1-2.2-2.5-4-4.8-4.9c-3.1-1.3-6.5-1.2-9.8-1.2
		c-1.1,0-1.4,0.5-1.4,1.6C495.7,29.9,496,36.3,496.2,42.7z"/>
	<path fill-rule="evenodd" clip-rule="evenodd" fill="#030303" d="M180,110.5c-0.4-34.3-0.8-68.4-1.1-102.9
		c3.7,0.4,7.5,0.5,11.1,1.2c3.9,0.8,7.8,1.8,11.5,3.4c4.9,2.1,8.9,5.5,12,9.8c3.2,4.5,6.3,9.1,8.3,14.4c2,5.4,3.1,11.1,3.6,16.8
		c0.2,2.7,0.6,5.3,0.7,8c0.5,8.2-0.6,16.2-2.4,24.1c-1.3,5.9-4.6,10.7-8.6,15c-3,3.3-6.4,5.8-10.6,7.6c-7.3,3.1-14.8,3-22.4,2.7
		C181.4,110.7,180.7,110.6,180,110.5z M193.8,93c1.1-0.2,1.9-0.3,2.6-0.4c4-0.7,7.5-2.5,9.9-5.7c5.2-6.9,6.7-15.1,6.8-23.4
		c0-4.3-0.6-8.7-1.3-13c-1.2-7.3-3.7-14-9.2-19.3c-2.9-2.8-6.3-4.3-10.4-5.3C192.8,48.4,193.3,70.7,193.8,93z"/>
	<path fill-rule="evenodd" clip-rule="evenodd" fill="#030303" d="M388.5,74.8c0-3.7,0-7.2,0-10.8c0.4,0,0.9-0.1,1.4-0.1
		c7.6-0.2,15.2-0.5,22.7-0.7c1.8-0.1,1.9,0.1,1.9,1.9c-0.1,8.4-0.1,16.8-0.1,25.1c0,6.6,0,13.3,0,20.1c-3.7,0.5-7.2,0.9-11.1,1.4
		c0-4.2,0-8.1,0-12.1c-0.1,0-0.2,0-0.3,0c-1,1.9-2,3.8-3,5.6c-1.6,2.9-4,4.6-7.3,5.1c-7.6,1.2-13.2-2-17.6-7.9
		c-5.1-7-7.7-15-8.7-23.6c-0.7-5.8-1-11.7-1.2-17.6c-0.3-8.4,1.4-16.5,2.9-24.7c0.8-4.5,2.2-8.7,4.1-12.8c2.4-5.1,5.7-9.6,10.8-12.3
		c3.8-2.1,7.9-2.6,12.2-2.2c4.2,0.4,7.3,2.3,10.1,5.4c4.5,5.1,6.6,11.1,7.9,17.6c0.4,2.1,0.6,4.3,0.9,6.6c-4.1,1-8,1.9-12,2.9
		c-0.4-1.5-0.9-2.9-1.1-4.3c-0.5-3.3-1.7-6.4-3.5-9.2c-0.9-1.5-2.3-2.9-3.9-3.7c-3.3-1.6-7.5,0.2-9.4,3.6c-2.7,4.8-4.3,10-4.8,15.4
		c-0.6,5.5-1.2,11-1.6,16.5c-0.5,7.7,0.2,15.4,2.2,22.8c0.8,2.9,2.4,5.6,3.9,8.2c1.6,2.6,4.4,3.4,7.3,2.5c0.8-0.3,1.6-1,2.2-1.6
		c2-2.4,3.4-5.1,4-8.2c0.4-2.3,0.9-4.6,1.3-6.9c0.3-1.7,0.1-1.7-1.5-1.7C394.5,74.8,391.6,74.8,388.5,74.8z"/>
	<path fill-rule="evenodd" clip-rule="evenodd" fill="#030303" d="M466,107.6c-1.9-9.9-3.8-19.8-5.7-29.8c-1.6,0.1-3.3,0.1-4.9,0.2
		c-4.7,0.3-9.3,0.7-14,1.1c-0.4,0-1.1,0.5-1.2,1c-2.3,8.7-4.6,17.4-6.9,26.2c-0.6,2.3-1.4,4.6-2.2,6.9c-3.7-1.5-7.3-2.9-10.9-4.3
		c-0.9-0.3-1.5-0.8-1.2-2c2.4-9.4,4.9-18.7,7.2-28.1c3.2-12.9,6.4-25.9,9.6-38.8c2.4-9.7,4.9-19.3,7.3-29c0.6-2.5,0.6-2.6,3.3-2.9
		c3.9-0.5,7.9-0.9,11.8-1.4c0.2,0,0.5,0,0.9,0c0.6,3.1,1.3,6.2,1.8,9.3c2.3,14,5.2,28,8.4,41.8c1.5,6.6,2.4,13.5,3.6,20.2
		c1.1,5.8,2.3,11.6,3.3,17.4c0.5,2.6,0.7,5.3,0.9,7.9c0,0.3-0.3,0.9-0.6,1C473.2,105.3,469.7,106.4,466,107.6z M457.9,64.3
		c-2-11.3-4-22.5-6-33.7c-0.1,0-0.2,0-0.3,0c-2.7,11.1-5.4,22.3-8.1,33.7C448.4,64.3,453,64.3,457.9,64.3z"/>
	<path fill-rule="evenodd" clip-rule="evenodd" fill="#030303" d="M536.5,9.8c0.6-0.2,1.1-0.4,1.6-0.4c5.1-0.2,10.2-0.3,15.1,1.7
		c1.7,0.7,3.5,1.2,5,2.1c4.6,2.5,8.3,6.1,11.3,10.5c3.2,4.8,6.1,9.8,7.7,15.4c1.2,4.5,2.3,9.1,2.8,13.7c0.6,5.5,0.7,11.1,0.6,16.7
		c-0.2,8.6-1.7,16.9-5.6,24.7c-3.2,6.3-8.1,10.5-14.5,13.4c-6.5,2.9-13.2,2.5-20,2.6c-1.1,0-1.4-0.4-1.4-1.5
		c-0.2-12.7-0.5-25.4-0.8-38c-0.5-18.6-1-37.2-1.5-55.9C536.7,13.1,536.6,11.5,536.5,9.8z M551.1,92.7c1.6-0.2,2.9-0.3,4.1-0.6
		c3.3-0.8,5.4-3.2,7.3-5.8c4.5-6.4,6.2-13.7,6.3-21.4c0.1-7.2-1.7-14.1-3.5-21c-1.5-5.7-4.7-10.5-9.5-14c-1.6-1.2-3.4-1.9-5.7-1.8
		C550.5,49.6,550.8,71,551.1,92.7z"/>
	<path fill-rule="evenodd" clip-rule="evenodd" fill="#030303" d="M682.9,89.1c4.7-1.9,9.3-3.8,14-5.8c1.3,2.5,2.7,4.8,3.6,7.3
		c0.9,2.5,5.2,3.8,7.2,3.3c4.5-1.2,6.5-4.6,5.3-9.2c-1.5-6.2-4.7-11.6-8.1-16.9c-3.7-5.6-7.7-11.1-11.2-16.8
		c-3.2-5.3-6.4-10.6-8.8-16.3c-2.2-5.3-2.3-11.1,0.2-16.5c1-2.1,2.1-4.2,3.5-6c5-6.7,17-8.2,23.9-4.3c4.6,2.6,8,6.4,9.9,11.4
		c1.2,3.3,2,6.7,3.1,10.4c-4.3,0.8-8.2,1.6-12.4,2.4c-0.5-1.9-1-3.6-1.4-5.3c-0.9-3.2-2.4-5.9-6.1-6.7c-4-0.8-8.1,2.2-8.6,6.3
		c-0.4,3.2,0.3,6.2,2.2,8.9c5.6,8.1,11.3,16.1,16.8,24.2c4.7,7.1,9.1,14.4,11.5,22.7c1.2,4,1.3,8-0.4,11.8c-1.2,2.8-2.5,5.6-4.2,8.1
		c-2.3,3.4-5.6,5.6-9.7,6.4c-0.9,0.2-1.7,0.5-2.6,0.7c-5.7,1.3-11.2,0.2-16.3-2.5c-1.1-0.6-1.9-1.7-2.8-2.5
		C687.3,100.3,685.2,94.8,682.9,89.1z"/>
	<path fill-rule="evenodd" clip-rule="evenodd" fill="#030303" d="M239.4,81.7c2.7,4.3,5.6,7.9,9.3,10.8c1.2,0.9,2.6,1.7,4.1,2.1
		c5.2,1.3,7.7-2.5,7.6-6.9c-0.1-3.2-1.3-6.2-3.1-8.8c-3.2-4.9-6.5-9.7-9.9-14.5c-3.5-4.9-7.2-9.6-10.8-14.4
		c-3.6-4.8-5.9-10.3-6.2-16.3c-0.3-7.1,1.1-13.9,6.9-18.8c3.2-2.7,7.1-4.1,11.3-4.4c3-0.2,6.1-0.2,9,1c4.4,1.8,7.8,4.7,10.3,8.7
		c1.6,2.6,3,5.5,4.6,8.2c0.4,0.8,0.3,1.3-0.5,1.7c-3.2,1.8-6.3,3.6-9.6,5.6c-0.4-0.7-0.6-1.2-1-1.7c-1.6-2.3-3.2-4.6-5-6.7
		c-1.3-1.5-3.1-2.1-5.1-2.4c-3.8-0.6-7,2.6-7.1,6.2c-0.2,4.5,1.8,8.4,4.3,11.9c2.6,3.7,5.4,7.3,8.1,11c2.8,3.8,5.8,7.5,8.4,11.4
		c2.8,4.2,5.5,8.5,7.8,13c3.2,6.6,3.9,13.5,1.3,20.5c-0.6,1.5-1.5,3.1-2.5,4.3c-1.9,2.2-3.6,4.8-6.7,5.8c-0.5,0.2-0.9,0.4-1.4,0.6
		c-4.2,2-8.6,1.9-13,1c-7.9-1.5-13-6.8-17.6-12.8c-1.1-1.5-2.2-3-3.2-4.6c-0.2-0.3-0.3-1.1,0-1.3C232.7,88.5,236,85.2,239.4,81.7z"
		/>
	<path fill-rule="evenodd" clip-rule="evenodd" fill="#030303" d="M31.8,34.9c9.7-10.2,18.4-21.3,27.1-32.8
		c3.2,3.8,6.3,7.6,9.5,11.4c-1,1.2-1.9,2.3-2.8,3.4c-4,4.7-8,9.4-12,14.1c-3.1,3.6-6.2,7.2-9.2,10.8c-2,2.3-4.1,4.6-6.1,7
		c-0.6,0.7-1.1,1.7-1.1,2.6c-0.7,14.4-1.2,28.9-0.6,43.4c0.2,5.4,0,10.8,0.1,16.1c0,1-0.4,1.2-1.3,1.1c-4-0.4-8-0.7-12-1.1
		c-0.4,0-0.8,0-1.1-0.1c-2.3-0.3-2.5-0.7-2.4-3c0.3-5.9,0.5-11.8,0.7-17.7c0.1-4.3,0.2-8.6,0.3-12.9c0.3-9.9,0.6-19.8,0.8-29.7
		c0-0.9-0.3-2-0.8-2.7c-3.5-4.5-7-8.9-10.6-13.3C6.9,27.3,3.4,22.9,0,18.6c3.1-4.3,6.2-8.6,9.4-13C16.9,15.5,24.3,25.1,31.8,34.9z"
		/>
	<path fill-rule="evenodd" clip-rule="evenodd" fill="#040404" d="M623.2,107.6c-12.5,0-24.7,0-37.2,0c-0.1-0.6-0.2-1.5-0.2-2.5
		c-0.1-9.1-0.1-18.2-0.1-27.2c-0.1-15.4-0.1-30.9-0.2-46.3c0-6.8-0.1-13.7-0.2-20.5c0-0.5,0-1,0-1.8c12.4-0.1,24.6-1.2,36.8-0.6
		c-0.2,5.1-0.3,10.1-0.5,15.2c-7.4,0.3-15.1,0.6-22.9,0.8c0,8.9,0,17.6,0,26.5c5.4,0,10.7,0,16.1,0c0,0.7,0.1,1.5,0.1,2.3
		c0,3.8-0.1,7.7-0.1,11.5c0,1.2-0.6,1.3-1.6,1.3c-5.2,0.2-10.4,0.4-15.9,0.7c0.2,8.2,0.4,16.5,0.6,25c8.2-0.2,16.1-0.4,24.1-0.6
		C622.5,96.5,622.9,101.8,623.2,107.6z"/>
	<path fill-rule="evenodd" clip-rule="evenodd" fill="#040404" d="M778.9,89.4c-0.5,3.3-0.8,6.5-1.4,9.7c-0.9,4.7-3.7,7.9-8.2,9.5
		c-3.4,1.2-6.8,2.2-10.6,1.2c-5.2-1.3-8.7-4.4-10.8-9.2c-2.7-6-2.7-12.3-1.6-18.7c0.7-3.9,2-7.5,4.9-10.3c3.5-3.5,7.8-5.3,12.7-4.7
		c7.6,1,12.2,5.5,13.7,13.1C778.2,83.2,778.5,86.3,778.9,89.4z M754.9,87.8c0.1,0,0.3,0.1,0.4,0.1c-0.1,2.5,0.3,4.9,1.4,7.2
		c2.1,4.6,8.2,4.6,10.6,1c0.7-1.1,1.3-2.4,1.6-3.7c0.8-4,0.1-7.8-1.4-11.5c-0.4-1-1.4-2-2.4-2.6c-3-1.7-6.7-0.4-8.2,2.9
		C756,83.4,755.6,85.6,754.9,87.8z"/>
	<path fill-rule="evenodd" clip-rule="evenodd" fill="#040404" d="M321.4,87.5c0.4-5.1,1.2-10,3.6-14.5c2.7-5,8.1-7.9,13.8-7.3
		c7.4,0.7,11.1,5.4,13.6,11.7c2.1,5.2,2.4,10.6,1.6,15.9c-1,6.7-4,12.4-10.7,15.4c-2.9,1.3-5.8,1-8.7,0.3
		c-6.1-1.5-9.8-5.7-11.5-11.5C322.3,94.2,322,90.8,321.4,87.5z M344.9,85.4c0.3-1.8-0.3-4-1.4-6c-1.1-1.9-2.7-3.2-4.9-3.2
		c-2.3,0.1-4.2,1-5.3,3.1c-2.2,4.1-2.1,8.5-1.1,12.9c0.6,2.7,2.7,4.3,5.4,4.7c2.6,0.4,4.3-1,5.7-3.1
		C344.8,91.5,344.9,88.7,344.9,85.4z"/>
	<path fill-rule="evenodd" clip-rule="evenodd" fill="#040404" d="M842,78.7c-2.5,1-4.9,1.9-7.3,2.9c-1-1.7-1.7-3.3-2.8-4.8
		c-1.7-2.2-5.4-2.4-7.1-0.4c-1.2,1.4-2.3,3.1-2.7,4.8c-1,4.3-1.2,8.7,0.6,12.8c0.7,1.7,2,3.3,3.4,4.5c0.7,0.6,2.3,0.6,3.4,0.4
		c2.4-0.5,4.2-3.1,3.9-5.5c-0.9-0.1-1.9-0.3-2.8-0.4c-0.9-0.1-1.9-0.1-3-0.1c0.2-2.3,0.4-4.5,0.7-6.9c5,0.8,9.8,1.6,14.9,2.5
		c0,6.8,0,13.6,0,20.5c-1.9,0.4-3.9,0.8-5.9,1.2c-0.6-1.7-1.2-3.3-1.8-5.1c-0.6,0.5-1,0.8-1.4,1.2c-5,4.9-12.8,2.5-16.6-1.9
		c-2.9-3.3-3.9-7.4-4.7-11.6c-1.3-6.9-0.3-13.5,2.5-19.9c4.4-9.8,16.5-9.1,21.5-4.3C839.5,71.3,841.3,74.7,842,78.7z"/>
	<path fill-rule="evenodd" clip-rule="evenodd" fill="#040404" d="M793.1,109.1c-3.4,0-6.5,0-9.7,0c0-13.9,0-28,0-42.1
		c6-0.5,11.8-1.1,17.3,1.4c4.3,2,6.7,5.3,7.1,10.1c0.3,3.5-0.6,6.4-3.3,8.7c-0.7,0.6-1.3,1.2-2.1,1.9c3,5.1,6.1,10.3,9.1,15.4
		c-2.4,1.4-4.9,2.7-7.3,4.1c-1.6-2.9-3.1-5.7-4.6-8.6c-1.3-2.3-2.6-4.7-3.7-7.1c-0.6-1.2-1.6-1.2-2.5-0.9c-0.4,0.1-0.7,1-0.7,1.5
		c0.1,4.7,0.2,9.4,0.3,14C793,107.9,793.1,108.4,793.1,109.1z M791.8,84.3c1.6-0.2,3.1-0.2,4.5-0.6c1.4-0.3,2.8-0.9,3.2-2.6
		c0.4-1.8,0.4-3.6-1.1-5.1c-1.9-1.9-4.3-1.4-6.6-1.5C791.8,77.8,791.8,80.9,791.8,84.3z"/>
	<path fill-rule="evenodd" clip-rule="evenodd" fill="#040404" d="M320.1,66c0,3.2,0,6.1,0,9.1c0,0.9-0.5,1.2-1.3,1.2
		c-2.8,0-5.5,0-8.3,0c-2.7,0-2.8,0.1-2.7,2.8c0.2,7.3,0.4,14.6,0.6,21.9c0,1.9,0,3.8,0,5.9c-3.6,0-7.1,0-10.7,0
		c0-10.2,0-20.2,0-30.5c-4,0-7.9,0-11.9,0c0-3,0-5.7,0-8.7C297.1,67.1,308.5,66.6,320.1,66z"/>
	<path fill-rule="evenodd" clip-rule="evenodd" fill="#739B3F" d="M309.8,3.8c3-0.7,5.9-1.5,8.9-2.2c1.8-0.5,3.6-0.9,5.4-1.4
		c1.7-0.4,2-0.2,1.9,1.4c-0.2,6.7-0.5,13.4-0.8,20.1c-0.1,3-0.2,6-0.3,9c-0.4,7.8-0.9,15.7-1.4,23.5c-0.1,1-0.1,2.1-0.1,3.1
		c0,0.8-0.3,1.2-1.1,1.2c-1.2,0-2.4,0.1-3.6,0.1c-1.1,0.1-0.9-0.9-1-1.5c-0.5-3.7-0.9-7.4-1.5-11.1c-2-13.3-4.1-26.6-6.1-39.9
		C309.9,5.4,309.9,4.7,309.8,3.8z"/>
	<path fill-rule="evenodd" clip-rule="evenodd" fill="#539241" d="M334,58.9c-1.9-0.7-3.7-1.2-5.4-1.9c-0.4-0.2-0.7-0.9-0.6-1.4
		c0.5-5,1.1-9.9,1.8-14.9c1.1-8.6,2.1-17.2,3.3-25.8c0.6-4.4,1.4-8.7,2.1-13.4c3.1,1.1,6.1,2.1,9,3.2c1,0.3,1.9,0.9,2.9,1.2
		c1.3,0.4,1.6,1.2,1.3,2.5c-1.1,3.8-2.2,7.7-3.2,11.5c-3.1,11-6.2,22.1-9.3,33.1C335.3,54.9,334.7,56.9,334,58.9z"/>
	<path fill-rule="evenodd" clip-rule="evenodd" fill="#EF553C" d="M815,58.7c-2.1,1-4.1,2-6.1,3c-0.9,0.4-1.3,0.3-1.8-0.5
		c-1.2-1.9-2.4-3.7-3.7-5.4c-6-8-17.8-5.7-22.1,1.7c-1.1,1.9-2.1,3.9-3.2,6.1c-2-1.1-4.1-2.2-6.1-3.4c-0.3-0.1-0.4-0.7-0.4-1.1
		c0.9-9.7,8.6-18.3,18.1-19.7c7.1-1.1,13.3,1.1,18.3,6.7C811.3,49.7,813.7,53.8,815,58.7z"/>
	<path fill-rule="evenodd" clip-rule="evenodd" fill="#C384A7" d="M773.2,39.7c-1.5,2.1-3.1,4.2-4.7,6.4
		C758.3,39.3,747,34.6,737,27.3c3.5-4.6,7-9.2,10.5-13.8C750.5,15,770.3,35.2,773.2,39.7z"/>
	<path fill-rule="evenodd" clip-rule="evenodd" fill="#F9A773" d="M811.7,39.7c7.8-9.1,15.5-18.1,23.4-27.3
		c4.7,4.5,8.4,9.6,12.2,14.8c-2.1,1.2-4.1,2.4-6.1,3.6c-7.4,4.2-14.9,8.4-22.3,12.6c-3.5,2-3.4,2-5.5-1.4
		C812.8,41.2,812.2,40.4,811.7,39.7z"/>
	<path fill-rule="evenodd" clip-rule="evenodd" fill="#F0E96D" d="M821.1,56c-0.1-0.2-0.6-0.6-0.6-1c-0.3-1.7-0.4-3.3-0.6-5
		c-0.1-0.8,0.2-1.1,0.9-1.4c5.2-2.3,10.4-4.6,15.6-7c4.9-2.3,9.7-4.6,14.5-7c1-0.5,1.4-0.3,1.7,0.8c1.4,5.2,2.9,10.4,4.2,15.6
		c0.4,1.6,0.2,1.9-1.5,2.1c-3.7,0.4-7.5,0.8-11.3,1.1c-7.4,0.6-14.8,1.1-22.2,1.7C821.7,56,821.6,56,821.1,56z"/>
	<path fill-rule="evenodd" clip-rule="evenodd" fill="#B9C433" d="M302,3.1c3.8,18.1,7.6,35.9,10.3,54.1c-1.5,0.3-3,0.8-4.6,1
		c-0.3,0-1-0.7-1.1-1.2c-1.6-5.6-3.1-11.3-4.8-16.9c-3-9.9-6.2-19.8-9.4-29.7c-0.3-0.9-0.2-1.3,0.6-1.8C296,7,298.8,5.1,302,3.1z"/>
	<path fill-rule="evenodd" clip-rule="evenodd" fill="#F9CC20" d="M734.9,38.9c6.8,2.3,13.1,4.5,19.4,6.7c3.7,1.3,7.4,2.6,11.1,3.8
		c1.3,0.4,1.8,0.9,1.3,2.4c-0.6,1.9-0.9,3.9-1.3,5.9c-0.1,0.7-0.4,1-1.2,1c-10.1-0.6-20.3-1.2-30.4-1.8c-0.2,0-0.5-0.1-0.9-0.1
		C733.6,50.9,734.2,45,734.9,38.9z"/>
	<path fill-rule="evenodd" clip-rule="evenodd" fill="#EE9F9E" d="M793,33.8c-1.3,0.1-2.5,0.2-3.8,0.3c-0.9,0.1-1.3-0.2-1.5-1.2
		c-1.5-9.8-3.1-19.5-4.4-29.3c-0.5-3.4-0.9-2.9,2.4-2.9c4.3-0.1,8.7-0.2,13-0.3c1.1,0,1.5,0.3,1.4,1.4c-0.5,4.4-1,8.9-1.5,13.4
		c-0.5,4.5-1.1,9-1.6,13.5c-0.2,1.5-0.3,3-0.6,4.4c-0.1,0.3-0.5,0.7-0.9,0.8C794.7,33.9,793.9,33.9,793,33.8
		C793,33.8,793,33.8,793,33.8z"/>
	<path fill-rule="evenodd" clip-rule="evenodd" fill="#FCDB67" d="M807.1,37.4c-1.7-1.2-3.4-2.3-5-3.6c-0.3-0.2-0.3-0.9-0.2-1.3
		c1.3-6,2.7-11.9,4.1-17.9c0.8-3.6,1.7-7.2,2.5-10.8c0.2-0.7,0.5-1.2,1.3-0.9c5.1,1.7,10.3,3.5,15.4,5.2c0.1,0,0.1,0.1,0.5,0.5
		C819.7,18.3,813.9,28.1,807.1,37.4z"/>
	<path fill-rule="evenodd" clip-rule="evenodd" fill="#83C444" d="M355.2,12.8c3.6,1.6,7.2,3.1,11,4.8
		c-7.8,14.5-15.5,28.7-23.4,43.2c-1-1-2.2-1.9-3.1-3c-0.3-0.3-0.1-1.1,0.1-1.6c1.6-4.7,3.2-9.5,4.9-14.2c3.4-9.5,6.7-19,10.1-28.6
		C354.8,13.3,354.9,13.2,355.2,12.8z"/>
	<path fill-rule="evenodd" clip-rule="evenodd" fill="#DBD56E" d="M759.3,7.6c4.9-2,9.6-3.9,14.7-5.9c1.1,3.3,2.2,6.4,3,9.5
		c2,7.4,4,14.9,6,22.3c0.2,0.8,0.2,1.2-0.7,1.6c-1.4,0.7-2.7,1.5-4,2.4c-0.8,0.6-1.4,0.5-1.9-0.4c-1.6-2.8-3.1-5.5-4.7-8.3
		C767.6,21.8,763.5,14.8,759.3,7.6z"/>
	<path fill-rule="evenodd" clip-rule="evenodd" fill="#3E6932" d="M298.7,60.3c-1.6-2.9-3.2-5.7-4.8-8.5
		c-4.8-8.7-9.6-17.5-14.4-26.2c-0.7-1.2-1.4-2.4-2.1-3.7c-0.1-0.3-0.1-0.9,0.1-1.1c2.9-2,5.8-4,8.9-6.1c0.3,0.7,0.6,1.2,0.8,1.7
		c2.6,7.1,5.2,14.2,7.9,21.3c2.1,5.7,4.3,11.4,6.4,17.1C302.8,58.4,302.5,58.9,298.7,60.3z"/>
	<path fill-rule="evenodd" clip-rule="evenodd" fill="#080808" d="M738.1,109.8c-1.9-0.9-3.7-1.9-5.6-2.8c-2.3-1.2-2.3-1.2-2-3.7
		c0.3-2.9,1.4-5.5,2.8-8c0.1-0.3,0.8-0.5,1.1-0.4c2.5,1.2,4.9,2.4,7.3,3.7c0.7,0.4,1,1,0.6,1.9C740.9,103.5,739.5,106.5,738.1,109.8
		z"/>
</g>
</svg>
