<?xml version="1.0" encoding="utf-8"?>
<!-- Generator: Adobe Illustrator 18.1.0, SVG Export Plug-In . SVG Version: 6.00 Build 0)  -->
<!DOCTYPE svg PUBLIC "-//W3C//DTD SVG 1.1//EN" "http://www.w3.org/Graphics/SVG/1.1/DTD/svg11.dtd">
<svg version="1.1" id="Layer_1" xmlns="http://www.w3.org/2000/svg" xmlns:xlink="http://www.w3.org/1999/xlink" x="0px" y="0px"
	 viewBox="0 0 112.4 40.4" enable-background="new 0 0 112.4 40.4" xml:space="preserve">
<g>
	<path fill-rule="evenodd" clip-rule="evenodd" fill="#040404" d="M84.6,31.4c-0.2,1.4-0.3,2.8-0.6,4.2c-0.4,2-1.6,3.4-3.6,4.1
		c-1.5,0.5-3,0.9-4.6,0.5c-2.3-0.6-3.8-1.9-4.7-4C70,33.7,70,31,70.5,28.2c0.3-1.7,0.9-3.2,2.1-4.5c1.5-1.5,3.4-2.3,5.5-2
		c3.3,0.4,5.3,2.4,5.9,5.7C84.3,28.7,84.4,30.1,84.6,31.4z M74.2,30.7c0.1,0,0.1,0,0.2,0c-0.1,1.1,0.1,2.1,0.6,3.1
		c0.9,2,3.5,2,4.6,0.4c0.3-0.5,0.6-1,0.7-1.6c0.3-1.7,0.1-3.4-0.6-5c-0.2-0.4-0.6-0.9-1-1.1c-1.3-0.7-2.9-0.2-3.5,1.3
		C74.7,28.8,74.5,29.8,74.2,30.7z"/>
	<path fill-rule="evenodd" clip-rule="evenodd" fill="#040404" d="M112,26.8c-1.1,0.4-2.1,0.8-3.2,1.2c-0.4-0.7-0.7-1.4-1.2-2.1
		c-0.7-0.9-2.3-1-3.1-0.2c-0.5,0.6-1,1.3-1.2,2.1c-0.4,1.9-0.5,3.8,0.2,5.6c0.3,0.7,0.9,1.4,1.5,1.9c0.3,0.3,1,0.3,1.5,0.2
		c1.1-0.2,1.8-1.3,1.7-2.4c-0.4-0.1-0.8-0.1-1.2-0.2c-0.4,0-0.8,0-1.3-0.1c0.1-1,0.2-1.9,0.3-3c2.2,0.4,4.3,0.7,6.5,1.1
		c0,2.9,0,5.9,0,8.9c-0.8,0.2-1.7,0.4-2.6,0.5c-0.3-0.7-0.5-1.4-0.8-2.2c-0.2,0.2-0.4,0.4-0.6,0.5c-2.2,2.1-5.5,1.1-7.2-0.8
		c-1.3-1.4-1.7-3.2-2-5c-0.6-3-0.1-5.8,1.1-8.6c1.9-4.2,7.1-3.9,9.3-1.9C110.9,23.6,111.6,25,112,26.8z"/>
	<path fill-rule="evenodd" clip-rule="evenodd" fill="#040404" d="M90.8,39.9c-1.5,0-2.8,0-4.2,0c0-6,0-12.1,0-18.2
		c2.6-0.2,5.1-0.5,7.5,0.6c1.9,0.9,2.9,2.3,3.1,4.4c0.1,1.5-0.3,2.8-1.4,3.8c-0.3,0.2-0.6,0.5-0.9,0.8c1.3,2.2,2.6,4.4,4,6.7
		c-1.1,0.6-2.1,1.2-3.1,1.8c-0.7-1.3-1.4-2.5-2-3.7c-0.5-1-1.1-2-1.6-3.1c-0.3-0.5-0.7-0.5-1.1-0.4c-0.2,0-0.3,0.4-0.3,0.6
		c0,2,0.1,4.1,0.1,6.1C90.7,39.4,90.7,39.6,90.8,39.9z M90.2,29.2c0.7-0.1,1.3-0.1,1.9-0.2c0.6-0.1,1.2-0.4,1.4-1.1
		c0.2-0.8,0.2-1.6-0.5-2.2c-0.8-0.8-1.8-0.6-2.9-0.7C90.2,26.4,90.2,27.7,90.2,29.2z"/>
	<path fill-rule="evenodd" clip-rule="evenodd" fill="#080808" d="M68.6,40.2c-0.8-0.4-1.6-0.8-2.4-1.2c-1-0.5-1-0.5-0.9-1.6
		c0.1-1.3,0.6-2.4,1.2-3.5c0.1-0.1,0.4-0.2,0.5-0.2c1.1,0.5,2.1,1.1,3.2,1.6c0.3,0.2,0.4,0.4,0.3,0.8C69.8,37.5,69.3,38.8,68.6,40.2
		z"/>
</g>
<g>
	<path fill-rule="evenodd" clip-rule="evenodd" fill="#C384A7" d="M96.2,18.5c-0.7,0.3-1.3,0.6-2,1c-0.3,0.1-0.4,0.1-0.6-0.2
		c-0.4-0.6-0.8-1.2-1.2-1.7c-1.9-2.5-5.7-1.8-7,0.5c-0.3,0.6-0.7,1.2-1,1.9c-0.6-0.4-1.3-0.7-1.9-1.1c-0.1,0-0.1-0.2-0.1-0.3
		c0.3-3.1,2.7-5.8,5.8-6.3c2.3-0.3,4.2,0.3,5.8,2.1C95,15.7,95.8,17,96.2,18.5z"/>
	<path fill-rule="evenodd" clip-rule="evenodd" fill="#B9C433" d="M82.9,12.5c-0.5,0.7-1,1.3-1.5,2c-3.3-2.1-6.8-3.6-10-6
		c1.1-1.5,2.2-2.9,3.3-4.4C75.7,4.6,82,11.1,82.9,12.5z"/>
	<path fill-rule="evenodd" clip-rule="evenodd" fill="#F9A773" d="M95.1,12.5c2.5-2.9,4.9-5.8,7.4-8.7c1.5,1.4,2.7,3,3.9,4.7
		c-0.7,0.4-1.3,0.8-1.9,1.1c-2.4,1.3-4.7,2.7-7.1,4c-1.1,0.6-1.1,0.6-1.7-0.4C95.5,13,95.3,12.7,95.1,12.5z"/>
	<path fill-rule="evenodd" clip-rule="evenodd" fill="#F0E96D" d="M98.1,17.7c0-0.1-0.2-0.2-0.2-0.3c-0.1-0.5-0.1-1.1-0.2-1.6
		c0-0.3,0.1-0.4,0.3-0.5c1.7-0.7,3.3-1.5,5-2.2c1.5-0.7,3.1-1.5,4.6-2.2c0.3-0.2,0.5-0.1,0.5,0.2c0.4,1.7,0.9,3.3,1.4,5
		c0.1,0.5,0.1,0.6-0.5,0.7c-1.2,0.1-2.4,0.3-3.6,0.4c-2.4,0.2-4.7,0.4-7.1,0.5C98.3,17.7,98.3,17.7,98.1,17.7z"/>
	<path fill-rule="evenodd" clip-rule="evenodd" fill="#3E6932" d="M70.7,12.3c2.1,0.7,4.2,1.4,6.2,2.1c1.2,0.4,2.4,0.8,3.5,1.2
		c0.4,0.1,0.6,0.3,0.4,0.8c-0.2,0.6-0.3,1.2-0.4,1.9c0,0.2-0.1,0.3-0.4,0.3c-3.2-0.2-6.4-0.4-9.7-0.6c-0.1,0-0.1,0-0.3,0
		C70.3,16.1,70.5,14.2,70.7,12.3z"/>
	<path fill-rule="evenodd" clip-rule="evenodd" fill="#EE9F9E" d="M89.2,10.6c-0.4,0-0.8,0.1-1.2,0.1c-0.3,0-0.4-0.1-0.5-0.4
		c-0.5-3.1-1-6.2-1.4-9.3c-0.1-1.1-0.3-0.9,0.8-0.9c1.4,0,2.8,0,4.2-0.1c0.4,0,0.5,0.1,0.4,0.5c-0.2,1.4-0.3,2.8-0.5,4.2
		c-0.2,1.4-0.3,2.9-0.5,4.3c-0.1,0.5-0.1,0.9-0.2,1.4c0,0.1-0.2,0.2-0.3,0.2C89.7,10.7,89.5,10.7,89.2,10.6
		C89.2,10.6,89.2,10.6,89.2,10.6z"/>
	<path fill-rule="evenodd" clip-rule="evenodd" fill="#FCDB67" d="M93.6,11.8c-0.5-0.4-1.1-0.7-1.6-1.1C92,10.6,92,10.4,92,10.2
		c0.4-1.9,0.9-3.8,1.3-5.7c0.3-1.1,0.5-2.3,0.8-3.4c0.1-0.2,0.1-0.4,0.4-0.3c1.6,0.6,3.3,1.1,4.9,1.7c0,0,0,0,0.1,0.1
		C97.7,5.7,95.8,8.8,93.6,11.8z"/>
	<path fill-rule="evenodd" clip-rule="evenodd" fill="#DBD56E" d="M78.5,2.3c1.6-0.6,3.1-1.2,4.7-1.9c0.3,1.1,0.7,2,1,3
		c0.7,2.4,1.3,4.7,1.9,7.1c0.1,0.3,0.1,0.4-0.2,0.5c-0.4,0.2-0.9,0.5-1.3,0.8c-0.3,0.2-0.4,0.2-0.6-0.1c-0.5-0.9-1-1.8-1.5-2.6
		C81.1,6.8,79.8,4.6,78.5,2.3z"/>
</g>
<path fill-rule="evenodd" clip-rule="evenodd" fill="#030303" d="M10.9,13.3C14.3,9.8,17.3,6,20.3,2c1.1,1.3,2.2,2.6,3.3,3.9
	c-0.3,0.4-0.7,0.8-1,1.2c-1.4,1.6-2.7,3.2-4.1,4.9c-1.1,1.2-2.1,2.5-3.2,3.7c-0.7,0.8-1.4,1.6-2.1,2.4c-0.2,0.2-0.4,0.6-0.4,0.9
	c-0.2,5-0.4,9.9-0.2,14.9c0.1,1.8,0,3.7,0,5.6c0,0.3-0.1,0.4-0.4,0.4c-1.4-0.1-2.8-0.2-4.1-0.4c-0.1,0-0.3,0-0.4,0
	c-0.8-0.1-0.8-0.2-0.8-1c0.1-2,0.2-4.1,0.2-6.1c0-1.5,0.1-3,0.1-4.4c0.1-3.4,0.2-6.8,0.3-10.2c0-0.3-0.1-0.7-0.3-0.9
	c-1.2-1.5-2.4-3.1-3.6-4.6c-1.2-1.5-2.4-3-3.6-4.4c1.1-1.5,2.1-3,3.2-4.5C5.8,6.6,8.4,9.9,10.9,13.3z"/>
<path fill-rule="evenodd" clip-rule="evenodd" fill="#030303" d="M52.3,26.5c0-1.4,0-2.7,0-4.1c0.2,0,0.3,0,0.5,0
	c2.9-0.1,5.7-0.2,8.6-0.3c0.7,0,0.7,0,0.7,0.7c0,3.2,0,6.3,0,9.5c0,2.5,0,5,0,7.6c-1.4,0.2-2.7,0.3-4.2,0.5c0-1.6,0-3.1,0-4.6
	c0,0-0.1,0-0.1,0c-0.4,0.7-0.7,1.4-1.1,2.1c-0.6,1.1-1.5,1.7-2.8,1.9c-2.9,0.5-5-0.7-6.6-3c-1.9-2.7-2.9-5.7-3.3-8.9
	c-0.3-2.2-0.4-4.4-0.4-6.7c-0.1-3.2,0.5-6.3,1.1-9.4c0.3-1.7,0.8-3.3,1.6-4.8c0.9-1.9,2.1-3.6,4.1-4.7c1.4-0.8,3-1,4.6-0.8
	c1.6,0.1,2.8,0.9,3.8,2c1.7,1.9,2.5,4.2,3,6.6c0.2,0.8,0.2,1.6,0.4,2.5c-1.5,0.4-3,0.7-4.6,1.1c-0.2-0.6-0.3-1.1-0.4-1.6
	c-0.2-1.3-0.7-2.4-1.3-3.5c-0.4-0.6-0.9-1.1-1.5-1.4c-1.3-0.6-2.8,0.1-3.6,1.4c-1,1.8-1.6,3.8-1.8,5.8c-0.2,2.1-0.5,4.2-0.6,6.2
	c-0.2,2.9,0.1,5.8,0.8,8.6c0.3,1.1,0.9,2.1,1.5,3.1c0.6,1,1.7,1.3,2.7,0.9c0.3-0.1,0.6-0.4,0.8-0.6c0.8-0.9,1.3-1.9,1.5-3.1
	c0.2-0.9,0.4-1.7,0.5-2.6c0.1-0.6,0-0.7-0.6-0.7C54.5,26.5,53.4,26.5,52.3,26.5z"/>
<path fill-rule="evenodd" clip-rule="evenodd" fill="#030303" d="M42.6,39.5c-0.4-0.5-0.3-4.5-0.7-6.2c-3.5,0.9-12.5,0.5-12.5,0.5
	c1.5-2,3-4.1,4.6-6c1.6-2,2.4-4,4.1-6c1.7-2,2.7-4.3,2.8-6.8c0.2-3,0.4-5.8-2.3-7.8c-1.5-1.1-3.3-1.7-5.2-1.9
	c-1.4-0.1-2.8-0.1-4.2,0.4c-2,0.8-3.6,2-4.8,3.6c-0.8,1.1-1.4,2.3-2.1,3.4c-0.2,0.3-0.1,0.5,0.2,0.7c1.5,0.8,2.9,1.5,4.4,2.3
	c0.2-0.3,0.3-0.5,0.5-0.7c0.8-0.9,1.5-1.9,2.3-2.8c0.6-0.6,1.4-0.9,2.3-1c1.8-0.3,3.2,1.1,3.3,2.6c0.1,1.9-0.8,3.5-2,5
	c-1.2,1.6-2.5,3.1-3.7,4.6c-1.3,1.6-2.2,3.1-3.5,4.8c-1.3,1.7-1.7,2.7-2.7,4.6c-1.5,2.7-1.7,3.5-0.5,6.4C23,39.3,43,40,42.6,39.5z"
	/>
</svg>
