<?xml version="1.0" encoding="utf-8"?>
<!-- Generator: Adobe Illustrator 18.1.0, SVG Export Plug-In . SVG Version: 6.00 Build 0)  -->
<!DOCTYPE svg PUBLIC "-//W3C//DTD SVG 1.1//EN" "http://www.w3.org/Graphics/SVG/1.1/DTD/svg11.dtd">
<svg version="1.1" id="Layer_1" xmlns="http://www.w3.org/2000/svg" xmlns:xlink="http://www.w3.org/1999/xlink" x="0px" y="0px"
	 viewBox="0 0 30.8 26.8" enable-background="new 0 0 30.8 26.8" xml:space="preserve">
<path fill-rule="evenodd" clip-rule="evenodd" fill="#3E6932" d="M30.8,19.2c0.2,3.4-0.2,4.1,0,7.6C20.3,26.6,10.6,26.5,0,26.3
	c0.2-1.2-0.2-4.1,0.1-5.3c0.1-0.3,0.6-0.5,0.9-0.6c3.2-0.7,6.3,0.4,9.5-0.2c6.4-1.2,13.4,0.1,19.8-1.1
	C30.5,19.1,30.6,19.1,30.8,19.2z"/>
<path fill-rule="evenodd" clip-rule="evenodd" fill="#739B3F" d="M0.2,16.8c-0.2-3.4,0.2-3.3,0-6.8c1.2,0,2.4,0,3.5,0.1
	c2.3,0,4.5-0.8,6.7-0.7c3.4,0.1,6.8,1,10.2,1c3.7,0.1,6.7-0.7,10.4-0.7c-0.2,1.2,0.2,4.1-0.1,5.3c-0.1,0.3-0.6,0.5-0.9,0.6
	c-3.2,0.7-6.3-0.4-9.5,0.2C14.1,17,7.1,15.6,0.7,16.9C0.6,16.9,0.5,16.8,0.2,16.8z"/>
<path fill-rule="evenodd" clip-rule="evenodd" fill="#83C444" d="M31,6.6c0.2-3.4-0.2-2.4,0-5.9c-1.2,0-2.4,0-3.5,0.1
	C25.2,0.8,23,0,20.8,0C17.4,0.1,14,0.1,10.6,0.2C6.9,0.2,3.9,0.3,0.2,0.4C0.4,1.5,0,3.6,0.3,4.8c0.1,0.3,0.6,1.3,0.9,1.4
	c3.2,0.7,6.3-1.2,9.5-0.6c6.4,1.2,13.4-0.1,19.8,1.1C30.6,6.7,30.8,6.6,31,6.6z"/>
</svg>
