<?xml version="1.0" encoding="utf-8"?>
<!-- Generator: Adobe Illustrator 18.1.0, SVG Export Plug-In . SVG Version: 6.00 Build 0)  -->
<!DOCTYPE svg PUBLIC "-//W3C//DTD SVG 1.1//EN" "http://www.w3.org/Graphics/SVG/1.1/DTD/svg11.dtd">
<svg version="1.1" id="Layer_1" xmlns="http://www.w3.org/2000/svg" xmlns:xlink="http://www.w3.org/1999/xlink" x="0px" y="0px"
	 viewBox="0 0 200 200" enable-background="new 0 0 200 200" xml:space="preserve">
<g>
	<path fill="#0B0C0C" d="M21.6,187c0-1.1,0-2.1,0-3.2c0-1.1,0-2.1,0-3.2c0-1.3,0-2.5,0-3.8c0.3-0.7,0.7-1.4,0.7-2.1
		c0.1-3.2,0.4-6.4,0.1-9.5c-0.4-5.2,1.5-8.9,5.8-11.7c1.4-0.9,2.4-1.6,3.7,0c1.6,1.8,2.8,0.6,3.8-0.8c0.6-0.8,1-1.9,1.4-2.8
		c5.4-11.3,11.2-22.4,16-33.9c2-4.8,2.4-10.4,2.8-15.7c0.5-5,0.1-10.1,0.1-15.2c0-2.5,0-4.9,0-7.5c-4.7,3.8-4.7,3.8-8.1-1.6
		c-0.1-0.1-0.1-0.2-0.2-0.3c-1.6-1.8-1.1-3.3,0.5-4.9c8.5-8.7,16.7-17.7,25.3-26.3c4.8-4.8,10.1-9.3,15.4-13.5
		c3.5-2.7,7.5-4.7,11.3-7c0.4-0.4,0.9-0.7,1.3-1.1c0.2,0,0.4,0,0.6,0c0.9,1.1,1.6,2.4,2.6,3.4c5,5,10.1,10,15.1,14.9
		c1.5,1.5,2.9,3.1,4.5,4.5c5.1,4.4,10.2,8.7,15.3,13.1c0.4,0.3,0.3,1.5,0,2.1c-0.8,1.5-1.8,2.8-2.5,3.9c12.1,0,24.1,0,36.6,0
		c-0.6,4.4-1.3,8.2-1.7,12.1c-1.5,13.7-2.8,27.3-4.2,41c-1,10.1-2.1,20.2-3.2,30.2c-0.3,3,0.6,5.5,2.3,8c1,1.5,1.9,3.5,1.9,5.2
		c0,9.4-0.2,18.8-0.5,28.2c0,1-1.2,2.7-2.2,2.9c-3.2,0.9-6.5,1.8-9.8,1.8c-13.7-0.1-27.5-0.8-41.2-0.8c-10.8,0-21.6,0.9-32.3,1.1
		c-18.7,0.3-37.4,0.4-56.1,0.5c-1.7,0-3.5-1.1-5.2-1.6c0-1.5,0-3,0-4.5C21.6,188.3,21.6,187.6,21.6,187z M141.7,70
		c-2.4-0.7-4.8-1.4-7.8-2.2c0.6,0.9,1,1.5,1.4,2.2c0,3.9-0.1,7.8,0,11.8c0.1,3-0.2,6.4,1,9c1.1,2.5,0.6,4.2-0.4,6.2
		c-3.1,6-6.3,11.9-9.2,17.9c-1,2.1-2.4,3.2-4.5,3.3c-9.2,0.2-18.2,2.2-27.5,1.6c-10.5-0.7-21-0.2-31.5-0.1c-1.5,0-3.6,0.7-4.3,1.8
		c-2.5,4.2-4.7,8.7-6.7,13.2c-2.3,5.1-4.4,10.3-6.6,15.5c-0.1,0.3-0.1,0.6-0.2,1c0.9-0.3,1.6-0.6,2.2-0.9c3,4.4,7.6,8,4.9,14.4
		c1.9,0,3.3,0,5.2,0c0-2.2-0.1-4.2,0-6.2c0.1-0.9,0.3-1.9,0.8-2.6c5.2-6.5,5.8-8.2,11,0.2c1.2,2,1.8,3.7,1.4,5.9
		c-0.5,2.8,1.6,2.9,3.3,3.2c2.2,0.4,1.8-1.4,2-2.7c0.2-1.7,0-4,1-5c2.2-2.2,5-3.8,7.8-5.8c1.9,4.4,6.6,7.5,5,13.1
		c2.1-0.3,3.8-0.6,5.8-1c-0.2-3.1-0.7-6.1,1.7-8.8c2.1-2.3,3.1-5.8,6.6-6.3c1.9,2.6,3.8,4.8,5.3,7.2c0.9,1.3,1.7,3,1.7,4.5
		c0.2,4.7,0.1,4.7,5.1,3.7c0-1.2-0.1-2.5,0-3.7c0.1-1,0.5-2.1,1.1-2.8c1.4-1.5,3.1-2.8,4.6-4.3c3.5-3.4,3.5-3.4,5.9,0.6
		c0.9,1.5,2,3,2.8,4.6c0.6,1.1,1.3,2.3,1.2,3.5c0,2.9,1.3,3.5,2.8,3.1c2.7-4.4,4.9-8.2,7.3-11.8c1.4-2.1,3-1.9,3.9,0.4
		c1.7,3.8,3.1,7.8,4.8,12.1c0.3,0,1.5,0.1,2.9,0.3c0-1.8,0.4-3.6-0.1-5.1c-0.9-2.5,0-4.2,1.5-6.1c0.9-1.2,1.3-2.8,1.6-4.3
		c0.3-1.9,0.1-4,0.4-5.9c0.7-4.9,1.6-9.7,2.3-14.5c2.1-14.3,4.1-28.6,6.2-42.9c0.9-6,1.8-12,2.7-17.9c-2.2-0.1-4.1-0.4-6-0.3
		c-6.2,0.4-12.5,0.9-18.7,1.3C143.1,70.6,142.4,70.2,141.7,70z M86.8,48.7c-5.5,5.6-10.6,10.6-15.7,15.7c-1.2,1.2-2.7,1.9-3.9,3.1
		c-1.5,1.6-4,2.4-3.6,5.4c1.6,11.9-0.9,23.6-2.1,35.3c-0.2,2-0.9,4.8,2.3,5.3c2.5,0.4,5,0.2,7.5,0c1.7-0.1,4.1-0.3,4.9-1.4
		c0.9-1.3,0.4-3.6,0.4-5.5c0-8.2,0-16.4,0-24.8c1.8-0.2,2.9-0.5,4-0.6c6.7-0.2,13.3-0.3,20-0.7c2.9-0.2,3.6,0.7,3.6,3.5
		c-0.1,9.8-0.1,19.6-0.1,29.9c0.2,0,1.2,0.5,2.2,0.5c3.1,0.1,6.3,0.2,9.4-0.2c1.1-0.1,2.8-1.5,3-2.5c0.3-2-0.3-4-0.5-6.1
		c-0.6-6.9-1.3-13.8-1.8-20.7c-0.2-2.7-0.3-5.5-0.6-8.2c-0.1-0.9-0.4-2.1-1.1-2.7c-2.8-2.9-5.7-5.7-8.7-8.3c-3.2-2.8-6.7-5.2-9.8-8
		C93,55.2,90.2,52.1,86.8,48.7z M120.2,71.5c4.7-3.1,8.7-6.3,10.8-11.3c0.3-0.8,0.3-2.4-0.3-2.9c-3.5-3.5-7-7.1-10.8-10.2
		c-5.4-4.5-11.2-8.6-16.6-13c-1.7-1.3-3.1-1.5-4.9-0.5c-1.9,1-4,1.8-5.9,2.9c-1.6,1-3.6,2.3-2.3,4.5c1.2,2,2.8,3.9,4.6,5.5
		c2.5,2.2,5.7,3.6,7.9,5.9C108.6,58.5,114.2,64.9,120.2,71.5z M96.8,86.5c-2.8-0.2-5.7-0.5-8.6-0.7c-1.8-0.1-3,0.6-3,2.8
		c0,3-0.1,6.1-0.2,9.1c-0.1,4.1-0.4,8.2-0.3,12.3c0,0.7,1.2,1.9,1.9,2c2.2,0.2,4.4,0.1,6.6,0c3.8-0.1,4.4-0.6,4.5-4.6
		c0-1.1,0.1-2.1,0-3.2C97.5,98.4,97.2,92.7,96.8,86.5z M103.4,154.3c-3.5,3.3-3.7,3.3-3.7,7.6c-0.1,6.9-0.1,13.8,0,20.7
		c0,4.6,0.1,4.6,4.5,3.8c0.7-0.1,1.4-0.2,2.7-0.3c0-7.9-0.2-15.6,0.1-23.2C107,159.5,106.2,156.7,103.4,154.3z M124.1,155.9
		c-3.1,1.4-2.7,4.3-3,7c-1,8.2-0.2,16.4,0.3,24.9c2.6-0.2,4.7-0.4,6.9-0.5c0-6.7,0.3-13.1-0.1-19.4
		C127.8,163.6,129.2,158.7,124.1,155.9z M63.8,155.3c-0.8,2.2-1.9,3.9-2.2,5.7c-0.5,2.9-0.5,5.9-0.6,8.9c-0.1,6,0,12,0,18.6
		c2.3-0.2,4.7-0.5,6.5-0.7c0-8.2-0.4-15.6,0.2-23C68,161.2,67.2,158.5,63.8,155.3z M44.6,188c1.9-0.6,3.4-1,5.3-1.5
		c0-8.7,0.1-17.1-0.1-25.6c0-2-1.1-4-1.6-6c-0.4,0-0.9,0-1.3,0c-0.7,1.4-2.1,2.8-2.1,4.1C44.5,168.4,44.6,177.8,44.6,188z M86,187.7
		c0-9.1,0.1-17.8-0.1-26.5c0-1.5-0.7-2.9-1.2-4.5c-4.2,2.3-5.3,5.1-4.8,9c0.4,3.5,0.1,7.2,0,10.7c-0.1,3.7-0.4,7.3-0.6,11.2
		C81.7,187.7,83.6,187.7,86,187.7z M163.4,186.9c0-8.5-0.2-16.8,0.1-25.1c0.1-2.9-0.5-4.6-2.7-5.9c-3.3,2-3,5-3,8.1
		c0.1,7.5,0,14.9,0,22.5c0.7,0.1,1.4,0.3,2.1,0.4C161,186.9,162,186.9,163.4,186.9z M143.5,157.7c-4.9,9.3-3.3,19.2-3.5,29.1
		c1.4,0.2,2.6,0.4,3.7,0.5c0.4,0,0.8,0,2.4,0C144.1,177.4,147.4,167.5,143.5,157.7z M33,187.8c0-8-0.1-15.8,0.1-23.6
		c0.1-2.9-0.1-5.4-4-7.1c-0.2,1.7-0.5,3.2-0.6,4.7c-0.3,7.8-0.5,15.6-0.8,23.4c-0.1,2.2,0.6,3.2,2.9,2.9
		C31.4,188,32.3,187.9,33,187.8z M116.6,187.2c0-5,0-10,0-15.1c-1.8,0-3.5,0-5.3,0c0,3.7-0.1,7.3,0,10.9
		C111.5,187.3,111.6,187.3,116.6,187.2z M95.3,172.4c-1.6-0.1-2.9-0.3-4.6-0.4c0,5.3,0,10.3,0,15.3c1.6,0,3.1,0,4.6,0
		C95.3,182.4,95.3,177.6,95.3,172.4z M52.6,180.7c0.1,0,0.1,0,0.2,0c0,1.7-0.2,3.4,0.1,5.1c0.2,1,1,2,1.5,3c1-1,2.7-1.9,2.8-2.9
		c0.4-3.4,0-6.9,0.1-10.4c0.1-2-1-2.2-2.5-2.3c-1.8-0.2-2.2,0.8-2.2,2.2C52.6,177.1,52.6,178.9,52.6,180.7z M132.2,173.8
		c0,4-0.1,7.8,0.1,11.6c0,0.8,1.4,1.5,2.1,2.3c0.8-0.8,2.1-1.5,2.2-2.3c0.3-2.6,0.1-5.3,0.1-7.9
		C136.7,173.5,136.7,173.5,132.2,173.8z M71.3,187.5c3.6,0.3,4.2-0.2,4-3.5c-0.1-2.4-0.5-4.8-0.3-7.2c0.2-2.9-1.2-3.4-3.7-3
		C71.3,178.4,71.3,182.9,71.3,187.5z M153,187.8c0-4.5,0-8.8,0-13.2c-2.4-0.8-3.6-0.1-3.6,2.6c0.1,2.6,0.1,5.3-0.1,7.9
		C149.1,188,150.4,188.4,153,187.8z M40.1,187.6c0-4.5-0.1-8.8,0-13c0.1-2.5-1.1-2.5-3-2c0,3.6,0.2,7.2-0.1,10.7
		C36.8,185.6,37.5,186.9,40.1,187.6z M132.3,170.1c1.5,0,2.8,0,4.3,0c0.1-1,0.1-1.9,0.2-2.9c-1.6,0-3,0-4.5,0
		C132.3,168.2,132.3,169.1,132.3,170.1z M35.3,168.4c5.3-0.2,5.3-0.2,5-2.5C38.7,166.9,35.7,164.2,35.3,168.4z M96.3,166.3
		c-2,0.4-3.3,0.5-4.6,0.9c-0.4,0.1-0.5,1.1-0.8,1.7c1.4,0,2.9,0.2,4.3-0.1C95.6,168.8,95.8,167.5,96.3,166.3z M71.3,166.9
		c-1,4.6,2.3,2.6,4.1,3.3c0-1.1,0-1.9,0-2.6C74.1,167.4,72.8,167.2,71.3,166.9z"/>
	<path fill-rule="evenodd" clip-rule="evenodd" fill="#212121" d="M21.6,180.6c0,1.1,0,2.1,0,3.2C21.6,182.8,21.6,181.7,21.6,180.6z
		"/>
	<path fill-rule="evenodd" clip-rule="evenodd" fill="#FAFAFA" d="M100.4,24.1c0-0.4,0-0.7,0-1.1c0.4,0,0.8,0,1.3,0
		C101.3,23.3,100.9,23.7,100.4,24.1z"/>
	<path fill-rule="evenodd" clip-rule="evenodd" fill="#212121" d="M21.6,187c0,0.6,0,1.3,0,1.9C21.6,188.3,21.6,187.6,21.6,187z"/>
	<path fill-rule="evenodd" clip-rule="evenodd" fill="#41A748" d="M141.7,70c0.7,0.2,1.4,0.6,2,0.5c6.2-0.4,12.5-0.9,18.7-1.3
		c1.9-0.1,3.8,0.2,6,0.3c-0.9,5.9-1.9,11.9-2.7,17.9c-2.1,14.3-4.1,28.6-6.2,42.9c-0.7,4.9-1.6,9.7-2.3,14.5c-0.3,2-0.1,4-0.4,5.9
		c-0.2,1.5-0.7,3.1-1.6,4.3c-1.4,1.9-2.4,3.5-1.5,6.1c0.5,1.5,0.1,3.3,0.1,5.1c-1.5-0.2-2.6-0.3-2.9-0.3c-1.7-4.3-3.1-8.3-4.8-12.1
		c-1-2.3-2.6-2.5-3.9-0.4c-2.5,3.6-4.6,7.4-7.3,11.8c-1.5,0.4-2.9-0.2-2.8-3.1c0-1.2-0.7-2.4-1.2-3.5c-0.8-1.6-1.9-3-2.8-4.6
		c-2.4-4-2.3-4-5.9-0.6c-1.5,1.5-3.2,2.7-4.6,4.3c-0.6,0.7-1,1.8-1.1,2.8c-0.2,1.2,0,2.5,0,3.7c-5,1-4.9,0.9-5.1-3.7
		c-0.1-1.5-0.9-3.2-1.7-4.5c-1.5-2.4-3.4-4.6-5.3-7.2c-3.5,0.5-4.5,3.9-6.6,6.3c-2.4,2.7-1.9,5.7-1.7,8.8c-2,0.3-3.7,0.6-5.8,1
		c1.6-5.6-3-8.7-5-13.1c-2.8,2-5.7,3.6-7.8,5.8c-1,1-0.8,3.3-1,5c-0.2,1.3,0.3,3.1-2,2.7c-1.7-0.3-3.8-0.4-3.3-3.2
		c0.4-2.1-0.2-3.9-1.4-5.9c-5.2-8.4-5.7-6.7-11-0.2c-0.5,0.7-0.8,1.7-0.8,2.6c-0.1,2,0,4,0,6.2c-1.8,0-3.2,0-5.2,0
		c2.7-6.4-1.9-9.9-4.9-14.4c-0.6,0.2-1.4,0.5-2.2,0.9c0.1-0.5,0.1-0.8,0.2-1c2.2-5.2,4.2-10.4,6.6-15.5c2-4.5,4.2-9,6.7-13.2
		c0.7-1.1,2.8-1.8,4.3-1.8c10.5-0.2,21-0.6,31.5,0.1c9.3,0.6,18.3-1.4,27.5-1.6c2.1,0,3.5-1.2,4.5-3.3c2.9-6.1,6.2-11.9,9.2-17.9
		c1-2,1.6-3.6,0.4-6.2c-1.2-2.6-0.9-6-1-9c-0.1-3.9,0-7.8,0-11.8C137.5,70,139.6,70,141.7,70z"/>
	<path fill-rule="evenodd" clip-rule="evenodd" fill="#FAFAFA" d="M86.8,48.7c3.4,3.4,6.3,6.5,9.4,9.3c3.1,2.8,6.6,5.2,9.8,8
		c3,2.6,5.9,5.5,8.7,8.3c0.6,0.6,1,1.8,1.1,2.7c0.3,2.7,0.3,5.5,0.6,8.2c0.6,6.9,1.2,13.8,1.8,20.7c0.2,2,0.8,4.1,0.5,6.1
		c-0.2,1-1.8,2.3-3,2.5c-3.1,0.4-6.3,0.2-9.4,0.2c-1,0-2-0.5-2.2-0.5c0-10.3-0.1-20.1,0.1-29.9c0-2.7-0.6-3.7-3.6-3.5
		c-6.6,0.4-13.3,0.5-20,0.7c-1.1,0-2.3,0.3-4,0.6c0,8.4,0,16.6,0,24.8c0,1.9,0.5,4.2-0.4,5.5c-0.7,1.1-3.2,1.2-4.9,1.4
		c-2.5,0.2-5.1,0.4-7.5,0c-3.2-0.5-2.4-3.4-2.3-5.3c1.1-11.7,3.6-23.4,2.1-35.3c-0.4-3,2.2-3.8,3.6-5.4c1.1-1.2,2.7-2,3.9-3.1
		C76.2,59.3,81.2,54.2,86.8,48.7z"/>
	<path fill-rule="evenodd" clip-rule="evenodd" fill="#9E5E2F" d="M120.2,71.5c-6-6.6-11.6-13-17.5-19.2c-2.3-2.3-5.4-3.8-7.9-5.9
		C93,44.9,91.3,43,90.1,41c-1.2-2.2,0.7-3.5,2.3-4.5c1.9-1.1,4-1.9,5.9-2.9c1.8-1,3.2-0.8,4.9,0.5c5.5,4.4,11.2,8.5,16.6,13
		c3.8,3.2,7.3,6.7,10.8,10.2c0.5,0.5,0.6,2.1,0.3,2.9C128.9,65.2,124.8,68.4,120.2,71.5z"/>
	<path fill-rule="evenodd" clip-rule="evenodd" fill="#9B5D2F" d="M96.8,86.5c0.4,6.2,0.7,12,1,17.7c0.1,1.1,0,2.1,0,3.2
		c-0.1,4-0.7,4.5-4.5,4.6c-2.2,0-4.4,0.2-6.6,0c-0.7-0.1-1.9-1.3-1.9-2c0-4.1,0.2-8.2,0.3-12.3c0.1-3,0.2-6.1,0.2-9.1
		c0-2.1,1.1-2.9,3-2.8C91.1,86,94,86.2,96.8,86.5z"/>
	<path fill-rule="evenodd" clip-rule="evenodd" fill="#F4F3F3" d="M103.4,154.3c2.8,2.4,3.5,5.1,3.4,8.6c-0.3,7.7-0.1,15.4-0.1,23.2
		c-1.3,0.1-2,0.2-2.7,0.3c-4.4,0.8-4.4,0.8-4.5-3.8c-0.1-6.9-0.1-13.8,0-20.7C99.8,157.7,99.9,157.7,103.4,154.3z"/>
	<path fill-rule="evenodd" clip-rule="evenodd" fill="#F3F1F1" d="M124.1,155.9c5.1,2.8,3.7,7.8,4,11.9c0.5,6.3,0.1,12.7,0.1,19.4
		c-2.2,0.2-4.3,0.3-6.9,0.5c-0.5-8.5-1.3-16.7-0.3-24.9C121.4,160.1,121,157.2,124.1,155.9z"/>
	<path fill-rule="evenodd" clip-rule="evenodd" fill="#F2F1F0" d="M63.8,155.3c3.4,3.2,4.1,5.9,3.9,9.5c-0.5,7.4-0.2,14.8-0.2,23
		c-1.8,0.2-4.2,0.4-6.5,0.7c0-6.6-0.1-12.6,0-18.6c0-3,0.1-5.9,0.6-8.9C61.9,159.2,63,157.4,63.8,155.3z"/>
	<path fill-rule="evenodd" clip-rule="evenodd" fill="#ECEAEB" d="M44.6,188c0-10.2-0.1-19.6,0.1-29c0-1.4,1.4-2.8,2.1-4.1
		c0.4,0,0.9,0,1.3,0c0.6,2,1.6,4,1.6,6c0.2,8.5,0.1,16.9,0.1,25.6C48,187,46.5,187.5,44.6,188z"/>
	<path fill-rule="evenodd" clip-rule="evenodd" fill="#F3F2F2" d="M86,187.7c-2.4,0-4.3,0-6.6,0c0.2-3.9,0.5-7.6,0.6-11.2
		c0.1-3.6,0.4-7.2,0-10.7c-0.4-3.9,0.7-6.8,4.8-9c0.4,1.6,1.1,3,1.2,4.5C86.1,169.9,86,178.6,86,187.7z"/>
	<path fill-rule="evenodd" clip-rule="evenodd" fill="#F1EFEF" d="M163.4,186.9c-1.4,0-2.4,0-3.4,0c-0.7,0-1.4-0.2-2.1-0.4
		c0-7.5,0.1-15,0-22.5c-0.1-3.1-0.3-6.1,3-8.1c2.2,1.3,2.9,3,2.7,5.9C163.2,170,163.4,178.3,163.4,186.9z"/>
	<path fill-rule="evenodd" clip-rule="evenodd" fill="#F0EEEE" d="M143.5,157.7c3.9,9.8,0.6,19.7,2.6,29.6c-1.6,0-2,0-2.4,0
		c-1.1-0.1-2.3-0.3-3.7-0.5C140.2,176.9,138.6,166.9,143.5,157.7z"/>
	<path fill-rule="evenodd" clip-rule="evenodd" fill="#F0EEEE" d="M33,187.8c-0.8,0.1-1.6,0.2-2.4,0.3c-2.2,0.3-3-0.6-2.9-2.9
		c0.4-7.8,0.5-15.6,0.8-23.4c0.1-1.5,0.3-2.9,0.6-4.7c3.9,1.7,4.1,4.1,4,7.1C32.9,172,33,179.8,33,187.8z"/>
	<path fill-rule="evenodd" clip-rule="evenodd" fill="#3EA147" d="M116.6,187.2c-5,0.2-5.1,0.2-5.2-4.2c-0.1-3.6,0-7.1,0-10.9
		c1.7,0,3.4,0,5.3,0C116.6,177.2,116.6,182.2,116.6,187.2z"/>
	<path fill-rule="evenodd" clip-rule="evenodd" fill="#39A047" d="M95.3,172.4c0,5.2,0,9.9,0,14.9c-1.6,0-3,0-4.6,0c0-5,0-10,0-15.3
		C92.4,172.2,93.7,172.3,95.3,172.4z"/>
	<path fill-rule="evenodd" clip-rule="evenodd" fill="#3BA248" d="M52.6,180.7c0-1.8,0-3.6,0-5.4c0-1.5,0.4-2.4,2.2-2.2
		c1.5,0.2,2.6,0.3,2.5,2.3c-0.2,3.5,0.2,6.9-0.1,10.4c-0.1,1.1-1.8,2-2.8,2.9c-0.5-1-1.3-1.9-1.5-3c-0.3-1.6-0.1-3.4-0.1-5.1
		C52.7,180.7,52.6,180.7,52.6,180.7z"/>
	<path fill-rule="evenodd" clip-rule="evenodd" fill="#3CA348" d="M132.2,173.8c4.5-0.3,4.5-0.3,4.5,3.6c0,2.6,0.2,5.3-0.1,7.9
		c-0.1,0.8-1.4,1.6-2.2,2.3c-0.7-0.8-2.1-1.5-2.1-2.3C132,181.6,132.2,177.8,132.2,173.8z"/>
	<path fill-rule="evenodd" clip-rule="evenodd" fill="#38A248" d="M71.3,187.5c0-4.7,0-9.1,0-13.7c2.6-0.4,3.9,0.1,3.7,3
		c-0.2,2.4,0.2,4.8,0.3,7.2C75.5,187.3,74.9,187.8,71.3,187.5z"/>
	<path fill-rule="evenodd" clip-rule="evenodd" fill="#3CA147" d="M153,187.8c-2.6,0.6-3.9,0.1-3.7-2.7c0.2-2.6,0.2-5.3,0.1-7.9
		c-0.1-2.7,1.2-3.3,3.6-2.6C153,179,153,183.3,153,187.8z"/>
	<path fill-rule="evenodd" clip-rule="evenodd" fill="#3BA047" d="M40.1,187.6c-2.6-0.7-3.3-2-3.1-4.3c0.3-3.5,0.1-7.1,0.1-10.7
		c1.9-0.6,3.1-0.5,3,2C40,178.8,40.1,183.1,40.1,187.6z"/>
	<path fill-rule="evenodd" clip-rule="evenodd" fill="#DBDAD9" d="M132.3,170.1c0-1,0-1.9,0-2.9c1.4,0,2.8,0,4.5,0
		c-0.1,1.1-0.1,1.9-0.2,2.9C135.1,170.1,133.8,170.1,132.3,170.1z"/>
	<path fill-rule="evenodd" clip-rule="evenodd" fill="#D9D6D5" d="M35.3,168.4c0.4-4.2,3.4-1.5,5-2.5
		C40.6,168.2,40.6,168.2,35.3,168.4z"/>
	<path fill-rule="evenodd" clip-rule="evenodd" fill="#C7C4C4" d="M96.3,166.3c-0.5,1.2-0.7,2.5-1.1,2.6c-1.4,0.3-2.9,0.1-4.3,0.1
		c0.3-0.6,0.4-1.5,0.8-1.7C92.9,166.8,94.3,166.7,96.3,166.3z"/>
	<path fill-rule="evenodd" clip-rule="evenodd" fill="#D5D3D2" d="M71.3,166.9c1.5,0.3,2.7,0.5,4.1,0.7c0,0.8,0,1.5,0,2.6
		C73.6,169.6,70.3,171.6,71.3,166.9z"/>
	<path fill-rule="evenodd" clip-rule="evenodd" fill="#173422" d="M141.7,70c-2.1,0-4.3,0-6.4,0c-0.4-0.6-0.9-1.3-1.4-2.2
		C136.9,68.7,139.3,69.4,141.7,70z"/>
</g>
</svg>
