<?xml version="1.0" encoding="utf-8"?>
<!-- Generator: Adobe Illustrator 18.1.0, SVG Export Plug-In . SVG Version: 6.00 Build 0)  -->
<!DOCTYPE svg PUBLIC "-//W3C//DTD SVG 1.1//EN" "http://www.w3.org/Graphics/SVG/1.1/DTD/svg11.dtd">
<svg version="1.1" id="Layer_1" xmlns="http://www.w3.org/2000/svg" xmlns:xlink="http://www.w3.org/1999/xlink" x="0px" y="0px"
	 viewBox="0 0 200 200" enable-background="new 0 0 200 200" xml:space="preserve">
<g>
	<path fill="#0B0A0A" d="M54.6,198c-0.2,0-0.4,0-0.5,0c-1-2.4-3.1-3-5.3-3.7c-1-0.3-2.3-0.9-2.7-1.7c-1-1.8-1.5-3.9-2.1-5.9
		c-1.3-3.9-2-7.8,0.1-11.8c2.6-5,5-10.2,7.5-15.3c0.2-0.3,0.4-0.6,0.6-0.9c3.3-4.1,6.5-8.2,9.7-12.3c-4.2-7.1-8.6-14.6-13.1-22
		c-0.4-0.7-1.3-1.4-2-1.4c-2.3-0.2-4.4-0.6-4.8-2.6c-1.9-0.2-3.3-0.4-4.8-0.6c0.5-1.3,1-2.6,1.7-4.5c-1.4-1.3-3.3-3.1-5.3-5
		c-0.7,0.6-1.2,1-1.8,1.5c-3.9-7.1-7.7-13.9-11.5-20.8c-2.7-4.8-4.1-10.6-9.7-13.3c0-0.2,0-0.4,0-0.5c1-0.8,2.1-1.4,2.8-2.3
		c1-1.2,1.5-2.7,2.4-4c1.1-1.5,2.3-2.9,3.6-4.3c2-2.1,4-4.2,6.2-5.9c3.5-2.8,7.8-4.8,10.8-8c6-6.4,13.7-10.4,21.2-14.5
		c5.9-3.3,12.3-5.5,18.5-8.1c0.4-0.1,0.7-0.2,1.1-0.3c0.3-0.1,0.7-0.2,1-0.2c0.4-0.1,0.8-0.2,1.1-0.3c3-0.6,6-1.2,9-1.7
		c0.8-0.2,1.6-0.5,2.4-0.7c1-0.2,1.9-0.3,2.9-0.5c1.1-0.1,2.2-0.1,3.3-0.2c0.7-0.1,1.4-0.3,2.1-0.4c0.4-0.1,0.8-0.1,1.1-0.2
		c0.7-0.1,1.4-0.2,2.1-0.3c1.1-0.1,2.2-0.1,3.3-0.2c0.5,0,1.1-0.1,1.6-0.1c5.2,0.1,10.4,0.2,15.5,0.3c0.5,0.1,1,0.2,1.5,0.3
		c2.5,0.8,5,1.7,7.5,2.5c0.7,0.2,1.4,0.5,2.1,0.7c0.4,0.1,0.7,0.3,1.1,0.4c0.5,0.9,0.9,1.9,1.4,2.8c0.1,0.4,0.1,0.7,0.2,1.1
		c0.1,0.3,0.2,0.7,0.3,1c1,3,2.1,5.9,3.1,8.9c0.2,0.4,0.3,0.8,0.5,1.2c0.2,0.5,0.4,0.9,0.6,1.4c0.5,1,0.9,1.9,1.4,2.9
		c0.3,0.4,0.5,0.9,0.8,1.3c0.5,1.1,1,2.3,1.5,3.4c0.1,0.4,0.2,0.8,0.3,1.1c0.1,0.7,0.2,1.4,0.3,2c0.1,0.7,0.2,1.5,0.3,2.2
		c0.1,0.7,0.2,1.4,0.3,2.1c0,1,0,1.9,0.1,2.8c0,0.1,0.8,0.1,1.3,0.1c1.5-0.9,3-1.9,4.6-2.6c7-3,14.1-5.9,21.1-8.7
		c1.5-0.6,3.2-1.2,4.9-1.2c2.5,0,5.1,0.5,8,0.8c-0.5,6.7,1.2,13.9-1,20.9c-1.9,6.4-3.7,12.8-5.7,19.1c-0.5,1.7-1.4,3.5-2.5,4.9
		c-2.4,3.5-5.3,6.5-8.6,9.3c-5.3,4.5-9.7,10.1-14.4,15.3c-0.6,0.6-0.7,2-0.5,3c0.9,5.3,2,10.6,3,15.9c0.2,0.9,0.3,2.2-0.2,2.7
		c-4.8,4.6-8.9,9.8-15,13c-5.5,2.8-10.5,6.6-15.7,10c-0.4,0.2-0.7,0.6-1.1,0.7c-5.4,1.9-10,5.1-16.5,4.3c-7.5-0.9-15.2,0.3-22.8,0.8
		c-1.1,0.1-2.5,0.8-3.2,1.7c-1.7,2-3,4.4-4.8,6.4C70.2,186.8,63.2,193.4,54.6,198z M70.7,56.4c0.2-0.1,0.3-0.2,0.4-0.3
		c0.2-0.1,0.3-0.2,0.5-0.3c0.4-0.1,0.7-0.3,1.1-0.4c0.9-0.4,1.7-0.8,2.6-1.2c0.4-0.1,0.7-0.2,1.1-0.4c0.2,0,0.4-0.1,0.5-0.1
		c0.4-0.2,0.7-0.3,1.1-0.5c0.3-0.2,0.6-0.4,1-0.6c0.2-0.1,0.4-0.2,0.6-0.3c0.2-0.1,0.4-0.1,0.6-0.2c0.3-0.1,0.7-0.2,1-0.3
		c0.2-0.1,0.4-0.2,0.6-0.2c0.2,0,0.3-0.1,0.4-0.3c0.2-0.1,0.4-0.2,0.6-0.3c0.4-0.2,0.7-0.3,1.1-0.5l0.1,0c0.1,0,0.3-0.1,0.4-0.2
		c0.2-0.1,0.5-0.2,0.7-0.3c0.3-0.2,0.7-0.3,1-0.5l0.1-0.1c0.1,0,0.2-0.1,0.3-0.2c0.9-0.5,1.8-1,2.7-1.4c0.4-0.1,0.7-0.3,1.1-0.4
		c0.4-0.2,0.8-0.4,1.1-0.6c0.3-0.1,0.6-0.3,1-0.4c0.2-0.1,0.4-0.1,0.6-0.2c0.5-0.2,1.1-0.3,1.6-0.5l0.2-0.1l0.2,0
		c0.4-0.1,0.8-0.3,1.2-0.4l0.2-0.1l0.2,0c0.4-0.1,0.8-0.3,1.2-0.4l0.2-0.1l0.2,0c0.4-0.1,0.8-0.3,1.2-0.4l0.2-0.1h0.2
		c0.4-0.1,0.8-0.3,1.2-0.4c0.2,0,0.4-0.1,0.5-0.1c0.5-0.1,1-0.3,1.6-0.4c0.2-0.1,0.3-0.1,0.5-0.2c0.4-0.1,0.7-0.2,1.1-0.4
		c0.3-0.1,0.7-0.1,1-0.2c0.6-0.1,1.1-0.3,1.7-0.4c0.2,0,0.4-0.1,0.5-0.1c0.7-0.1,1.4-0.3,2.1-0.4c0.2,0,0.3-0.1,0.5-0.1
		c0.7-0.1,1.4-0.3,2.2-0.4c0.2-0.1,0.4-0.2,0.6-0.3c0.7,0.1,1.5,0.2,2.2,0.3c0.4,0.1,0.7,0.2,1.1,0.3c0.5,0,1-0.1,1.5-0.1
		c0.2,0.1,0.4,0.2,0.6,0.3c0.2,0.1,0.4,0.2,0.6,0.3c0.1,0.4,0.3,0.7,0.4,1.1c-0.3,0.4-0.6,0.8-0.9,1.2c0.2,0.1,0.3,0.3,0.5,0.4
		c0.3-0.4,0.6-0.9,1-1.3c2.2-1.4,1.3-3.7,1.6-5.6c0.3,0,0.7,0,1,0c0.4,0,0.7,0,1.1,0c0.8-0.4,1.5-0.9,2.3-1.3c0-0.5,0-1,0-1.5
		c-2.2-0.4-4.3-1.2-6.5-1.3c-5.1-0.2-10.2-0.1-15.3-0.1c-0.8,0.2-1.5,0.4-2.3,0.6c-0.3,0-0.5,0.1-0.8,0.1c-0.6,0.1-1.2,0.2-1.7,0.3
		c-5.5,1.5-10.9,3-16.4,4.5c-3.2,0.9-6.5,1.7-9.7,2.9c-5.4,2.1-10.7,4.3-15.9,6.6c-8.7,3.8-17.7,7-23,15.8c-1.3,0.4-2.1,0.9-1.7,2.6
		c0.2,0.9-0.2,2.2-0.8,3.1c-1.1,1.9-2.5,3.7-3.7,5.6c0.2,0.2,0.4,0.4,0.7,0.6c2-2.4,4-4.8,6-7.1c1.2-1.1,2.2-2.4,3.5-3.1
		c3.1-1.8,6.3-3.3,9.5-4.9c1.4-0.7,2.8-2.5,4.3-0.5c0.2,0.3-1.6,2.5-2.8,3.1c-5.8,3-9.8,7.8-13.8,12.9c2.4-0.7,4.9,0.1,7.1-2
		c2.7-2.7,6.1-4.8,9.2-7.2c0.2,0.2,0.5,0.5,0.7,0.7c-0.9,1.4-1.8,2.9-2.8,4.3c-1.1,1.3-2.3,2.6-3.4,3.9c0.2,0.3,0.5,0.5,0.7,0.8
		c1.3-1,2.5-2,3.8-3.1c0.1,0.2,0.3,0.4,0.4,0.6c0.4,0,0.7,0.1,1.1,0.1c1.1,0.8,2.1,1.6,3.2,2.3c0.4,0.3,1.1,0.6,1.5,0.5
		c4.9-1.6,9.8-3.1,14.5-5c8.1-3.2,16-6.7,24-10.3c3.7-1.6,7.1-3.8,10.6-5.7c-0.1-0.2-0.2-0.4-0.3-0.6c-0.8,0.1-1.5,0.1-2.2,0.4
		c-11.8,4.7-23.5,9.5-35.2,14.1c-0.7,0.3-1.8-0.1-2.6-0.1c0.4-0.8,0.7-1.9,1.3-2.2c2.6-1.4,5.2-2.7,7.9-3.8
		c10.4-4.6,20.8-9.1,31.2-13.6c1.6-0.7,3.2-1.5,4.8-2.2c0.8-0.3,1.7-0.5,2.5-0.8c-0.1-0.3-0.1-0.6-0.2-0.9c-1.9-0.6-3.8-0.9-5.6,0.9
		c-0.2,0.1-0.4,0.2-0.6,0.2c-0.3,0.1-0.6,0.2-0.9,0.4c-0.2,0.1-0.4,0.1-0.6,0.2c-0.3,0.1-0.6,0.2-1,0.4c-0.2,0.1-0.4,0.1-0.6,0.2
		c-0.3,0.1-0.7,0.3-1,0.4c-0.2,0.1-0.4,0.1-0.5,0.2c-0.2,0.1-0.3,0.2-0.5,0.2c-0.3,0.1-0.7,0.2-1,0.3c-0.2,0.1-0.4,0.2-0.6,0.3
		c-0.3,0.1-0.7,0.2-1,0.3c-0.2,0.1-0.4,0.2-0.6,0.2c-0.2,0.1-0.4,0.1-0.7,0.2c-0.5-0.7-0.9-1.3-1.5-2.2c-0.4,0.3-1,0.7-1.7,1.1
		c-0.2,0-0.4,0-0.5,0c-0.2,0-0.3,0-0.5,0.1l0,0c-0.3,0.1-0.7,0.2-1,0.4c-1.4,0.6-2.9,1.2-4.3,1.8c-0.3,0.1-0.7,0.3-1,0.4
		c-0.4,0.2-0.8,0.4-1.2,0.6c-0.3,0.2-0.7,0.3-1,0.5l-0.1,0c-0.3,0.2-0.7,0.3-1,0.5l-0.1,0c-0.3,0.1-0.7,0.3-1,0.4
		c-0.1,0.1-0.3,0.2-0.4,0.2c-0.2,0.1-0.4,0.2-0.7,0.4l-0.1,0.1c-0.3,0.2-0.6,0.3-0.9,0.5l-0.1,0c-0.5,0.1-1,0.3-1.5,0.4
		c-0.2,0-0.4,0.1-0.6,0.1c-0.3,0.2-0.7,0.3-1,0.5l-0.1,0c-0.1,0-0.3,0.1-0.4,0.2c-0.2,0.1-0.4,0.2-0.6,0.3c-0.3,0.1-0.7,0.3-1,0.4
		c-0.2,0-0.3,0.1-0.5,0.1c-0.4,0.1-0.7,0.3-1.1,0.4l-0.1,0.1c-0.1,0-0.2,0.1-0.3,0.2c-0.2,0.1-0.5,0.2-0.7,0.3
		c-0.3,0.2-0.6,0.3-1,0.5c-1.2,0.8-2.4,1.5-3.7,2.3c-0.2,0.1-0.4,0.2-0.6,0.3c-0.2,0.1-0.4,0.1-0.6,0.2c-0.5,0.1-1,0.3-1.5,0.4
		c-0.6,0-1.1,0-1.7-0.1c-0.1-0.1-0.2-0.2-0.3-0.3c0-0.4-0.1-0.7-0.2-1.1c0.1-0.2,0.3-0.4,0.4-0.6c1.9-1.2,3.8-2.5,5.8-3.7
		C70.2,56.7,70.4,56.6,70.7,56.4L70.7,56.4z M103.1,47.3c0.3-0.2,0.7-0.3,1-0.5c1.6-0.4,3.2-0.7,4.8-1.1c0.3-0.2,0.5-0.5,0.8-0.7
		c-0.3,0-0.5,0.1-0.8,0.1c-1.6,0.4-3.2,0.7-4.8,1.1c-0.5,0.2-1.1,0.4-1.6,0.5c-0.8,0.3-1.7,0.6-2.5,0.8c0.1,0.2,0.2,0.5,0.2,0.7
		C101.2,48,102.2,47.6,103.1,47.3z M120.6,113.8c-2.1,1.3-4.4,2.4-6.3,3.9c-4.3,3.5-8.3,7.3-12.5,11c-2.1,0.5-4.2,1.6-6.2,1.4
		c-4.3-0.5-7.8,1.1-11,3.6c-4.7,3.8-9.5,7.6-13.9,11.8c-4,3.8-7.3,8.3-11.3,12.2c-3.3,3.2-4.1,7.7-6.5,11.4
		c-0.1,0.2-0.3,0.6-0.2,0.8c1.4,2.2-0.2,3.9-1.1,5.6c-2.2,4.5-1.8,9.1,1.6,12.6c0.7,0.8,3,1.1,3.7,0.6c2.6-2.2,5-4.7,7.3-7.2
		c1.5-1.7,2.6-3.9,4.1-5.7c3.4-3.9,6.1-8.5,10.3-11.9c2.4-1.9,3.9-5,5.8-7.6c0.3-0.4,0.7-1,0.6-1.4c-0.5-2,0.9-2.8,2.2-3.8
		c1.4-1.2,2.9-2.3,4.1-3.7c2.2-2.3,4-4.8,6.3-7.1c2.6-2.6,5.5-5.1,8.2-7.6c0.9-0.7,1.9-1.4,2.6-2.2c5.2-6.6,13.1-10.2,18.2-16.9
		c0.4-0.6,1.5-0.7,2.4-0.9c0.6-0.1,1.4,0.2,1.8-0.1c2.3-1.8,4.6-3.6,6.7-5.6c4.2-3.9,8.4-7.9,12.5-11.9c0.9-0.9,1.6-2.1,2.7-3.6
		c0.3,0.9,0.6,1.5,0.4,1.7c-5.9,9.5-13.3,17.6-21.9,24.9c0.9,1,1.7,1.7,2.4,2.5c0.7,0.9,1.4,1.8,2,2.8c1.8,2.9,2.7,3.2,5.2,0.7
		c2.7-2.5,5.1-5.3,7.7-7.9c4.2-4.1,8.6-7.9,12.5-12.2c2.7-3,4.9-6.4,7.1-9.8c1.4-2.2,2.3-4.6,3.2-7c3.9-9.4,8.6-18.5,7.4-29.2
		c-0.1-1.4-0.1-2.8-0.2-4.7c-1,0.6-1.5,0.9-2.1,1.2c-5.9,2.2-11.9,4-17.6,6.6c-3.7,1.7-7,4.3-10.1,7c-3.9,3.5-7.3,7.6-11.1,11.2
		c-4.5,4.2-9.4,8.1-14.1,12c-1.3,1.1-2.9,1.8-3.9,3.1c-1.6,1.9-2.8,4.1-4.3,6.5c1.1,1.7,2.5,3.8,3.9,5.8c0.8,1.2,1.6,2.4,2.4,3.6
		c0.4,0.4,0.8,0.7,1.6,1.4C122.1,112.5,121.4,113.1,120.6,113.8z M131.2,56.4c0.2-3.6,0.4-6.9,0.6-10.2c-0.3-0.1-0.7-0.2-1-0.3
		c-1.5,2-2.9,4.1-4.7,5.9c-2.5,2.6-4.9,5.4-7.9,7.3c-4.6,2.8-9.6,4.9-14.4,7.4c-7,3.7-14,7.5-21.1,11.2c-3.2,1.7-6.5,3.3-9.9,4.5
		C68,83.7,63,84.8,58,86.2c-3.6,1-7.2,2.3-10.8,3.1c-3.7,0.8-7.6,1.4-11.4,1.8c-2.2,0.2-4.4-0.3-7.2-0.5c0.7,1.5,1,2.2,1.4,2.7
		c2.4,3.6,4.8,7.2,7.4,10.7c2.2,2.9,4.4,5.9,7.2,8.2c1.5,1.2,3.8,2.4,6.5,1.8c5.6-1.2,11.3-1.9,17-2.6c4.9-0.7,10-0.6,14.7-2
		c6-1.8,11.7-4.6,17.5-7c2.8-1.2,5.7-2.3,8.1-4c2.6-1.9,4.6-4.6,7.1-6.7c6.2-5.4,12.4-10.8,18.8-16.1c1.9-1.6,2.1-3.1,1.6-5.3
		c-1.1-4.9-2-9.9-2.9-14.8c0-0.1-0.2-0.2-0.4-0.4C132,55.4,131.7,55.8,131.2,56.4z M143.6,132.6c-3.8,0-7.1-0.9-9.8-3.4
		c-1.7-1.5-3.3-3.1-5.1-4.5c-0.5-0.4-1.6-0.6-2-0.4c-0.9,0.6-1.6,1.5-2.2,2.3c-0.5,0.8-0.5,2.2-1.1,2.7c-4,2.5-8.1,4.7-12.2,7
		c-0.4,0.2-1,0.2-1.5,0.3c-2.1,0.3-3.4,1.3-4.4,3.3c-1.1,2.3-2.6,4.3-4.1,6.4c-0.9,1.3-2,2.4-3.1,3.5c-2.8,2.6-3,7.1-6.6,9
		c-0.3,0.1-0.4,0.8-0.4,1.2c0.2,1.6,3.8,4.4,5.5,4.1c6.5-1.2,13-2.7,19.5-3.9c7.7-1.5,14.9-3.9,20.5-9.7c1.7-1.8,3.5-3.5,5.5-5
		c3.5-2.6,5.1-5.6,2.7-9.8C144.2,134.8,144,133.7,143.6,132.6z M112.6,112.1c1.9-2.2,2-4.6,0.3-4.7c-2.5-0.1-5.2-0.1-7.5,0.8
		c-4.5,1.7-8.8,4-13.3,5.9c-4.1,1.8-8.3,3.5-12.6,5c-5.7,2-11.5,4.1-17.8,3.7c-1.1-0.1-2.2-0.2-3.7-0.4c3.4,6.6,8.1,11.4,13.4,16.6
		c3.2-3.4,6.2-6.7,9.4-9.9c0.7-0.7,1.7-0.9,2.7-1.3c2-0.8,4-1.5,6.5-2.5c1.6,1.3,3.8,0.7,6-0.8c2.1-1.4,4.4-2.6,6.6-4
		c1.7-1,4.3-1.1,4-4.2c0-0.4,0.8-0.8,1.2-1.3c0.9-1.1,1.8-2.3,2.8-3.4c0.2-0.2,0.4-0.3,0.7-0.6C111.7,111.5,112.1,111.8,112.6,112.1
		z M80.4,73.8c1.2-0.6,2.3-1,3.2-1.7c0.9-0.7,1.7-1.5,2.4-2.4c0.3-0.4,0.3-1.2,0.1-1.6c-0.1-0.3-0.9-0.4-1.4-0.3
		C82.7,68.1,80.4,71.3,80.4,73.8z M73.5,114.9c-0.1-0.4-0.1-0.7-0.2-1.1c-3.6,0.7-7.3,1.4-10.9,2c0.1,0.3,0.1,0.6,0.2,0.9
		C66.2,116.2,69.9,115.5,73.5,114.9z M76.8,72c-0.2-0.2-0.3-0.5-0.5-0.7c-1.3,0.7-2.5,1.4-3.8,2.1c0.3,0.4,0.5,0.8,0.8,1.2
		C74.5,73.7,75.7,72.9,76.8,72z M75.9,113.2c0.1-0.2,0.3-0.4,0.4-0.5c-0.4-0.2-0.7-0.5-1.1-0.7c-0.1,0.2-0.2,0.3-0.3,0.5
		C75.3,112.7,75.6,112.9,75.9,113.2z M111,53.6c-0.4-0.2-0.6-0.4-0.8-0.4c-0.2,0-0.3,0.3-0.5,0.5c0.2,0.1,0.4,0.4,0.6,0.4
		C110.5,54.1,110.7,53.9,111,53.6z"/>
	<path fill-rule="evenodd" clip-rule="evenodd" fill="#BCBCBB" d="M122.2,23.9c0,0.4,0.1,0.8,0.1,1.2c-5.2-0.1-10.4-0.2-15.5-0.3
		c0-0.3,0-0.6,0-1C112,23.9,117.1,23.9,122.2,23.9z"/>
	<path fill-rule="evenodd" clip-rule="evenodd" fill="#BFBEBE" d="M101.9,25.1c0-0.4,0.1-0.8,0.1-1.3c0.4,0,0.7,0,1.1,0
		c0.2,0,0.4,0,0.5,0c0.5,0,1.1,0,1.6,0c0,0.4,0,0.7,0,1.1C104.1,25,103,25.1,101.9,25.1z"/>
	<path fill-rule="evenodd" clip-rule="evenodd" fill="#A9A8A8" d="M105.2,24.9c0-0.4,0-0.7,0-1.1c0.5,0,1.1,0,1.6,0c0,0.3,0,0.6,0,1
		C106.3,24.9,105.7,24.9,105.2,24.9z"/>
	<path fill-rule="evenodd" clip-rule="evenodd" fill="#FDFEFF" d="M103.6,23.9c-0.2,0-0.4,0-0.5,0C103.3,23.9,103.4,23.9,103.6,23.9
		z"/>
	<path fill-rule="evenodd" clip-rule="evenodd" fill="#E16829" d="M131.2,56.4c0.5-0.5,0.9-1,1.2-1.4c0.2,0.2,0.4,0.3,0.4,0.4
		c1,4.9,1.8,9.9,2.9,14.8c0.5,2.2,0.3,3.7-1.6,5.3c-6.4,5.2-12.6,10.6-18.8,16.1c-2.4,2.1-4.5,4.8-7.1,6.7c-2.4,1.7-5.3,2.8-8.1,4
		c-5.8,2.5-11.5,5.3-17.5,7c-4.7,1.4-9.8,1.3-14.7,2c-5.7,0.8-11.4,1.5-17,2.6c-2.7,0.6-4.9-0.6-6.5-1.8c-2.8-2.2-5-5.3-7.2-8.2
		c-2.6-3.5-5-7.1-7.4-10.7c-0.4-0.6-0.6-1.2-1.4-2.7c2.8,0.2,5,0.7,7.2,0.5c3.8-0.4,7.6-0.9,11.4-1.8c3.7-0.8,7.2-2.1,10.8-3.1
		c4.9-1.4,10-2.5,14.8-4.1c3.4-1.1,6.7-2.8,9.9-4.5c7.1-3.7,14-7.5,21.1-11.2c4.8-2.5,9.8-4.5,14.4-7.4c3-1.9,5.4-4.7,7.9-7.3
		c1.7-1.8,3.1-3.9,4.7-5.9c0.3,0.1,0.7,0.2,1,0.3C131.6,49.4,131.4,52.8,131.2,56.4z"/>
	<path fill-rule="evenodd" clip-rule="evenodd" fill="#A9BCC3" d="M178.7,57.9c1.2,10.7-3.5,19.8-7.4,29.2c-1,2.4-1.9,4.8-3.2,7
		c-2.2,3.4-4.4,6.8-7.1,9.8c-3.9,4.3-8.4,8.1-12.5,12.2c-2.6,2.6-5,5.4-7.7,7.9c-2.6,2.4-3.4,2.2-5.2-0.7c-0.6-1-1.3-1.9-2-2.8
		c-0.7-0.8-1.4-1.5-2.4-2.5c8.6-7.3,16.1-15.4,21.9-24.9c0.1-0.2-0.2-0.8-0.4-1.7c-1.1,1.5-1.7,2.7-2.7,3.6c-4.1,4-8.3,8-12.5,11.9
		c-2.1,2-4.4,3.8-6.7,5.6c-0.4,0.3-1.2-0.1-1.8,0.1c-0.8,0.2-1.9,0.3-2.4,0.9c-5.1,6.7-13,10.4-18.2,16.9c-0.7,0.9-1.7,1.5-2.6,2.2
		c-1.3-1.3-2.7-2.7-4-4c4.1-3.7,8.2-7.5,12.5-11c1.9-1.6,4.2-2.6,6.3-3.9c0.6-0.1,1.4,0,1.9-0.4c5.2-3.9,10.6-7.6,15.6-11.8
		c3.3-2.8,5.9-6.3,9.3-10.1c-2,1.4-3.5,2.3-4.9,3.4c-1.2,0.9-2.2,2.2-3.5,2.8c-6.7,3-11.9,8-17.4,12.7c-0.8-1.2-1.6-2.4-2.4-3.6
		c-1.4-2.1-2.8-4.2-3.9-5.8c1.6-2.4,2.8-4.6,4.3-6.5c1-1.2,2.6-2,3.9-3.1c4.7-4,9.6-7.8,14.1-12c3.9-3.6,7.2-7.7,11.1-11.2
		c3.1-2.7,6.4-5.3,10.1-7c5.7-2.6,11.7-4.4,17.6-6.6C177.5,55.4,175.7,58.3,178.7,57.9z"/>
	<path fill-rule="evenodd" clip-rule="evenodd" fill="#D9652A" d="M49.8,72.3c0.9-1.4,1.8-2.9,2.8-4.3c-0.2-0.2-0.5-0.5-0.7-0.7
		c-3.1,2.4-6.4,4.5-9.2,7.2c-2.2,2.2-4.7,1.4-7.1,2c4-5,8-9.9,13.8-12.9c1.2-0.6,3-2.9,2.8-3.1c-1.5-2-2.9-0.2-4.3,0.5
		c-3.2,1.6-6.4,3.1-9.5,4.9C37,66.7,36,68,34.9,69.1c-2.8-1.3-0.5-3.1-0.5-4.7c5.2-8.8,14.3-12,23-15.8c5.3-2.3,10.6-4.6,15.9-6.6
		c3.1-1.2,6.4-2,9.7-2.9c5.5-1.5,10.9-3,16.4-4.5c0.6-0.1,1.2-0.2,1.7-0.3c0.3,0,0.5-0.1,0.8-0.1c1.7,2.5,2.6,2.6,4.9,0.8
		c-0.8-0.5-1.7-0.9-2.6-1.4c5.1,0,10.2-0.1,15.3,0.1c2.2,0.1,4.4,0.8,6.5,1.3c0,0.5,0,1,0,1.5c-0.8,0.4-1.5,0.9-2.3,1.3
		c-0.4,0-0.7,0-1.1,0c-0.3,0-0.7,0-1,0c-0.3,0.1-0.7,0.2-1,0.3c1.1,1.9-0.5,2.6-1.7,3.4c-0.2,0-0.3,0.1-0.5,0.2
		c-0.2-0.1-0.4-0.2-0.6-0.3c-0.6-0.1-1.1-0.2-1.7-0.3c-0.2,0-0.3,0-0.4-0.1c-0.9,0-1.8-0.1-2.7-0.1c-0.2,0.1-0.4,0.2-0.6,0.3
		c-0.7,0.1-1.4,0.3-2.2,0.4c-0.2,0-0.3,0.1-0.5,0.1c-0.7,0.1-1.4,0.3-2.1,0.4c-0.2,0-0.4,0.1-0.5,0.1c-0.6,0.1-1.1,0.3-1.7,0.4
		c-0.3,0.1-0.7,0.1-1,0.2c-0.4,0.1-0.7,0.2-1.1,0.4c-0.2,0.1-0.3,0.1-0.5,0.2c-0.5,0.1-1,0.3-1.6,0.4c-0.2,0-0.4,0.1-0.5,0.1
		c-0.4,0.1-0.8,0.3-1.2,0.4h-0.2l-0.2,0.1c-0.4,0.1-0.8,0.3-1.2,0.4l-0.2,0l-0.2,0.1c-0.4,0.1-0.8,0.3-1.2,0.4l-0.2,0l-0.2,0.1
		c-0.4,0.1-0.8,0.3-1.2,0.4l-0.2,0l-0.2,0.1c-0.5,0.2-1.1,0.3-1.6,0.5c-0.2,0.1-0.4,0.1-0.6,0.2c-0.3,0.1-0.6,0.3-1,0.4
		c-0.4,0.2-0.8,0.4-1.1,0.6c-0.4,0.1-0.7,0.3-1.1,0.4c-0.9,0.5-1.8,1-2.7,1.4c0,0-0.2,0-0.2,0l-0.1,0.2c0,0-0.1,0.1-0.1,0.1
		c-0.3,0.2-0.7,0.3-1,0.5c-0.2,0.1-0.5,0.2-0.7,0.3c-0.1,0.1-0.3,0.1-0.4,0.2l-0.1,0c-0.4,0.2-0.7,0.3-1.1,0.5
		c-0.2,0.1-0.4,0.2-0.6,0.3c-0.1,0.1-0.3,0.2-0.4,0.3c-0.2,0.1-0.4,0.2-0.6,0.2c-0.3,0.1-0.7,0.2-1,0.3c-0.2,0.1-0.4,0.1-0.6,0.2
		c-0.2,0.1-0.4,0.2-0.6,0.3c-0.3,0.2-0.6,0.4-1,0.6c-0.4,0.2-0.7,0.3-1.1,0.5c-0.2,0-0.4,0.1-0.5,0.1c-0.4,0.1-0.7,0.2-1.1,0.4
		c-0.9,0.4-1.7,0.8-2.6,1.2c-0.4,0.1-0.7,0.3-1.1,0.4c-0.2,0.1-0.3,0.2-0.5,0.3c-0.1,0.1-0.3,0.2-0.4,0.3l-0.1,0
		c-0.2,0.1-0.4,0.3-0.7,0.4c-1.9,1.2-3.8,2.5-5.8,3.7c-0.1,0.2-0.3,0.4-0.4,0.6c0.1,0.4,0.1,0.7,0.2,1.1l0,0.2l0.2,0
		c0.6,0,1.1,0,1.7,0.1c0.5-0.1,1-0.3,1.5-0.4c0.2-0.1,0.4-0.1,0.6-0.2c0.2-0.1,0.4-0.2,0.6-0.3c1.2-0.8,2.4-1.5,3.7-2.3
		c0.3-0.2,0.6-0.3,1-0.5c0.2-0.1,0.5-0.2,0.7-0.3c0,0,0.2,0,0.2,0l0.1-0.2c0,0,0.1-0.1,0.1-0.1c0.4-0.1,0.7-0.3,1.1-0.4
		c0.2,0,0.3-0.1,0.5-0.1c0.3-0.1,0.7-0.3,1-0.4c0.2-0.1,0.4-0.2,0.6-0.3c0.1-0.1,0.3-0.2,0.4-0.2l0.1,0c0.3-0.2,0.7-0.3,1-0.5
		c0.2,0,0.4-0.1,0.6-0.1c0.5-0.1,1-0.3,1.5-0.4l0.1,0c0.3-0.2,0.6-0.3,0.9-0.5c0,0,0.1-0.1,0.1-0.1c0.2-0.1,0.4-0.2,0.7-0.4
		c0.2,0,0.3,0,0.4-0.2c0.3-0.1,0.7-0.3,1-0.4l0.1,0c0.3-0.2,0.7-0.3,1-0.5l0.1,0c0.3-0.2,0.7-0.3,1-0.5c0.4-0.2,0.8-0.4,1.2-0.6
		c0.3-0.1,0.7-0.3,1-0.4c1.4-0.6,2.9-1.2,4.3-1.8c0.3-0.1,0.7-0.2,1-0.4l0,0c0,0,0.3,0,0.3,0l0.3-0.1c0.2,0,0.4,0,0.5,0
		c0.1,0.7,0.1,1.4,0.2,2.4c1.1-0.5,2-0.9,2.9-1.3c0.2-0.1,0.4-0.1,0.7-0.2c0.2-0.1,0.4-0.2,0.6-0.2c0.3-0.1,0.7-0.2,1-0.3
		c0.2-0.1,0.4-0.2,0.6-0.3c0.3-0.1,0.7-0.2,1-0.3c0.2-0.1,0.3-0.2,0.5-0.2c0.2-0.1,0.4-0.1,0.5-0.2c0.3-0.1,0.7-0.2,1-0.4
		c0.2-0.1,0.4-0.1,0.6-0.2c0.3-0.1,0.6-0.2,1-0.4c0.2-0.1,0.4-0.1,0.6-0.2c0.3-0.1,0.6-0.2,0.9-0.4c0.2-0.1,0.4-0.2,0.6-0.2
		c0.9-0.1,1.9-0.3,2.8-0.3c0.1,0,0.3,0.7,0.4,1.1c-1.6,0.7-3.2,1.5-4.8,2.2c-10.4,4.5-20.8,9-31.2,13.6c-2.7,1.2-5.3,2.4-7.9,3.8
		c-0.6,0.4-0.9,1.5-1.3,2.2c0.9,0.1,1.9,0.4,2.6,0.1c11.8-4.7,23.5-9.4,35.2-14.1c0.7-0.3,1.5-0.3,2.2-0.4c0.1,0.2,0.2,0.4,0.3,0.6
		c-3.5,1.9-7,4.1-10.6,5.7c-7.9,3.6-15.9,7-24,10.3c-4.7,1.9-9.7,3.4-14.5,5c-0.4,0.1-1.1-0.2-1.5-0.5c-1.1-0.7-2.2-1.5-3.2-2.3
		c-0.4,0-0.7-0.1-1.1-0.1c-0.1-0.2-0.3-0.4-0.4-0.6C50.5,73.4,50.2,72.8,49.8,72.3z M56.4,53.9c-0.2-0.2-0.3-0.4-0.5-0.5
		c-3.2,1.3-4.1,2.2-4.1,4.7C53.6,56.5,55,55.2,56.4,53.9z"/>
	<path fill-rule="evenodd" clip-rule="evenodd" fill="#DF6729" d="M143.6,132.6c0.4,1,0.6,2.1,1.1,3c2.5,4.2,0.8,7.2-2.7,9.8
		c-2,1.5-3.8,3.2-5.5,5c-5.7,5.8-12.9,8.2-20.5,9.7c-6.5,1.3-13,2.7-19.5,3.9c-1.7,0.3-5.3-2.5-5.5-4.1c-0.1-0.4,0.1-1,0.4-1.2
		c3.6-2,3.9-6.4,6.6-9c1.1-1.1,2.2-2.2,3.1-3.5c1.5-2.1,3-4.1,4.1-6.4c1-2,2.3-3,4.4-3.3c0.5-0.1,1.1,0,1.5-0.3
		c4.1-2.3,8.2-4.5,12.2-7c0.7-0.4,0.6-1.8,1.1-2.7c0.6-0.9,1.3-1.8,2.2-2.3c0.4-0.3,1.5,0,2,0.4c1.8,1.4,3.4,3,5.1,4.5
		C136.5,131.7,139.7,132.6,143.6,132.6z"/>
	<path fill-rule="evenodd" clip-rule="evenodd" fill="#4466AC" d="M101.8,128.7c1.3,1.3,2.7,2.7,4,4c-2.8,2.5-5.6,4.9-8.2,7.6
		c-2.2,2.2-4.1,4.8-6.3,7.1c-1.3,1.3-2.7,2.5-4.1,3.7c-1.3,1-2.7,1.8-2.2,3.8c0.1,0.4-0.3,1-0.6,1.4c-1.9,2.6-3.3,5.7-5.8,7.6
		c-4.2,3.4-6.9,7.9-10.3,11.9c-1.5,1.8-2.6,4-4.1,5.7c-2.3,2.6-4.7,5.1-7.3,7.2c-0.7,0.6-3,0.2-3.7-0.6c-3.4-3.5-3.8-8.1-1.6-12.6
		c0.8-1.7,2.5-3.4,1.1-5.6c-0.1-0.2,0-0.5,0.2-0.8c2.3-3.7,3.1-8.2,6.5-11.4c4-3.8,7.3-8.4,11.3-12.2c4.4-4.2,9.2-7.9,13.9-11.8
		c3.2-2.6,6.6-4.1,11-3.6C97.6,130.3,99.7,129.2,101.8,128.7z"/>
	<path fill-rule="evenodd" clip-rule="evenodd" fill="#DC672A" d="M112.6,112.1c-0.5-0.3-0.9-0.7-1.4-1c-0.3,0.2-0.5,0.4-0.7,0.6
		c-0.9,1.1-1.8,2.3-2.8,3.4c-0.4,0.5-1.3,0.9-1.2,1.3c0.3,3-2.3,3.1-4,4.2c-2.2,1.4-4.4,2.6-6.6,4c-2.3,1.5-4.5,2.1-6,0.8
		c-2.6,1-4.6,1.7-6.5,2.5c-0.9,0.4-2,0.6-2.7,1.3c-3.1,3.2-6.1,6.5-9.4,9.9c-5.3-5.2-10-10-13.4-16.6c1.6,0.2,2.7,0.3,3.7,0.4
		c6.3,0.5,12-1.6,17.8-3.7c4.2-1.5,8.4-3.2,12.6-5c4.5-1.9,8.8-4.3,13.3-5.9c2.3-0.8,5-0.9,7.5-0.8
		C114.6,107.6,114.5,109.9,112.6,112.1z"/>
	<path fill-rule="evenodd" clip-rule="evenodd" fill="#F6F6F6" d="M121.5,110.3c5.5-4.7,10.7-9.7,17.4-12.7c1.3-0.6,2.3-1.9,3.5-2.8
		c1.4-1,2.9-2,4.9-3.4c-3.4,3.8-6,7.3-9.3,10.1c-4.9,4.2-10.3,7.9-15.6,11.8c-0.5,0.3-1.2,0.3-1.9,0.4c0.8-0.7,1.6-1.3,2.5-2.1
		C122.4,111,121.9,110.7,121.5,110.3z"/>
	<path fill-rule="evenodd" clip-rule="evenodd" fill="#090808" d="M80.4,73.8c0-2.5,2.3-5.8,4.3-6.1c0.4-0.1,1.3,0.1,1.4,0.3
		c0.2,0.5,0.2,1.2-0.1,1.6c-0.7,0.9-1.5,1.8-2.4,2.4C82.7,72.8,81.7,73.2,80.4,73.8z"/>
	<path fill-rule="evenodd" clip-rule="evenodd" fill="#924D2C" d="M34.4,64.4c-0.1,1.6-2.4,3.4,0.5,4.7c-2,2.4-4,4.8-6,7.1
		c-0.2-0.2-0.4-0.4-0.7-0.6c1.2-1.8,2.6-3.6,3.7-5.6c0.5-0.9,1-2.2,0.8-3.1C32.3,65.2,33.1,64.7,34.4,64.4z"/>
	<path fill-rule="evenodd" clip-rule="evenodd" fill="#36261D" d="M73.5,114.9c-3.7,0.6-7.3,1.2-11,1.9c-0.1-0.3-0.1-0.6-0.2-0.9
		c3.6-0.7,7.3-1.4,10.9-2C73.4,114.2,73.5,114.6,73.5,114.9z"/>
	<path fill-rule="evenodd" clip-rule="evenodd" fill="#AE582F" d="M49.8,72.3c0.4,0.5,0.7,1.1,1.1,1.6c-1.3,1-2.5,2-3.8,3.1
		c-0.2-0.3-0.5-0.5-0.7-0.8C47.5,74.9,48.7,73.6,49.8,72.3z"/>
	<path fill-rule="evenodd" clip-rule="evenodd" fill="#613B29" d="M104.2,33.5c0.9,0.5,1.8,1,2.6,1.4c-2.3,1.8-3.3,1.7-4.9-0.8
		C102.7,33.9,103.4,33.7,104.2,33.5z"/>
	<path fill-rule="evenodd" clip-rule="evenodd" fill="#D3D7D8" d="M178.7,57.9c-3,0.3-1.2-2.5-2.3-3.5c0.6-0.3,1.1-0.6,2.1-1.2
		C178.6,55.1,178.6,56.5,178.7,57.9z"/>
	<path fill-rule="evenodd" clip-rule="evenodd" fill="#BCBCBB" d="M136.4,33.9c1,3,2.1,5.9,3.1,8.9
		C138.5,39.8,137.5,36.9,136.4,33.9z"/>
	<path fill-rule="evenodd" clip-rule="evenodd" fill="#A6552E" d="M119,41.4c1.1-0.9,2.8-1.5,1.7-3.4c0.3-0.1,0.7-0.2,1-0.3
		c-0.3,1.9,0.6,4.2-1.6,5.6c-0.2-0.1-0.3-0.2-0.5-0.3c-0.1-0.4-0.3-0.7-0.4-1.1C119.1,41.8,119.1,41.6,119,41.4z"/>
	<path fill-rule="evenodd" clip-rule="evenodd" fill="#110E0D" d="M111.1,48.4c-0.1-0.4-0.3-1.1-0.4-1.1c-0.9,0-1.9,0.2-2.8,0.3
		c1.8-1.8,3.7-1.5,5.6-0.9c0.1,0.3,0.1,0.6,0.2,0.9C112.8,47.8,111.9,48.1,111.1,48.4z"/>
	<path fill-rule="evenodd" clip-rule="evenodd" fill="#BCBCBB" d="M123.9,25.4c2.5,0.8,5,1.7,7.5,2.5
		C128.9,27.1,126.4,26.2,123.9,25.4z"/>
	<path fill-rule="evenodd" clip-rule="evenodd" fill="#110E0D" d="M98.2,51c-0.9,0.4-1.8,0.8-2.9,1.3c-0.1-1.1-0.2-1.7-0.2-2.4
		c0.6-0.4,1.2-0.8,1.7-1.1C97.3,49.6,97.8,50.3,98.2,51z"/>
	<path fill-rule="evenodd" clip-rule="evenodd" fill="#090808" d="M76.8,72c-1.2,0.9-2.3,1.7-3.5,2.6c-0.3-0.4-0.5-0.8-0.8-1.2
		c1.3-0.7,2.6-1.4,3.8-2.1C76.5,71.5,76.7,71.8,76.8,72z"/>
	<path fill-rule="evenodd" clip-rule="evenodd" fill="#1A1513" d="M104.1,46.2c1.6-0.4,3.2-0.7,4.8-1.1c0,0.2,0,0.4,0,0.5
		c-1.6,0.4-3.2,0.7-4.8,1.1C104.1,46.6,104.1,46.4,104.1,46.2z"/>
	<path fill-rule="evenodd" clip-rule="evenodd" fill="#BCBCBB" d="M145.5,60.5c0.5,1,1,2,1.4,2.9c-0.5,0-1.3,0-1.3-0.1
		C145.5,62.4,145.5,61.5,145.5,60.5z"/>
	<path fill-rule="evenodd" clip-rule="evenodd" fill="#BFBEBE" d="M93.4,26.2c1.1-0.1,2.2-0.1,3.3-0.2C95.6,26,94.5,26.1,93.4,26.2z
		"/>
	<path fill-rule="evenodd" clip-rule="evenodd" fill="#1A1513" d="M103.1,47.3c-0.9,0.3-1.9,0.7-2.8,1c-0.1-0.2-0.2-0.5-0.2-0.7
		c0.8-0.3,1.7-0.6,2.5-0.8C102.7,46.9,102.9,47.1,103.1,47.3z"/>
	<path fill-rule="evenodd" clip-rule="evenodd" fill="#BFBEBE" d="M88.1,27.4c0.2-2.1,1.5-0.6,2.4-0.7
		C89.7,26.9,88.9,27.1,88.1,27.4z"/>
	<path fill-rule="evenodd" clip-rule="evenodd" fill="#BCBCBB" d="M145,56.3c0.1,0.7,0.2,1.5,0.3,2.2C145.1,57.7,145,57,145,56.3z"
		/>
	<path fill-rule="evenodd" clip-rule="evenodd" fill="#0B0A0A" d="M75.9,113.2c-0.3-0.3-0.7-0.5-1-0.8c0.1-0.2,0.2-0.3,0.3-0.5
		c0.4,0.2,0.7,0.5,1.1,0.7C76.2,112.8,76.1,113,75.9,113.2z"/>
	<path fill-rule="evenodd" clip-rule="evenodd" fill="#110E0D" d="M119.6,43c0.2,0.1,0.3,0.2,0.5,0.3c-0.3,0.4-0.6,0.9-1,1.3
		c-0.2-0.1-0.3-0.3-0.5-0.4C119,43.8,119.3,43.4,119.6,43z"/>
	<path fill-rule="evenodd" clip-rule="evenodd" fill="#110E0D" d="M111,53.6c-0.3,0.2-0.5,0.5-0.7,0.5c-0.2,0-0.4-0.2-0.6-0.4
		c0.2-0.2,0.3-0.4,0.5-0.5C110.4,53.3,110.6,53.5,111,53.6z"/>
	<path fill-rule="evenodd" clip-rule="evenodd" fill="#A6552E" d="M113.2,40.7c0.9,0,1.8,0.1,2.7,0.1c-0.2,0.1-0.3,0.1-0.5,0.2
		C114.6,41,113.9,40.8,113.2,40.7z"/>
	<path fill-rule="evenodd" clip-rule="evenodd" fill="#110E0D" d="M103.1,47.3c-0.2-0.2-0.4-0.4-0.5-0.5c0.5-0.2,1.1-0.4,1.6-0.5
		c0,0.2,0,0.4,0,0.6C103.8,47,103.4,47.1,103.1,47.3z"/>
	<path fill-rule="evenodd" clip-rule="evenodd" fill="#BCBCBB" d="M144.4,53.1c0.1,0.4,0.2,0.8,0.3,1.1
		C144.6,53.8,144.5,53.5,144.4,53.1z"/>
	<path fill-rule="evenodd" clip-rule="evenodd" fill="#BFBEBE" d="M98.7,25.6c0.4-0.1,0.8-0.1,1.1-0.2
		C99.5,25.4,99.1,25.5,98.7,25.6z"/>
	<path fill-rule="evenodd" clip-rule="evenodd" fill="#BCBCBB" d="M142.1,48.3c0.3,0.4,0.5,0.9,0.8,1.3
		C142.6,49.2,142.3,48.8,142.1,48.3z"/>
	<path fill-rule="evenodd" clip-rule="evenodd" fill="#A6552E" d="M126.1,36.3c0-0.5,0-1,0-1.5C126.1,35.4,126.1,35.9,126.1,36.3z"
		/>
	<path fill-rule="evenodd" clip-rule="evenodd" fill="#A6552E" d="M122.8,37.7c0.4,0,0.7,0,1.1,0C123.5,37.7,123.1,37.7,122.8,37.7z
		"/>
	<path fill-rule="evenodd" clip-rule="evenodd" fill="#BCBCBB" d="M135.9,31.8c0.1,0.4,0.1,0.7,0.2,1.1
		C136.1,32.5,136,32.2,135.9,31.8z"/>
	<path fill-rule="evenodd" clip-rule="evenodd" fill="#110E0D" d="M110.5,41.4c0.7-0.1,1.4-0.3,2.2-0.4
		C111.9,41.1,111.2,41.3,110.5,41.4z"/>
	<path fill-rule="evenodd" clip-rule="evenodd" fill="#BFBEBE" d="M75.8,30c0.4-0.1,0.7-0.2,1.1-0.3C76.6,29.8,76.2,29.9,75.8,30z"
		/>
	<path fill-rule="evenodd" clip-rule="evenodd" fill="#BFBEBE" d="M78,29.4c0.4-0.1,0.8-0.2,1.1-0.3C78.7,29.2,78.3,29.3,78,29.4z"
		/>
	<path fill-rule="evenodd" clip-rule="evenodd" fill="#110E0D" d="M107.9,42c0.7-0.1,1.4-0.3,2.1-0.4
		C109.3,41.7,108.6,41.8,107.9,42z"/>
	<path fill-rule="evenodd" clip-rule="evenodd" fill="#BCBCBB" d="M140.1,44c0.2,0.5,0.4,0.9,0.6,1.4
		C140.5,44.9,140.3,44.5,140.1,44z"/>
	<path fill-rule="evenodd" clip-rule="evenodd" fill="#110E0D" d="M108.9,45.7c0-0.2,0-0.4,0-0.5c0.3,0,0.5-0.1,0.8-0.1
		C109.5,45.2,109.2,45.5,108.9,45.7z"/>
	<path fill-rule="evenodd" clip-rule="evenodd" fill="#BCBCBB" d="M133.4,28.6c0.4,0.1,0.7,0.3,1.1,0.4
		C134.2,28.9,133.8,28.7,133.4,28.6z"/>
	<path fill-rule="evenodd" clip-rule="evenodd" fill="#110E0D" d="M67.4,62.2c-0.5,0.1-1,0.3-1.5,0.4C66.4,62.5,66.9,62.3,67.4,62.2
		z"/>
	<path fill-rule="evenodd" clip-rule="evenodd" fill="#A6552E" d="M116.3,41c0.6,0.1,1.1,0.2,1.7,0.3c-0.5,0-1,0.1-1.5,0.1
		C116.4,41.3,116.3,41.1,116.3,41z"/>
	<path fill-rule="evenodd" clip-rule="evenodd" fill="#110E0D" d="M105.6,42.5c0.6-0.1,1.1-0.3,1.7-0.4
		C106.8,42.2,106.2,42.3,105.6,42.5z"/>
	<path fill-rule="evenodd" clip-rule="evenodd" fill="#110E0D" d="M101.5,43.6c0.5-0.1,1-0.3,1.6-0.4
		C102.5,43.3,102,43.4,101.5,43.6z"/>
	<path fill-rule="evenodd" clip-rule="evenodd" fill="#110E0D" d="M93,46.2c0.5-0.2,1.1-0.3,1.6-0.5C94,45.9,93.5,46.1,93,46.2z"/>
	<path fill-rule="evenodd" clip-rule="evenodd" fill="#110E0D" d="M81.2,55.8c-0.5,0.1-1,0.3-1.5,0.4C80.2,56.1,80.7,55.9,81.2,55.8
		z"/>
	<path fill-rule="evenodd" clip-rule="evenodd" fill="#613B29" d="M101.1,34.2c-0.6,0.1-1.2,0.2-1.7,0.3
		C99.9,34.4,100.5,34.3,101.1,34.2z"/>
	<path fill-rule="evenodd" clip-rule="evenodd" fill="#110E0D" d="M85.4,53.7c-0.3,0.2-0.7,0.3-1,0.5C84.8,54,85.1,53.8,85.4,53.7z"
		/>
	<path fill-rule="evenodd" clip-rule="evenodd" fill="#110E0D" d="M84.4,54.2c-0.3,0.1-0.7,0.3-1,0.4C83.7,54.5,84.1,54.3,84.4,54.2
		z"/>
	<path fill-rule="evenodd" clip-rule="evenodd" fill="#110E0D" d="M71.6,55.8c0.4-0.1,0.7-0.3,1.1-0.4C72.3,55.5,72,55.6,71.6,55.8z
		"/>
	<path fill-rule="evenodd" clip-rule="evenodd" fill="#110E0D" d="M82.2,55.2c-0.3,0.2-0.6,0.3-0.9,0.5
		C81.6,55.6,81.9,55.4,82.2,55.2z"/>
	<path fill-rule="evenodd" clip-rule="evenodd" fill="#110E0D" d="M79.1,56.4c-0.3,0.2-0.7,0.3-1,0.5C78.4,56.7,78.7,56.5,79.1,56.4
		z"/>
	<path fill-rule="evenodd" clip-rule="evenodd" fill="#110E0D" d="M77,57.4c-0.3,0.1-0.7,0.3-1,0.4C76.3,57.7,76.6,57.5,77,57.4z"/>
	<path fill-rule="evenodd" clip-rule="evenodd" fill="#110E0D" d="M75.4,58c-0.4,0.1-0.7,0.3-1.1,0.4C74.7,58.3,75.1,58.1,75.4,58z"
		/>
	<path fill-rule="evenodd" clip-rule="evenodd" fill="#110E0D" d="M73.2,59c-0.3,0.2-0.6,0.3-1,0.5C72.5,59.3,72.9,59.1,73.2,59z"/>
	<path fill-rule="evenodd" clip-rule="evenodd" fill="#AE582F" d="M51.3,74.5c0.4,0,0.7,0.1,1.1,0.1C52.1,74.6,51.7,74.5,51.3,74.5z
		"/>
	<path fill-rule="evenodd" clip-rule="evenodd" fill="#110E0D" d="M85,50c0.3-0.2,0.7-0.3,1-0.5C85.7,49.7,85.4,49.8,85,50z"/>
	<path fill-rule="evenodd" clip-rule="evenodd" fill="#110E0D" d="M104.1,48.9c-0.3,0.1-0.7,0.3-1,0.4
		C103.5,49.2,103.8,49,104.1,48.9z"/>
	<path fill-rule="evenodd" clip-rule="evenodd" fill="#110E0D" d="M105.7,48.4c-0.3,0.1-0.6,0.2-1,0.4
		C105,48.6,105.4,48.5,105.7,48.4z"/>
	<path fill-rule="evenodd" clip-rule="evenodd" fill="#110E0D" d="M107.2,47.8c-0.3,0.1-0.6,0.2-0.9,0.4
		C106.6,48,106.9,47.9,107.2,47.8z"/>
	<path fill-rule="evenodd" clip-rule="evenodd" fill="#110E0D" d="M89.2,47.8c0.4-0.1,0.7-0.3,1.1-0.4
		C89.9,47.5,89.5,47.7,89.2,47.8z"/>
	<path fill-rule="evenodd" clip-rule="evenodd" fill="#110E0D" d="M91.4,46.8c0.3-0.1,0.6-0.3,1-0.4C92.1,46.5,91.7,46.6,91.4,46.8z
		"/>
	<path fill-rule="evenodd" clip-rule="evenodd" fill="#110E0D" d="M94,50c-0.3,0.1-0.7,0.2-1,0.4C93.3,50.2,93.7,50.1,94,50z"/>
	<path fill-rule="evenodd" clip-rule="evenodd" fill="#110E0D" d="M94.9,45.6c0.4-0.1,0.8-0.3,1.2-0.4
		C95.7,45.4,95.3,45.5,94.9,45.6z"/>
	<path fill-rule="evenodd" clip-rule="evenodd" fill="#110E0D" d="M96.6,45.1c0.4-0.1,0.8-0.3,1.2-0.4C97.3,44.8,97,45,96.6,45.1z"
		/>
	<path fill-rule="evenodd" clip-rule="evenodd" fill="#110E0D" d="M98.2,44.6c0.4-0.1,0.8-0.3,1.2-0.4
		C98.9,44.3,98.6,44.5,98.2,44.6z"/>
	<path fill-rule="evenodd" clip-rule="evenodd" fill="#110E0D" d="M82.9,51c0.4-0.2,0.7-0.3,1.1-0.5C83.6,50.7,83.2,50.9,82.9,51z"
		/>
	<path fill-rule="evenodd" clip-rule="evenodd" fill="#110E0D" d="M99.8,44.1c0.4-0.1,0.8-0.3,1.2-0.4
		C100.5,43.8,100.1,43.9,99.8,44.1z"/>
	<path fill-rule="evenodd" clip-rule="evenodd" fill="#110E0D" d="M103.5,43c0.4-0.1,0.7-0.2,1.1-0.4
		C104.3,42.8,103.9,42.9,103.5,43z"/>
	<path fill-rule="evenodd" clip-rule="evenodd" fill="#110E0D" d="M80.2,52.1c0.3-0.1,0.7-0.2,1-0.3C80.8,51.9,80.5,52,80.2,52.1z"
		/>
	<path fill-rule="evenodd" clip-rule="evenodd" fill="#110E0D" d="M116.3,41c0.1,0.2,0.1,0.3,0.2,0.4c-0.4-0.1-0.7-0.2-1.1-0.3
		c0.2-0.1,0.3-0.1,0.5-0.2C116,40.9,116.1,41,116.3,41z"/>
	<path fill-rule="evenodd" clip-rule="evenodd" fill="#110E0D" d="M88.7,52.1c-0.4,0.1-0.7,0.3-1,0.4C88,52.4,88.4,52.2,88.7,52.1z"
		/>
	<path fill-rule="evenodd" clip-rule="evenodd" fill="#110E0D" d="M77,53.7c0.4-0.2,0.7-0.3,1.1-0.5C77.7,53.3,77.3,53.5,77,53.7z"
		/>
	<path fill-rule="evenodd" clip-rule="evenodd" fill="#110E0D" d="M86.5,53.1c-0.3,0.2-0.7,0.3-1,0.5C85.8,53.5,86.2,53.3,86.5,53.1
		z"/>
	<path fill-rule="evenodd" clip-rule="evenodd" fill="#110E0D" d="M75.3,54.2c0.4-0.1,0.7-0.2,1.1-0.4C76,53.9,75.7,54.1,75.3,54.2z
		"/>
	<path fill-rule="evenodd" clip-rule="evenodd" fill="#110E0D" d="M119,41.4c0,0.2,0.1,0.3,0.1,0.5c-0.2-0.1-0.4-0.2-0.6-0.3
		C118.7,41.5,118.9,41.5,119,41.4z"/>
	<path fill-rule="evenodd" clip-rule="evenodd" fill="#110E0D" d="M86.2,49.4l0.1-0.2c0,0,0.2,0,0.2,0
		C86.4,49.3,86.3,49.4,86.2,49.4z"/>
	<path fill-rule="evenodd" clip-rule="evenodd" fill="#110E0D" d="M64.2,62.5l-0.2,0l0-0.2C64,62.3,64.1,62.4,64.2,62.5z"/>
	<path fill-rule="evenodd" clip-rule="evenodd" fill="#110E0D" d="M68.6,61.7c-0.2,0.1-0.4,0.2-0.6,0.3
		C68.2,61.9,68.4,61.8,68.6,61.7z"/>
	<path fill-rule="evenodd" clip-rule="evenodd" fill="#110E0D" d="M63.7,61.1c0.1-0.2,0.3-0.4,0.4-0.6C64,60.7,63.9,60.9,63.7,61.1z
		"/>
	<path fill-rule="evenodd" clip-rule="evenodd" fill="#110E0D" d="M94.5,49.9L94.3,50c0,0-0.3,0-0.3,0
		C94.2,49.9,94.4,49.9,94.5,49.9z"/>
	<path fill-rule="evenodd" clip-rule="evenodd" fill="#110E0D" d="M74.2,58.5l-0.1,0.2c0,0-0.2,0-0.2,0C74,58.6,74.1,58.5,74.2,58.5
		z"/>
	<path fill-rule="evenodd" clip-rule="evenodd" fill="#110E0D" d="M102.6,49.4c-0.2,0.1-0.3,0.2-0.5,0.2
		C102.2,49.6,102.4,49.5,102.6,49.4z"/>
	<path fill-rule="evenodd" clip-rule="evenodd" fill="#110E0D" d="M84,50.5c0.1-0.1,0.3-0.2,0.4-0.2C84.2,50.4,84.1,50.5,84,50.5z"
		/>
	<path fill-rule="evenodd" clip-rule="evenodd" fill="#110E0D" d="M78,56.9c-0.1,0.1-0.3,0.2-0.4,0.2C77.7,57,77.8,56.9,78,56.9z"/>
	<path fill-rule="evenodd" clip-rule="evenodd" fill="#110E0D" d="M69.9,56.8c0.2-0.1,0.4-0.3,0.7-0.4
		C70.4,56.6,70.2,56.7,69.9,56.8z"/>
	<path fill-rule="evenodd" clip-rule="evenodd" fill="#110E0D" d="M101,50c-0.2,0.1-0.4,0.2-0.6,0.3C100.7,50.2,100.8,50.1,101,50z"
		/>
	<path fill-rule="evenodd" clip-rule="evenodd" fill="#110E0D" d="M70.7,56.4c0.1-0.1,0.3-0.2,0.4-0.3C71,56.2,70.8,56.3,70.7,56.4z
		"/>
	<path fill-rule="evenodd" clip-rule="evenodd" fill="#110E0D" d="M99.5,50.5c-0.2,0.1-0.4,0.2-0.6,0.2
		C99.1,50.7,99.3,50.6,99.5,50.5z"/>
	<path fill-rule="evenodd" clip-rule="evenodd" fill="#110E0D" d="M81.8,51.6c0.1-0.1,0.3-0.2,0.4-0.3C82.1,51.4,82,51.5,81.8,51.6z
		"/>
	<path fill-rule="evenodd" clip-rule="evenodd" fill="#110E0D" d="M79,52.6c0.2-0.1,0.4-0.2,0.6-0.3C79.4,52.4,79.2,52.5,79,52.6z"
		/>
	<path fill-rule="evenodd" clip-rule="evenodd" fill="#110E0D" d="M83,54.8c-0.2,0.1-0.4,0.2-0.7,0.4C82.5,55,82.7,54.9,83,54.8z"/>
	<path fill-rule="evenodd" clip-rule="evenodd" fill="#4D2F21" d="M56.4,53.9c-1.4,1.3-2.8,2.5-4.6,4.1c0-2.5,0.9-3.4,4.1-4.7
		C56.1,53.6,56.2,53.8,56.4,53.9z"/>
</g>
</svg>
